{"glyphs":{"0":{"ha":919,"x_min":44,"x_max":878,"o":"m 44 522 q 147 900 44 763 q 461 1038 249 1038 q 775 899 672 1038 q 878 522 878 761 q 775 144 878 282 q 461 6 672 6 q 147 144 249 6 q 44 522 44 282 m 574 522 q 551 690 574 633 q 461 746 529 746 q 369 690 392 746 q 347 522 347 633 q 369 353 347 410 q 461 297 392 297 q 551 353 529 297 q 574 522 574 410 z "},"1":{"ha":554,"x_min":14,"x_max":485,"o":"m 14 726 l 14 1015 l 485 1015 l 485 0 l 161 0 l 161 726 l 14 726 z "},"2":{"ha":786,"x_min":35,"x_max":757,"o":"m 39 246 q 333 498 225 385 q 442 710 442 611 q 427 761 442 743 q 389 779 413 779 q 345 751 361 779 q 333 664 329 722 l 35 664 q 91 876 39 793 q 226 999 143 960 q 410 1038 310 1038 q 670 952 588 1038 q 753 733 753 867 q 663 470 753 593 q 439 263 574 347 l 757 263 l 757 14 l 39 14 l 39 246 z "},"3":{"ha":854,"x_min":51,"x_max":783,"o":"m 63 697 q 159 950 67 863 q 421 1038 251 1038 q 608 1000 531 1038 q 726 899 686 963 q 765 754 765 835 q 719 602 765 657 q 617 528 674 547 l 617 522 q 783 290 783 460 q 742 133 783 201 q 623 28 700 65 q 440 -10 546 -10 q 157 76 260 -10 q 51 346 54 163 l 351 346 q 366 270 349 296 q 426 244 383 244 q 468 263 451 244 q 485 313 485 282 q 459 372 485 351 q 372 392 433 392 l 321 392 l 321 640 l 371 640 q 465 715 465 635 q 451 767 465 750 q 414 783 436 783 q 363 697 363 783 l 63 697 z "},"4":{"ha":978,"x_min":72,"x_max":918,"o":"m 72 153 l 72 410 l 486 1000 l 818 1000 l 818 419 l 918 419 l 918 153 l 818 153 l 818 0 l 507 0 l 507 153 l 72 153 m 532 649 l 382 419 l 532 419 l 532 649 z "},"5":{"ha":917,"x_min":126,"x_max":861,"o":"m 811 744 l 408 744 l 408 628 q 477 665 435 651 q 572 679 519 679 q 732 635 667 679 q 829 516 797 590 q 861 351 861 442 q 767 92 861 185 q 510 0 674 0 q 303 42 390 0 q 172 157 217 83 q 129 325 126 231 l 429 325 q 444 283 429 303 q 494 264 460 264 q 546 289 529 264 q 563 357 563 314 q 544 418 563 397 q 490 439 525 439 q 446 425 461 439 q 431 393 431 411 l 131 393 l 131 1015 l 811 1015 l 811 744 z "},"6":{"ha":879,"x_min":72,"x_max":818,"o":"m 507 707 q 483 768 499 749 q 433 788 467 788 q 363 734 381 788 q 346 568 346 681 q 418 629 371 607 q 525 651 465 651 q 738 569 658 651 q 818 332 818 488 q 774 151 818 228 q 650 32 731 74 q 460 -10 569 -10 q 157 124 242 -10 q 72 500 72 258 q 111 806 72 689 q 234 978 150 922 q 453 1033 318 1033 q 702 939 618 1033 q 794 707 786 844 l 507 707 m 449 415 q 389 394 411 415 q 367 336 367 374 q 388 274 367 294 q 449 254 410 254 q 509 274 488 254 q 531 336 531 294 q 508 394 531 374 q 449 415 486 415 z "},"7":{"ha":711,"x_min":25,"x_max":697,"o":"m 697 789 l 381 0 l 64 0 l 383 751 l 25 751 l 25 1015 l 697 1015 l 697 789 z "},"8":{"ha":913,"x_min":67,"x_max":844,"o":"m 207 558 q 120 642 151 590 q 89 767 89 694 q 129 903 89 842 q 252 1001 169 964 q 456 1038 335 1038 q 659 1001 576 1038 q 782 903 742 964 q 822 767 822 842 q 791 642 822 694 q 704 558 760 590 q 844 313 844 476 q 792 133 844 207 q 650 22 739 60 q 456 -15 561 -15 q 261 22 350 -15 q 119 133 172 60 q 67 313 67 207 q 207 558 67 476 m 519 715 q 501 777 519 754 q 456 800 483 800 q 410 777 428 800 q 392 715 392 754 q 410 654 392 675 q 456 633 428 633 q 501 654 483 633 q 519 715 519 675 m 456 426 q 390 399 414 426 q 365 331 365 372 q 389 263 365 289 q 456 236 413 236 q 522 263 499 236 q 546 331 546 289 q 522 399 546 372 q 456 426 497 426 z "},"9":{"ha":829,"x_min":42,"x_max":790,"o":"m 353 317 q 378 256 360 276 q 431 236 397 236 q 498 288 482 236 q 514 456 514 340 q 442 394 489 417 q 335 372 394 372 q 122 456 203 372 q 42 696 42 539 q 85 877 42 800 q 210 996 129 954 q 400 1038 292 1038 q 705 908 619 1038 q 790 540 790 779 q 706 128 790 265 q 424 -10 622 -10 q 235 36 314 -10 q 113 156 156 82 q 65 317 71 231 l 353 317 m 411 608 q 471 629 449 608 q 493 688 493 650 q 472 749 493 729 q 411 769 450 769 q 351 749 372 769 q 329 688 329 729 q 351 629 329 650 q 411 608 374 608 z "},"\u0000":{"ha":0,"x_min":0,"x_max":0,"o":""},"\r":{"ha":236,"x_min":0,"x_max":0,"o":""}," ":{"ha":236,"x_min":0,"x_max":0,"o":""},"अ":{"ha":1176,"x_min":71,"x_max":1190,"o":"m 1190 1028 l 1190 793 l 1083 793 l 1083 0 l 801 0 l 801 308 l 699 308 q 605 147 682 206 q 410 88 528 88 q 231 125 307 88 q 113 231 154 163 q 71 388 71 299 l 335 388 q 349 347 335 364 q 392 329 364 329 q 433 346 418 329 q 447 389 447 363 q 425 440 447 421 q 360 458 403 458 l 292 458 l 292 685 l 360 685 q 417 700 394 685 q 440 746 440 715 q 426 786 440 771 q 390 801 413 801 q 353 786 367 801 q 339 749 339 771 l 79 749 q 117 900 79 833 q 226 1003 156 967 q 390 1040 296 1040 q 610 971 529 1040 q 690 783 690 901 q 656 659 690 711 q 558 581 621 607 l 558 575 q 625 540 599 563 l 801 540 l 801 1028 l 1190 1028 z "},"आ":{"ha":1640,"x_min":71,"x_max":1656,"o":"m 1656 793 l 1550 793 l 1550 0 l 1267 0 l 1267 793 l 1083 793 l 1083 0 l 801 0 l 801 308 l 699 308 q 605 147 682 206 q 410 88 528 88 q 231 125 307 88 q 113 231 154 163 q 71 388 71 299 l 335 388 q 349 347 335 364 q 392 329 364 329 q 433 346 418 329 q 447 389 447 363 q 425 440 447 421 q 360 458 403 458 l 292 458 l 292 685 l 360 685 q 417 700 394 685 q 440 746 440 715 q 426 786 440 771 q 390 801 413 801 q 353 786 367 801 q 339 749 339 771 l 79 749 q 117 900 79 833 q 226 1003 156 967 q 390 1040 296 1040 q 610 971 529 1040 q 690 783 690 901 q 656 659 690 711 q 558 581 621 607 l 558 575 q 625 540 599 563 l 801 540 l 801 1028 l 1656 1028 l 1656 793 z "},"इ":{"ha":801,"x_min":-17,"x_max":818,"o":"m 390 533 q 360 525 371 533 q 349 501 349 517 q 392 471 349 471 l 451 471 q 657 411 575 471 q 739 215 739 351 q 675 39 739 107 q 503 -29 611 -29 q 427 -19 463 -29 q 368 7 392 -8 l 368 -124 l 100 -124 l 100 235 l 354 235 q 372 192 356 206 q 417 178 389 178 q 457 190 443 178 q 471 224 471 203 q 396 274 471 274 q 300 276 339 274 q 135 338 206 282 q 64 504 64 394 q 134 675 64 617 q 319 733 204 733 l 382 733 l 382 793 l -17 793 l -17 1028 l 818 1028 l 818 793 l 656 793 l 656 533 l 390 533 z "},"ई":{"ha":801,"x_min":-17,"x_max":996,"o":"m 740 1114 q 731 1176 743 1156 q 696 1197 719 1197 q 658 1177 668 1197 q 647 1113 647 1157 l 647 1028 l 818 1028 l 818 793 l 656 793 l 656 533 l 390 533 q 360 525 371 533 q 349 501 349 517 q 392 471 349 471 l 451 471 q 657 411 575 471 q 739 215 739 351 q 675 39 739 107 q 503 -29 611 -29 q 427 -19 463 -29 q 368 7 392 -8 l 368 -124 l 100 -124 l 100 235 l 354 235 q 372 192 356 206 q 417 178 389 178 q 457 190 443 178 q 471 224 471 203 q 396 274 471 274 q 300 276 339 274 q 135 338 206 282 q 64 504 64 394 q 134 675 64 617 q 319 733 204 733 l 382 733 l 382 793 l -17 793 l -17 1028 l 386 1028 l 386 1108 q 454 1335 386 1240 q 690 1431 522 1431 q 918 1347 840 1431 q 988 1114 996 1263 l 740 1114 z "},"उ":{"ha":776,"x_min":-15,"x_max":792,"o":"m 700 747 q 669 613 700 665 q 589 546 639 560 l 589 542 q 691 457 651 519 q 731 310 731 394 q 644 90 731 172 q 406 7 557 7 q 144 95 243 7 q 46 340 46 183 l 315 340 q 336 281 315 303 q 392 258 357 258 q 444 278 425 258 q 464 333 464 299 q 442 391 464 368 q 381 414 421 414 l 285 414 l 285 660 l 339 660 q 402 683 376 660 q 428 760 428 706 l 428 792 l -15 792 l -15 1028 l 792 1028 l 792 792 l 700 792 l 700 747 z "},"ऊ":{"ha":1174,"x_min":-15,"x_max":1186,"o":"m 700 747 q 669 613 700 665 q 589 546 639 560 l 589 542 l 811 542 q 1051 473 965 542 q 1138 269 1138 404 q 1069 90 1138 161 q 875 19 1001 19 q 783 29 831 19 l 783 240 l 824 240 q 856 251 844 240 q 867 279 867 261 q 854 308 867 297 q 815 319 842 319 l 725 319 q 726 293 726 311 q 688 147 726 211 q 577 44 650 82 q 406 7 504 7 q 144 95 243 7 q 46 340 46 183 l 315 340 q 336 281 315 303 q 392 258 357 258 q 444 278 425 258 q 464 333 464 299 q 442 391 464 368 q 381 414 421 414 l 285 414 l 285 660 l 339 660 q 402 683 376 660 q 428 760 428 706 l 428 793 l -15 793 l -15 1028 l 1186 1028 l 1186 793 l 700 793 l 700 747 z "},"ऋ":{"ha":1488,"x_min":-15,"x_max":1503,"o":"m 903 793 l 903 638 l 1075 638 q 1126 651 1107 638 q 1144 694 1144 665 l 1144 726 l 1386 726 l 1386 244 l 1343 244 q 1277 226 1299 244 q 1256 176 1256 207 q 1283 127 1256 143 q 1358 111 1311 111 q 1438 121 1394 111 l 1438 -103 q 1319 -112 1376 -112 q 1077 -42 1169 -112 q 985 150 985 28 q 1027 295 985 236 q 1144 385 1069 354 l 1144 431 q 1032 415 1093 415 l 903 415 l 903 0 l 643 0 l 643 153 l 460 0 l 97 0 l 97 11 l 632 410 q 585 455 615 439 q 514 471 554 471 q 401 428 440 471 q 363 315 363 385 l 79 315 q 119 519 79 431 q 238 658 160 608 q 428 708 317 708 q 643 631 561 708 l 643 793 l -15 793 l -15 1028 l 1503 1028 l 1503 793 l 903 793 z "},"ॠ":{"ha":1488,"x_min":-15,"x_max":1507,"o":"m 903 793 l 903 638 l 1075 638 q 1126 651 1107 638 q 1144 694 1144 665 l 1144 726 l 1386 726 l 1386 238 l 1340 238 q 1282 228 1303 238 q 1261 192 1261 218 q 1340 147 1261 147 l 1429 147 l 1429 -61 l 1357 -61 q 1285 -71 1311 -61 q 1260 -111 1260 -81 q 1288 -151 1260 -142 q 1358 -161 1315 -161 q 1503 -140 1431 -161 l 1503 -347 q 1416 -370 1468 -362 q 1314 -378 1364 -378 q 1084 -320 1179 -378 q 989 -142 989 -262 q 1029 -28 989 -76 q 1136 36 1069 21 l 1136 42 q 1031 95 1071 56 q 990 207 990 135 q 1034 320 990 278 q 1144 379 1078 363 l 1144 431 q 1032 415 1093 415 l 903 415 l 903 0 l 643 0 l 643 153 l 460 0 l 97 0 l 97 11 l 632 410 q 585 455 615 439 q 514 471 554 471 q 401 428 440 471 q 363 315 363 385 l 79 315 q 119 519 79 431 q 238 658 160 608 q 428 708 317 708 q 643 631 561 708 l 643 793 l -15 793 l -15 1028 l 1507 1028 l 1507 793 l 903 793 z "},"ऌ":{"ha":1263,"x_min":-15,"x_max":1278,"o":"m 1033 793 l 1033 689 q 1158 573 1111 651 q 1206 376 1206 494 q 1183 238 1206 304 l 1175 238 q 1077 219 1104 238 q 1050 167 1050 201 q 1081 122 1050 138 q 1160 106 1111 106 q 1240 114 1207 106 l 1240 -110 q 1122 -118 1176 -118 q 874 -47 967 -118 q 781 153 781 24 q 821 281 781 225 q 924 367 861 338 l 924 378 q 902 447 924 422 q 843 472 881 472 q 776 440 797 472 q 756 365 756 408 l 756 315 l 522 315 l 522 365 q 501 440 522 408 q 435 472 481 472 q 369 445 393 472 q 346 372 346 418 q 449 261 346 261 q 485 263 471 261 l 485 18 q 436 17 463 17 q 157 113 256 17 q 58 376 58 208 q 106 570 58 493 q 228 684 153 647 q 392 721 304 721 q 632 589 563 721 l 638 589 q 760 697 676 664 l 760 793 l -15 793 l -15 1028 l 1278 1028 l 1278 793 l 1033 793 z "},"ॡ":{"ha":1279,"x_min":-15,"x_max":1311,"o":"m 1167 -161 q 1311 -140 1239 -161 l 1311 -347 q 1224 -370 1276 -362 q 1122 -378 1172 -378 q 892 -320 988 -378 q 797 -142 797 -262 q 838 -28 797 -76 q 944 36 878 21 l 944 42 q 839 95 879 56 q 799 207 799 135 q 833 310 799 269 q 924 369 868 350 l 924 378 q 902 447 924 422 q 843 472 881 472 q 776 440 797 472 q 756 365 756 408 l 756 315 l 522 315 l 522 365 q 501 440 522 408 q 435 472 481 472 q 369 445 393 472 q 346 372 346 418 q 449 261 346 261 q 485 263 471 261 l 485 18 q 436 17 463 17 q 157 113 256 17 q 58 376 58 208 q 106 570 58 493 q 228 684 153 647 q 392 721 304 721 q 632 589 563 721 l 638 589 q 760 697 676 664 l 760 793 l -15 793 l -15 1028 l 1294 1028 l 1294 793 l 1033 793 l 1033 689 q 1158 573 1111 651 q 1206 376 1206 494 q 1183 238 1206 304 l 1149 238 q 1090 228 1111 238 q 1068 192 1068 218 q 1149 147 1068 147 l 1238 147 l 1238 -61 l 1165 -61 q 1092 -71 1118 -61 q 1067 -111 1067 -81 q 1095 -151 1067 -142 q 1167 -161 1124 -161 z "},"ए":{"ha":907,"x_min":-15,"x_max":922,"o":"m 922 793 l 824 793 l 824 715 q 761 487 824 567 q 557 407 699 407 q 468 414 521 407 l 468 667 q 493 664 485 664 q 535 679 521 664 q 549 722 549 694 l 549 793 l 379 793 l 379 358 q 402 290 379 313 q 457 267 425 267 q 510 286 489 267 q 531 338 531 306 l 807 338 q 713 108 807 190 q 461 26 618 26 q 192 120 286 26 q 97 369 97 214 l 96 793 l -15 793 l -15 1028 l 922 1028 l 922 793 z "},"ऐ":{"ha":907,"x_min":-15,"x_max":922,"o":"m 922 793 l 824 793 l 824 715 q 761 487 824 567 q 557 407 699 407 q 468 414 521 407 l 468 667 q 493 664 485 664 q 535 679 521 664 q 549 722 549 694 l 549 793 l 379 793 l 379 358 q 402 290 379 313 q 457 267 425 267 q 510 286 489 267 q 531 338 531 306 l 807 338 q 713 108 807 190 q 461 26 618 26 q 192 120 286 26 q 97 369 97 214 l 96 793 l -15 793 l -15 1028 l 543 1028 q 470 1126 497 1096 q 410 1167 443 1156 q 319 1179 378 1179 l 238 1179 l 238 1406 l 315 1406 q 513 1378 440 1404 q 651 1274 586 1353 q 807 1028 717 1196 l 922 1028 l 922 793 z "},"ओ":{"ha":1640,"x_min":71,"x_max":1656,"o":"m 1656 1028 l 1656 793 l 1550 793 l 1550 0 l 1267 0 l 1267 793 l 1083 793 l 1083 0 l 801 0 l 801 308 l 699 308 q 605 147 682 206 q 410 88 528 88 q 231 125 307 88 q 113 231 154 163 q 71 388 71 299 l 335 388 q 349 347 335 364 q 392 329 364 329 q 433 346 418 329 q 447 389 447 363 q 425 440 447 421 q 360 458 403 458 l 292 458 l 292 685 l 360 685 q 417 700 394 685 q 440 746 440 715 q 426 786 440 771 q 390 801 413 801 q 353 786 367 801 q 339 749 339 771 l 79 749 q 117 900 79 833 q 226 1003 156 967 q 390 1040 296 1040 q 610 971 529 1040 q 690 783 690 901 q 656 659 690 711 q 558 581 621 607 l 558 575 q 625 540 599 563 l 801 540 l 801 1028 l 1271 1028 q 1198 1126 1225 1096 q 1138 1167 1171 1156 q 1047 1179 1106 1179 l 965 1179 l 965 1406 l 1043 1406 q 1241 1378 1168 1404 q 1379 1274 1314 1353 q 1535 1028 1444 1196 l 1656 1028 z "},"औ":{"ha":1640,"x_min":71,"x_max":1656,"o":"m 1656 1028 l 1656 793 l 1550 793 l 1550 0 l 1267 0 l 1267 793 l 1083 793 l 1083 0 l 801 0 l 801 308 l 699 308 q 605 147 682 206 q 410 88 528 88 q 231 125 307 88 q 113 231 154 163 q 71 388 71 299 l 335 388 q 349 347 335 364 q 392 329 364 329 q 433 346 418 329 q 447 389 447 363 q 425 440 447 421 q 360 458 403 458 l 292 458 l 292 685 l 360 685 q 417 700 394 685 q 440 746 440 715 q 426 786 440 771 q 390 801 413 801 q 353 786 367 801 q 339 749 339 771 l 79 749 q 117 900 79 833 q 226 1003 156 967 q 390 1040 296 1040 q 610 971 529 1040 q 690 783 690 901 q 656 659 690 711 q 558 581 621 607 l 558 575 q 625 540 599 563 l 801 540 l 801 1028 l 1285 1028 l 1236 1053 q 1168 1086 1189 1078 q 1122 1097 1147 1094 q 1025 1099 1096 1099 l 940 1099 l 940 1272 l 1018 1272 q 1121 1269 1089 1272 q 1182 1256 1153 1267 q 1249 1218 1211 1244 q 1177 1302 1211 1276 q 1113 1334 1143 1328 q 1031 1340 1082 1340 l 940 1340 l 940 1515 l 1024 1515 q 1213 1489 1150 1515 q 1340 1368 1275 1463 q 1532 1028 1404 1274 l 1656 1028 z "},"ऍ":{"ha":907,"x_min":-15,"x_max":922,"o":"m 922 793 l 824 793 l 824 715 q 761 487 824 567 q 557 407 699 407 q 468 414 521 407 l 468 667 q 493 664 485 664 q 535 679 521 664 q 549 722 549 694 l 549 793 l 379 793 l 379 358 q 402 290 379 313 q 457 267 425 267 q 510 286 489 267 q 531 338 531 306 l 807 338 q 713 108 807 190 q 461 26 618 26 q 192 120 286 26 q 97 369 97 214 l 96 793 l -15 793 l -15 1028 l 922 1028 l 922 793 m 818 1446 q 728 1208 818 1293 q 454 1122 638 1122 q 181 1208 271 1122 q 90 1446 90 1293 l 332 1446 q 362 1360 332 1392 q 454 1329 392 1329 q 547 1360 517 1329 q 576 1446 576 1392 l 818 1446 z "},"ॲ":{"ha":1183,"x_min":71,"x_max":1317,"o":"m 1190 1028 l 1190 793 l 1083 793 l 1083 0 l 801 0 l 801 308 l 699 308 q 605 147 682 206 q 410 88 528 88 q 231 125 307 88 q 113 231 154 163 q 71 388 71 299 l 335 388 q 349 347 335 364 q 392 329 364 329 q 433 346 418 329 q 447 389 447 363 q 425 440 447 421 q 360 458 403 458 l 292 458 l 292 685 l 360 685 q 417 700 394 685 q 440 746 440 715 q 426 786 440 771 q 390 801 413 801 q 353 786 367 801 q 339 749 339 771 l 79 749 q 117 900 79 833 q 226 1003 156 967 q 390 1040 296 1040 q 610 971 529 1040 q 690 783 690 901 q 656 659 690 711 q 558 581 621 607 l 558 575 q 625 540 599 563 l 801 540 l 801 1028 l 1190 1028 m 1317 1454 q 1226 1216 1317 1301 q 953 1131 1136 1131 q 679 1216 769 1131 q 589 1454 589 1301 l 831 1454 q 860 1369 831 1400 q 953 1338 890 1338 q 1045 1369 1015 1338 q 1075 1454 1075 1400 l 1317 1454 z "},"ऑ":{"ha":1640,"x_min":71,"x_max":1656,"o":"m 1656 793 l 1550 793 l 1550 0 l 1267 0 l 1267 793 l 1083 793 l 1083 0 l 801 0 l 801 308 l 699 308 q 605 147 682 206 q 410 88 528 88 q 231 125 307 88 q 113 231 154 163 q 71 388 71 299 l 335 388 q 349 347 335 364 q 392 329 364 329 q 433 346 418 329 q 447 389 447 363 q 425 440 447 421 q 360 458 403 458 l 292 458 l 292 685 l 360 685 q 417 700 394 685 q 440 746 440 715 q 426 786 440 771 q 390 801 413 801 q 353 786 367 801 q 339 749 339 771 l 79 749 q 117 900 79 833 q 226 1003 156 967 q 390 1040 296 1040 q 610 971 529 1040 q 690 783 690 901 q 656 659 690 711 q 558 581 621 607 l 558 575 q 625 540 599 563 l 801 540 l 801 1028 l 1656 1028 l 1656 793 m 1546 1446 q 1456 1208 1546 1293 q 1182 1122 1365 1122 q 908 1208 999 1122 q 818 1446 818 1293 l 1060 1446 q 1090 1360 1060 1392 q 1182 1329 1119 1329 q 1274 1360 1244 1329 q 1304 1446 1304 1392 l 1546 1446 z "},"ा":{"ha":465,"x_min":-15,"x_max":481,"o":"m 92 0 l 92 793 l -15 793 l -15 1028 l 481 1028 l 481 793 l 375 793 l 375 0 l 92 0 z "},"ि":{"ha":465,"x_min":-15,"x_max":1310,"o":"m 700 1463 q 1031 1399 893 1463 q 1240 1229 1169 1336 q 1310 992 1310 1122 l 1310 967 l 1026 967 l 1026 986 q 984 1118 1026 1063 q 867 1203 942 1174 q 700 1233 793 1233 q 476 1178 567 1233 q 374 1028 386 1124 l 481 1028 l 481 793 l 375 793 l 375 0 l 92 0 l 92 793 l -15 793 l -15 1028 l 93 1028 q 174 1249 101 1150 q 380 1405 246 1347 q 700 1463 514 1463 z "},"ी":{"ha":465,"x_min":-375,"x_max":481,"o":"m 481 1028 l 481 793 l 375 793 l 375 0 l 92 0 l 92 793 l -15 793 l -15 1028 l 100 1028 l 100 1076 q 81 1181 100 1138 q 3 1225 63 1225 q -81 1181 -61 1225 q -100 1076 -100 1138 l -100 967 l -375 967 l -375 1063 q -285 1356 -375 1250 q 3 1463 -196 1463 q 375 1063 375 1463 l 375 1028 l 481 1028 z "},"ु":{"ha":0,"x_min":-690,"x_max":19,"o":"m 19 -221 q -69 -430 19 -353 q -306 -507 -157 -507 q -494 -473 -407 -507 q -635 -362 -581 -439 q -690 -164 -690 -286 l -440 -164 q -407 -258 -442 -228 q -312 -287 -372 -287 q -243 -269 -267 -287 q -219 -218 -219 -251 q -244 -165 -219 -185 q -315 -146 -268 -146 l -375 -146 l -375 72 l -315 72 q -65 -3 -150 72 q 19 -221 19 -79 z "},"ू":{"ha":0,"x_min":-567,"x_max":149,"o":"m -278 -481 q -422 -451 -357 -481 q -527 -362 -487 -422 q -567 -214 -567 -301 q -476 -10 -567 -83 q -242 63 -386 63 q 64 -63 -21 63 q 149 -375 149 -189 q 146 -474 149 -410 l -83 -474 l -83 -367 q -121 -201 -83 -256 q -247 -146 -158 -146 q -313 -162 -285 -146 q -342 -215 -342 -179 q -317 -265 -342 -249 q -258 -281 -293 -281 l -226 -281 l -226 -481 l -278 -481 z "},"ृ":{"ha":0,"x_min":-521,"x_max":-18,"o":"m -18 -464 q -189 -489 -99 -489 q -350 -461 -275 -489 q -473 -370 -425 -433 q -521 -207 -521 -307 q -434 -8 -521 -82 q -193 67 -347 67 q -92 64 -122 67 l -92 -125 l -168 -125 q -228 -144 -207 -125 q -249 -196 -249 -164 q -219 -249 -249 -233 q -142 -265 -189 -265 q -18 -246 -87 -265 l -18 -464 z "},"ॄ":{"ha":0,"x_min":-460,"x_max":54,"o":"m 54 -669 q -33 -691 19 -683 q -135 -699 -86 -699 q -365 -642 -271 -699 q -460 -464 -460 -585 q -419 -350 -460 -399 q -312 -286 -379 -301 l -312 -281 q -458 -115 -458 -247 q -422 -9 -458 -50 q -331 49 -385 32 q -222 67 -276 67 l -92 67 l -92 -83 l -108 -83 q -167 -93 -146 -83 q -187 -129 -187 -103 q -108 -175 -187 -175 l -19 -175 l -19 -382 l -90 -382 q -163 -392 -137 -382 q -189 -433 -189 -403 q -161 -472 -189 -462 q -90 -482 -133 -482 q 54 -461 -18 -482 l 54 -669 z "},"ॢ":{"ha":0,"x_min":-674,"x_max":232,"o":"m 169 -503 q 232 -496 206 -503 l 232 -668 q 140 -675 179 -675 q -49 -619 22 -675 q -121 -465 -121 -564 q -90 -367 -121 -410 q -11 -301 -58 -324 l -11 -296 q -28 -242 -11 -262 q -72 -222 -44 -222 q -122 -247 -107 -222 q -137 -304 -137 -271 l -137 -342 l -318 -342 l -318 -304 q -333 -247 -318 -271 q -383 -222 -349 -222 q -435 -242 -417 -222 q -453 -299 -453 -262 q -374 -383 -453 -383 q -347 -381 -357 -383 l -347 -571 l -383 -571 q -597 -497 -521 -571 q -674 -296 -674 -424 q -637 -147 -674 -207 q -543 -60 -601 -87 q -418 -32 -485 -32 q -235 -132 -289 -32 l -231 -132 q -156 -59 -206 -86 q -39 -32 -107 -32 q 83 -60 26 -32 q 176 -147 140 -87 q 211 -296 211 -207 q 194 -401 211 -347 l 186 -401 q 109 -415 131 -401 q 88 -456 88 -428 q 110 -490 88 -478 q 169 -503 133 -503 z "},"ॣ":{"ha":0,"x_min":-674,"x_max":285,"o":"m 175 -706 q 285 -690 229 -706 l 285 -850 q 218 -865 258 -860 q 139 -871 178 -871 q -36 -828 35 -871 q -107 -693 -107 -786 q -76 -603 -107 -640 q 4 -556 -46 -567 l 4 -553 q -76 -510 -46 -542 q -107 -424 -107 -478 q -81 -344 -107 -375 q -11 -299 -54 -312 l -11 -296 q -28 -242 -11 -262 q -72 -222 -44 -222 q -122 -247 -107 -222 q -137 -304 -137 -271 l -137 -342 l -318 -342 l -318 -304 q -333 -247 -318 -271 q -383 -222 -349 -222 q -435 -242 -417 -222 q -453 -299 -453 -262 q -374 -383 -453 -383 q -347 -381 -357 -383 l -347 -571 l -383 -571 q -597 -497 -521 -571 q -674 -296 -674 -424 q -637 -147 -674 -207 q -543 -60 -601 -87 q -418 -32 -485 -32 q -235 -132 -289 -32 l -231 -132 q -156 -59 -206 -86 q -39 -32 -107 -32 q 83 -60 26 -32 q 176 -147 140 -87 q 211 -296 211 -207 q 194 -401 211 -347 l 163 -401 q 116 -409 132 -401 q 100 -436 100 -417 q 164 -469 100 -469 l 229 -469 l 229 -629 l 175 -629 q 118 -637 138 -629 q 99 -669 99 -644 q 119 -699 99 -692 q 175 -706 140 -706 z "},"े":{"ha":0,"x_min":-668,"x_max":-94,"o":"m -358 1021 q -433 1124 -406 1093 q -494 1167 -461 1156 q -586 1179 -528 1179 l -668 1179 l -668 1406 l -590 1406 q -391 1378 -464 1404 q -252 1272 -318 1351 q -94 1021 -186 1193 l -358 1021 z "},"ै":{"ha":0,"x_min":-690,"x_max":-96,"o":"m -607 1515 q -418 1489 -481 1515 q -290 1367 -356 1463 q -96 1024 -225 1271 l -337 1024 q -394 1054 -349 1029 q -462 1087 -442 1079 q -509 1097 -483 1094 q -606 1099 -535 1099 l -690 1099 l -690 1272 l -612 1272 q -510 1269 -542 1272 q -449 1256 -478 1267 q -382 1218 -419 1244 q -453 1302 -419 1276 q -518 1334 -487 1328 q -600 1340 -549 1340 l -690 1340 l -690 1515 l -607 1515 z "},"ो":{"ha":467,"x_min":-201,"x_max":481,"o":"m 481 1028 l 481 793 l 375 793 l 375 0 l 92 0 l 92 793 l -15 793 l -15 1028 l 104 1028 q 31 1126 58 1096 q -28 1167 4 1156 q -119 1179 -61 1179 l -201 1179 l -201 1406 l -124 1406 q 74 1378 1 1404 q 213 1274 147 1353 q 368 1028 278 1196 l 481 1028 z "},"ौ":{"ha":465,"x_min":-233,"x_max":481,"o":"m 481 1028 l 481 793 l 375 793 l 375 0 l 92 0 l 92 793 l -15 793 l -15 1028 l 111 1028 l 63 1053 q -6 1086 15 1078 q -52 1097 -26 1094 q -149 1099 -78 1099 l -233 1099 l -233 1272 l -156 1272 q -53 1269 -85 1272 q 8 1256 -21 1267 q 75 1218 38 1244 q 3 1302 38 1276 q -61 1334 -31 1328 q -143 1340 -92 1340 l -233 1340 l -233 1515 l -150 1515 q 39 1489 -24 1515 q 166 1368 101 1463 q 358 1028 231 1274 l 481 1028 z "},"ॅ":{"ha":0,"x_min":-611,"x_max":117,"o":"m 117 1444 q 26 1206 117 1292 q -247 1121 -64 1121 q -521 1206 -431 1121 q -611 1444 -611 1292 l -369 1444 q -340 1359 -369 1390 q -247 1328 -310 1328 q -155 1359 -185 1328 q -125 1444 -125 1390 l 117 1444 z "},"ॉ":{"ha":468,"x_min":-131,"x_max":597,"o":"m 93 0 l 93 793 l -14 793 l -14 1028 l 482 1028 l 482 793 l 376 793 l 376 0 l 93 0 m 597 1444 q 507 1206 597 1292 q 233 1121 417 1121 q -40 1206 50 1121 q -131 1444 -131 1292 l 111 1444 q 141 1359 111 1390 q 233 1328 171 1328 q 326 1359 296 1328 q 356 1444 356 1390 l 597 1444 z "},"क":{"ha":1314,"x_min":-15,"x_max":1329,"o":"m 806 793 l 806 640 q 981 713 867 713 q 1131 669 1069 713 q 1224 553 1193 626 q 1256 393 1256 481 q 1219 224 1256 296 q 1119 115 1183 153 q 971 78 1054 78 q 872 90 921 78 l 872 310 q 893 307 881 307 q 947 328 926 307 q 968 386 968 350 q 948 447 968 422 q 888 472 928 472 q 827 446 849 472 q 806 371 806 419 l 806 0 l 533 0 l 533 139 q 339 60 468 60 q 188 102 251 60 q 92 218 125 144 q 58 386 58 292 q 135 623 58 533 q 350 713 211 713 q 533 640 472 713 l 533 793 l -15 793 l -15 1028 l 1329 1028 l 1329 793 l 806 793 m 439 297 q 506 323 479 297 q 533 388 533 349 q 508 449 533 425 q 440 474 482 474 q 372 449 399 474 q 346 385 346 424 q 371 322 346 346 q 439 297 396 297 z "},"ख":{"ha":1357,"x_min":-15,"x_max":1372,"o":"m 1372 1028 l 1372 793 l 1267 793 l 1267 0 l 985 0 l 985 174 q 850 132 936 132 q 808 135 833 132 q 676 27 756 67 q 494 -12 596 -12 q 187 98 299 -12 q 75 413 75 208 l 75 564 l 101 564 q 240 604 199 564 q 282 726 282 644 l 282 793 l -15 793 l -15 1028 l 1372 1028 m 501 231 q 619 275 581 231 q 588 421 588 342 q 621 567 588 501 q 714 669 654 632 q 850 707 774 707 q 985 663 933 707 l 985 793 l 567 793 l 567 686 q 510 475 567 557 q 356 372 454 393 q 396 270 358 310 q 501 231 433 231 m 914 346 q 965 366 946 346 q 985 421 985 386 q 967 474 985 453 q 914 494 949 494 q 860 475 881 494 q 839 421 839 456 q 860 365 839 385 q 914 346 881 346 z "},"ग":{"ha":1193,"x_min":-15,"x_max":1208,"o":"m 1208 1028 l 1208 793 l 1101 793 l 1101 0 l 818 0 l 818 793 l 689 793 l 689 518 q 609 278 689 368 q 369 188 529 188 q 126 267 213 188 q 39 504 39 347 q 40 550 39 535 l 314 550 l 314 506 q 324 448 314 468 q 361 428 335 428 q 397 449 388 428 q 406 506 406 471 l 406 793 l -15 793 l -15 1028 l 1208 1028 z "},"घ":{"ha":960,"x_min":-15,"x_max":975,"o":"m 975 793 l 871 793 l 871 0 l 586 0 l 586 199 q 369 121 507 121 q 222 150 289 121 q 116 236 156 179 q 76 374 76 293 q 113 495 76 444 q 203 567 150 546 l 203 572 q 119 635 150 590 q 89 753 89 679 l 89 793 l -15 793 l -15 1028 l 975 1028 l 975 793 m 586 793 l 372 793 l 372 767 q 391 707 372 728 q 456 686 410 686 l 504 686 l 504 460 l 433 460 q 382 444 400 460 q 364 404 364 429 q 385 364 364 378 q 440 350 406 350 q 545 388 504 350 q 586 492 586 426 l 586 793 z "},"ङ":{"ha":1011,"x_min":-15,"x_max":1026,"o":"m 1026 1028 l 1026 793 l 663 793 l 663 533 l 399 533 q 367 525 379 533 q 356 503 356 517 q 397 471 356 471 l 458 471 q 664 411 581 471 q 747 222 747 351 q 662 35 747 103 q 421 -33 576 -33 q 164 36 267 -33 q 53 235 61 106 l 335 235 q 361 190 338 203 q 413 178 385 178 q 460 190 442 178 q 479 225 479 201 q 406 274 479 274 l 361 274 q 162 323 251 274 q 72 513 72 372 q 143 674 72 617 q 328 731 214 731 l 390 731 l 390 793 l -15 793 l -15 1028 l 1026 1028 m 864 632 q 965 591 924 632 q 1006 490 1006 550 q 965 392 1006 433 q 864 351 924 351 q 765 392 806 351 q 724 490 724 433 q 765 591 724 550 q 864 632 806 632 z "},"च":{"ha":1063,"x_min":-15,"x_max":1078,"o":"m 1078 793 l 971 793 l 971 0 l 688 0 l 688 186 q 590 122 649 143 q 461 100 532 100 q 261 169 339 100 q 183 354 183 238 q 224 478 183 426 l 71 478 l 71 699 l 590 699 l 590 478 l 526 478 q 472 460 494 478 q 449 407 449 442 q 475 352 449 371 q 546 333 501 333 q 653 383 618 333 q 688 526 688 433 l 688 793 l -15 793 l -15 1028 l 1078 1028 l 1078 793 z "},"छ":{"ha":1150,"x_min":-15,"x_max":1165,"o":"m 932 793 l 932 714 q 1052 610 1010 682 q 1094 438 1094 538 q 1033 219 1094 313 q 852 74 972 125 q 561 22 732 22 q 207 100 339 22 q 75 332 75 178 q 201 538 75 476 l 201 543 q 119 604 150 560 q 89 724 89 649 l 89 793 l -15 793 l -15 1028 l 1165 1028 l 1165 793 l 932 793 m 671 793 l 372 793 l 372 736 q 438 656 372 656 l 464 656 l 464 431 l 443 431 q 384 410 406 431 q 363 360 363 390 q 408 288 363 314 q 564 263 453 263 q 778 308 710 263 q 847 451 847 354 q 835 508 847 485 q 800 532 824 532 q 763 510 775 532 q 750 454 750 489 q 764 361 750 410 l 533 361 q 517 486 517 414 q 558 633 517 575 q 671 717 599 690 l 671 793 z "},"ज":{"ha":1211,"x_min":-15,"x_max":1226,"o":"m 1226 793 l 1121 793 l 1121 0 l 838 0 l 838 428 l 743 428 q 697 263 739 335 q 580 151 656 192 q 403 111 504 111 q 142 201 232 111 q 51 443 51 292 l 51 668 l 336 668 l 336 451 q 403 358 336 358 q 467 451 467 358 l 467 668 l 838 668 l 838 793 l -15 793 l -15 1028 l 1226 1028 l 1226 793 z "},"झ":{"ha":1225,"x_min":-15,"x_max":1240,"o":"m 1240 793 l 1133 793 l 1133 0 l 856 0 l 856 260 l 722 260 q 731 183 731 225 q 671 31 731 89 q 510 -28 611 -28 q 429 -18 467 -28 q 368 7 392 -8 l 368 -124 l 101 -124 l 101 233 l 356 233 q 372 192 356 206 q 417 178 389 178 q 457 190 443 178 q 471 224 471 203 q 396 274 471 274 q 300 276 339 274 q 135 338 206 282 q 64 504 64 394 q 134 675 64 617 q 319 733 204 733 l 382 733 l 382 793 l -15 793 l -15 1028 l 1240 1028 l 1240 793 m 856 471 l 856 793 l 656 793 l 656 533 l 390 533 q 360 525 371 533 q 349 501 349 517 q 392 471 349 471 l 451 471 l 856 471 z "},"ञ":{"ha":1182,"x_min":-15,"x_max":1197,"o":"m 1197 793 l 1092 793 l 1092 0 l 808 0 l 808 272 l 715 272 q 600 103 686 163 q 394 43 514 43 q 228 76 303 43 q 108 176 153 110 q 58 333 63 242 l 325 333 q 354 292 333 304 q 397 281 375 281 q 454 308 433 281 q 475 381 475 336 q 454 451 475 422 q 397 479 433 479 q 354 467 375 479 q 325 428 333 456 l 58 428 q 108 585 63 519 q 228 685 153 651 q 394 719 303 719 q 592 665 508 719 q 710 510 676 611 l 808 510 l 808 793 l -15 793 l -15 1028 l 1197 1028 l 1197 793 z "},"ट":{"ha":893,"x_min":-15,"x_max":908,"o":"m 481 485 q 381 453 421 485 q 342 365 342 421 q 375 283 342 314 q 467 251 408 251 q 563 285 528 251 q 597 375 597 319 l 867 375 q 819 181 867 264 q 682 52 771 97 q 474 7 593 7 q 257 51 351 7 q 110 178 163 96 q 58 368 58 260 q 101 542 58 465 q 227 666 144 619 q 425 719 310 713 l 425 793 l -15 793 l -15 1028 l 908 1028 l 908 793 l 703 793 l 703 485 l 481 485 z "},"ठ":{"ha":928,"x_min":-15,"x_max":943,"o":"m 601 793 l 601 724 q 796 605 721 692 q 871 383 871 518 q 817 192 871 274 q 672 69 764 111 q 464 26 579 26 q 257 69 349 26 q 112 192 165 111 q 58 383 58 274 q 131 603 58 517 q 322 722 204 689 l 322 793 l -15 793 l -15 1028 l 943 1028 l 943 793 l 601 793 m 464 261 q 556 295 522 261 q 589 383 589 329 q 556 471 589 438 q 464 504 524 504 q 374 471 407 504 q 340 383 340 438 q 374 295 340 329 q 464 261 407 261 z "},"ड":{"ha":778,"x_min":-15,"x_max":793,"o":"m 399 533 q 367 525 379 533 q 356 503 356 517 q 397 471 356 471 l 458 471 q 664 411 581 471 q 747 222 747 351 q 662 35 747 103 q 421 -33 576 -33 q 164 36 267 -33 q 53 235 61 106 l 335 235 q 361 190 338 203 q 413 178 385 178 q 460 190 442 178 q 479 225 479 201 q 406 274 479 274 l 361 274 q 162 323 251 274 q 72 513 72 372 q 143 674 72 617 q 328 731 214 731 l 389 731 l 389 793 l -15 793 l -15 1028 l 793 1028 l 793 793 l 663 793 l 663 533 l 399 533 z "},"ढ":{"ha":922,"x_min":-15,"x_max":938,"o":"m 551 544 q 394 494 456 544 q 332 356 332 444 q 379 225 332 275 q 529 175 426 175 q 634 197 594 175 q 674 263 674 218 q 664 291 674 281 q 638 301 654 301 q 613 292 622 301 q 603 268 603 282 q 607 249 603 257 l 408 249 q 401 308 401 283 q 469 450 401 400 q 650 500 536 500 q 844 435 775 500 q 914 263 914 371 q 814 49 914 124 q 524 -26 714 -26 q 286 19 392 -26 q 119 154 181 65 q 58 368 58 243 q 110 565 58 482 q 252 692 161 649 q 458 736 343 736 l 467 736 l 467 793 l -15 793 l -15 1028 l 938 1028 l 938 793 l 732 793 l 732 544 l 551 544 z "},"ण":{"ha":1279,"x_min":-15,"x_max":1294,"o":"m 1294 793 l 1188 793 l 1188 0 l 904 0 l 904 793 l 772 793 l 772 492 q 687 257 772 347 q 439 167 601 167 q 253 210 328 167 q 141 326 178 253 q 104 492 104 400 l 104 793 l -15 793 l -15 1028 l 1294 1028 l 1294 793 m 494 793 l 381 793 l 381 465 q 397 421 381 438 q 439 404 413 404 q 481 421 467 404 q 494 465 494 438 l 494 793 z "},"त":{"ha":996,"x_min":-15,"x_max":1011,"o":"m 1011 793 l 904 793 l 904 0 l 621 0 l 621 436 l 467 436 q 378 407 413 436 q 344 331 344 378 q 374 252 344 282 q 465 222 404 222 l 488 222 l 488 1 l 419 1 q 161 83 264 1 q 58 338 58 165 q 112 528 58 451 q 255 641 165 604 q 453 678 344 678 l 621 678 l 621 793 l -15 793 l -15 1028 l 1011 1028 l 1011 793 z "},"थ":{"ha":1128,"x_min":56,"x_max":1143,"o":"m 1143 1028 l 1143 793 l 1036 793 l 1036 0 l 753 0 l 753 229 q 640 137 717 174 q 461 100 564 100 q 250 149 342 100 q 107 289 158 197 q 56 506 56 381 q 64 622 56 574 l 175 622 q 353 651 292 622 q 414 749 414 681 q 402 785 414 771 q 372 800 390 800 q 339 786 351 800 q 326 744 326 772 q 332 703 326 728 l 78 703 q 72 751 72 739 q 114 911 72 846 q 224 1008 156 976 q 375 1040 293 1040 q 533 1004 464 1040 q 640 900 601 968 q 679 740 679 832 q 594 521 679 608 q 335 424 508 433 q 389 360 349 386 q 504 333 429 333 q 683 406 614 333 q 753 617 753 478 l 753 1028 l 1143 1028 z "},"द":{"ha":851,"x_min":-15,"x_max":867,"o":"m 460 467 q 378 440 407 467 q 349 369 349 414 q 371 306 349 329 q 432 283 393 283 q 492 308 471 283 q 513 371 513 332 l 775 371 l 775 -61 l 499 -61 l 499 110 q 349 61 446 61 q 207 95 274 61 q 99 200 140 129 q 58 376 58 271 q 105 555 58 481 q 235 669 151 629 q 429 708 319 708 l 450 708 l 450 793 l -15 793 l -15 1028 l 867 1028 l 865 793 l 735 793 l 735 467 l 460 467 z "},"ध":{"ha":1033,"x_min":72,"x_max":1063,"o":"m 1063 793 l 963 793 l 963 0 l 679 0 l 679 189 q 406 90 588 90 q 244 120 317 90 q 128 208 171 150 q 85 349 85 267 q 131 479 85 429 q 239 547 178 529 l 239 553 q 120 635 168 576 q 72 786 72 694 q 108 922 72 865 q 206 1010 143 979 q 346 1040 268 1040 q 540 973 471 1040 q 608 796 608 906 q 606 733 608 761 l 399 733 l 400 758 q 388 792 400 781 q 357 804 375 804 q 324 790 336 804 q 311 754 311 776 q 357 687 311 706 q 463 668 403 668 l 549 668 l 549 442 l 476 442 q 372 381 372 442 q 399 336 372 351 q 479 321 426 321 q 626 378 574 321 q 679 535 679 436 l 679 1028 l 1063 1028 l 1063 793 z "},"न":{"ha":1172,"x_min":-15,"x_max":1188,"o":"m 1188 793 l 1081 793 l 1081 0 l 797 0 l 797 447 l 671 447 q 693 329 693 394 q 651 177 693 239 q 540 85 610 115 q 388 54 471 54 q 226 91 301 54 q 103 199 150 128 q 57 368 57 271 q 105 543 57 472 q 233 648 153 614 q 411 682 314 682 l 797 682 l 797 793 l -15 793 l -15 1028 l 1188 1028 l 1188 793 m 392 292 q 448 313 426 292 q 469 369 469 335 q 448 425 469 403 q 392 447 426 447 q 334 425 357 447 q 311 369 311 403 q 333 313 311 335 q 392 292 356 292 z "},"प":{"ha":960,"x_min":-15,"x_max":975,"o":"m 975 793 l 869 793 l 869 0 l 586 0 l 586 251 q 397 189 515 189 q 224 237 296 189 q 115 369 151 285 q 79 557 79 453 l 79 793 l -15 793 l -15 1028 l 975 1028 l 975 793 m 586 793 l 363 793 l 363 557 q 390 463 363 499 q 472 426 418 426 q 557 463 528 426 q 586 556 586 499 l 586 793 z "},"फ":{"ha":1367,"x_min":-15,"x_max":1382,"o":"m 847 793 l 847 642 q 1036 713 915 713 q 1185 670 1124 713 q 1279 557 1247 628 q 1311 400 1311 486 q 1275 227 1311 300 q 1174 116 1239 154 q 1026 78 1110 78 q 917 94 967 78 l 917 310 q 949 306 933 306 q 1004 328 985 306 q 1024 386 1024 351 q 1003 447 1024 422 q 943 472 983 472 q 872 438 897 472 q 847 340 847 404 l 847 0 l 564 0 l 564 249 q 386 189 497 189 q 219 235 289 189 q 115 362 150 282 q 79 542 79 442 l 79 793 l -15 793 l -15 1028 l 1382 1028 l 1382 793 l 847 793 m 564 793 l 363 793 l 363 542 q 388 458 363 490 q 461 426 413 426 q 538 459 511 426 q 564 542 564 492 l 564 793 z "},"ब":{"ha":954,"x_min":-15,"x_max":969,"o":"m 969 1028 l 969 793 l 864 793 l 864 0 l 592 0 l 592 118 q 397 54 526 54 q 223 99 300 54 q 102 222 146 143 q 58 400 58 300 q 102 569 58 494 q 223 686 146 644 q 397 728 300 728 q 592 679 513 728 l 592 793 l -15 793 l -15 1028 l 969 1028 m 458 549 q 374 525 413 549 l 606 368 q 608 400 608 388 q 566 507 608 465 q 458 549 524 549 m 304 400 q 349 294 304 335 q 458 253 394 253 q 542 275 504 253 l 308 433 q 304 400 304 417 z "},"भ":{"ha":1236,"x_min":58,"x_max":1251,"o":"m 1251 1028 l 1251 793 l 1143 793 l 1143 0 l 860 0 l 860 424 l 724 424 l 724 385 q 640 140 724 229 q 394 50 556 50 q 218 88 294 50 q 100 194 142 125 q 58 354 58 263 q 155 578 58 503 q 400 654 251 654 l 460 654 l 460 742 q 417 800 460 800 q 385 785 396 800 q 374 746 374 769 q 378 707 374 728 l 94 707 q 89 757 89 735 q 169 961 89 882 q 406 1040 250 1040 q 650 944 576 1040 q 724 689 724 847 l 724 654 l 860 654 l 860 1028 l 1251 1028 m 460 424 l 408 424 q 344 406 368 424 q 321 356 321 389 q 340 306 321 322 q 389 289 358 289 q 442 311 425 289 q 460 369 460 333 l 460 424 z "},"म":{"ha":1221,"x_min":-15,"x_max":1236,"o":"m 1236 793 l 1129 793 l 1129 0 l 844 0 l 844 424 l 714 424 l 714 385 q 629 140 714 229 q 383 50 544 50 q 208 88 283 50 q 90 194 132 125 q 49 354 49 263 q 145 578 49 503 q 389 654 242 654 l 450 654 l 450 793 l -15 793 l -15 1028 l 1236 1028 l 1236 793 m 844 793 l 714 793 l 714 654 l 844 654 l 844 793 m 450 424 l 397 424 q 335 406 358 424 q 311 356 311 389 q 330 306 311 322 q 378 289 349 289 q 432 311 414 289 q 450 369 450 333 l 450 424 z "},"य":{"ha":1068,"x_min":-15,"x_max":1083,"o":"m 1083 793 l 976 793 l 976 0 l 693 0 l 693 168 q 446 88 601 88 q 165 193 265 88 q 64 479 64 299 q 71 575 64 519 l 82 575 q 225 621 190 575 q 260 750 260 667 l 260 793 l -15 793 l -15 1028 l 1083 1028 l 1083 793 m 693 793 l 539 793 l 539 697 q 495 526 539 596 q 347 436 451 456 q 395 355 353 388 q 508 322 438 322 q 646 378 599 322 q 693 521 693 433 l 693 793 z "},"र":{"ha":733,"x_min":-15,"x_max":749,"o":"m 661 757 q 592 493 661 593 q 350 383 524 393 l 350 276 q 388 228 350 228 q 415 242 406 228 q 424 276 424 256 l 424 322 l 694 322 q 696 286 696 306 q 616 68 696 149 q 393 -12 536 -12 q 217 27 290 -12 q 107 135 144 67 q 69 290 69 204 l 69 608 l 206 608 q 342 647 306 608 q 378 757 378 685 l 378 793 l -15 793 l -15 1028 l 749 1028 l 749 793 l 661 793 l 661 757 z "},"ल":{"ha":1278,"x_min":-15,"x_max":1293,"o":"m 1071 793 l 1071 663 q 1179 548 1139 622 q 1219 367 1219 474 q 1175 180 1219 261 q 1046 53 1131 99 q 842 7 961 7 q 793 8 815 7 l 793 254 l 829 251 q 903 280 874 251 q 932 363 932 308 q 908 435 932 408 q 843 463 885 463 q 776 431 797 463 q 756 356 756 399 l 756 315 l 522 315 l 522 356 q 501 431 522 399 q 435 463 481 463 q 369 435 393 463 q 346 363 346 408 q 375 280 346 308 q 449 251 404 251 l 485 254 l 485 8 q 436 7 463 7 q 232 53 317 7 q 103 180 147 99 q 58 367 58 261 q 106 560 58 483 q 228 674 153 638 q 392 711 304 711 q 636 581 563 711 l 640 581 q 793 700 692 672 l 793 793 l -15 793 l -15 1028 l 1293 1028 l 1293 793 l 1071 793 z "},"व":{"ha":919,"x_min":-15,"x_max":935,"o":"m 935 1028 l 935 793 l 829 793 l 829 0 l 553 0 l 553 132 q 365 57 485 57 q 199 101 268 57 q 94 222 129 146 q 58 394 58 299 q 94 560 58 486 q 199 676 129 633 q 365 718 268 718 q 553 646 483 718 l 553 793 l -15 793 l -15 1028 l 935 1028 m 446 282 q 523 313 493 282 q 553 389 553 343 q 523 464 553 435 q 446 493 493 493 q 366 463 396 493 q 336 388 336 432 q 366 313 336 343 q 446 282 396 282 z "},"श":{"ha":1225,"x_min":72,"x_max":1240,"o":"m 358 371 l 358 308 q 422 233 358 233 q 465 252 450 233 q 481 300 481 271 l 481 324 l 756 324 l 757 296 q 669 72 757 151 q 429 -8 581 -8 q 168 81 264 -8 q 72 325 72 171 l 72 607 l 260 607 q 420 634 358 607 q 482 736 482 661 q 470 779 482 763 q 433 796 458 796 q 394 778 407 796 q 382 732 382 761 l 382 694 l 100 694 q 97 742 97 725 q 138 896 97 828 q 255 1002 179 964 q 433 1040 331 1040 q 678 956 586 1040 q 769 718 769 871 q 657 458 769 544 q 368 371 544 371 l 358 371 m 1240 1028 l 1240 793 l 1135 793 l 1135 0 l 847 0 l 847 1028 l 1240 1028 z "},"ष":{"ha":986,"x_min":-15,"x_max":1001,"o":"m 1001 793 l 894 793 l 894 0 l 617 0 l 617 235 q 415 167 546 167 q 233 218 308 167 q 118 358 157 269 q 79 557 79 446 l 79 793 l -15 793 l -15 1028 l 1001 1028 l 1001 793 m 617 793 l 356 793 l 617 642 l 617 793 m 476 404 q 553 423 522 404 q 601 475 585 442 l 353 615 l 353 549 q 384 445 353 486 q 476 404 415 404 z "},"स":{"ha":1158,"x_min":-15,"x_max":1174,"o":"m 1174 793 l 1067 793 l 1067 0 l 783 0 l 783 374 l 350 374 l 350 279 q 361 242 350 257 q 394 228 372 228 q 426 242 415 228 q 436 276 436 256 l 436 294 l 708 294 q 710 260 710 279 q 628 61 710 135 q 400 -12 546 -12 q 220 28 294 -12 q 108 138 146 68 q 69 293 69 207 l 69 574 l 157 574 q 293 612 257 574 q 329 722 329 650 l 329 793 l -15 793 l -15 1028 l 1174 1028 l 1174 793 m 783 793 l 613 793 l 613 722 q 597 604 613 656 l 783 604 l 783 793 z "},"ह":{"ha":811,"x_min":-15,"x_max":826,"o":"m 428 539 q 394 529 407 539 q 381 500 381 519 q 389 476 381 488 q 429 478 403 478 q 669 403 585 478 q 765 200 753 329 l 494 200 q 471 240 490 225 q 422 256 451 256 q 368 232 392 256 q 344 164 344 208 q 368 93 344 117 q 422 69 392 69 q 469 83 449 69 q 494 119 489 97 l 765 119 q 663 -87 757 -12 q 422 -162 568 -162 q 238 -123 318 -162 q 113 -8 157 -83 q 68 168 68 67 q 97 305 68 246 q 181 404 126 364 q 100 558 100 460 q 159 688 100 638 q 324 738 218 738 l 390 738 l 390 793 l -15 793 l -15 1028 l 826 1028 l 826 793 l 660 793 l 660 539 l 428 539 z "},"ळ":{"ha":1303,"x_min":-15,"x_max":1318,"o":"m 1090 793 l 1090 649 q 1203 534 1161 607 q 1244 365 1244 461 q 1201 190 1244 265 q 1083 76 1157 115 q 921 36 1010 36 q 766 71 836 36 q 656 176 696 106 l 647 176 q 537 71 607 106 q 382 36 467 36 q 219 76 293 36 q 102 190 146 115 q 58 365 58 265 q 102 538 58 464 q 219 653 146 613 q 382 693 293 693 q 529 663 461 693 q 649 554 597 633 l 654 554 q 817 679 715 650 l 817 793 l -15 793 l -15 1028 l 1318 1028 l 1318 793 l 1090 793 m 425 276 q 489 301 464 276 q 514 365 514 325 q 488 429 514 404 q 425 454 463 454 q 360 429 385 454 q 335 364 335 404 q 360 300 335 324 q 425 276 385 276 m 878 276 q 943 300 918 276 q 968 364 968 324 q 943 429 968 404 q 878 454 918 454 q 814 429 839 454 q 789 365 789 404 q 814 301 789 325 q 878 276 839 276 z "},"क़":{"ha":1314,"x_min":-15,"x_max":1329,"o":"m 806 793 l 806 640 q 981 713 867 713 q 1131 669 1069 713 q 1224 553 1193 626 q 1256 393 1256 481 q 1219 224 1256 296 q 1119 115 1183 153 q 971 78 1054 78 q 872 90 921 78 l 872 310 q 893 307 881 307 q 947 328 926 307 q 968 386 968 350 q 948 447 968 422 q 888 472 928 472 q 827 446 849 472 q 806 371 806 419 l 806 0 l 533 0 l 533 139 q 339 60 468 60 q 188 102 251 60 q 92 218 125 144 q 58 386 58 292 q 135 623 58 533 q 350 713 211 713 q 533 640 472 713 l 533 793 l -15 793 l -15 1028 l 1329 1028 l 1329 793 l 806 793 m 439 297 q 506 323 479 297 q 533 388 533 349 q 508 449 533 425 q 440 474 482 474 q 372 449 399 474 q 346 385 346 424 q 371 322 346 346 q 439 297 396 297 m 460 -160 q 414 -270 460 -225 q 301 -315 368 -315 q 190 -270 236 -315 q 144 -160 144 -225 q 190 -47 144 -93 q 301 0 236 0 q 414 -47 368 0 q 460 -160 460 -93 z "},"ख़":{"ha":1357,"x_min":-15,"x_max":1372,"o":"m 1372 1028 l 1372 793 l 1267 793 l 1267 0 l 985 0 l 985 174 q 850 132 936 132 q 808 135 833 132 q 676 27 756 67 q 494 -12 596 -12 q 187 98 299 -12 q 75 413 75 208 l 75 564 l 101 564 q 240 604 199 564 q 282 726 282 644 l 282 793 l -15 793 l -15 1028 l 1372 1028 m 501 231 q 619 275 581 231 q 588 421 588 342 q 621 567 588 501 q 714 669 654 632 q 850 707 774 707 q 985 663 933 707 l 985 793 l 567 793 l 567 686 q 510 475 567 557 q 356 372 454 393 q 396 270 358 310 q 501 231 433 231 m 914 346 q 965 366 946 346 q 985 421 985 386 q 967 474 985 453 q 914 494 949 494 q 860 475 881 494 q 839 421 839 456 q 860 365 839 385 q 914 346 881 346 m 617 -226 q 571 -337 617 -292 q 458 -382 525 -382 q 347 -337 393 -382 q 301 -226 301 -292 q 347 -113 301 -160 q 458 -67 393 -67 q 571 -113 525 -67 q 617 -226 617 -160 z "},"ग़":{"ha":1192,"x_min":-15,"x_max":1208,"o":"m 1208 1028 l 1208 793 l 1101 793 l 1101 0 l 818 0 l 818 793 l 689 793 l 689 518 q 609 278 689 368 q 369 188 529 188 q 126 267 213 188 q 39 504 39 347 q 40 550 39 535 l 314 550 l 314 506 q 324 448 314 468 q 361 428 335 428 q 397 449 388 428 q 406 506 406 471 l 406 793 l -15 793 l -15 1028 l 1208 1028 m 526 -32 q 481 -142 526 -97 q 368 -187 435 -187 q 257 -142 303 -187 q 211 -32 211 -97 q 257 81 211 35 q 368 128 303 128 q 481 81 435 128 q 526 -32 526 35 z "},"ज़":{"ha":1211,"x_min":-15,"x_max":1226,"o":"m 1226 793 l 1121 793 l 1121 0 l 838 0 l 838 428 l 743 428 q 697 263 739 335 q 580 151 656 192 q 403 111 504 111 q 142 201 232 111 q 51 443 51 292 l 51 668 l 336 668 l 336 451 q 403 358 336 358 q 467 451 467 358 l 467 668 l 838 668 l 838 793 l -15 793 l -15 1028 l 1226 1028 l 1226 793 m 560 -107 q 514 -217 560 -172 q 401 -262 468 -262 q 290 -217 336 -262 q 244 -107 244 -172 q 290 6 244 -40 q 401 53 336 53 q 514 6 468 53 q 560 -107 560 -40 z "},"ड़":{"ha":778,"x_min":-15,"x_max":793,"o":"m 399 533 q 367 525 379 533 q 356 503 356 517 q 397 471 356 471 l 458 471 q 664 411 581 471 q 747 222 747 351 q 662 35 747 103 q 421 -33 576 -33 q 164 36 267 -33 q 53 235 61 106 l 335 235 q 361 190 338 203 q 413 178 385 178 q 460 190 442 178 q 479 225 479 201 q 406 274 479 274 l 361 274 q 162 323 251 274 q 72 513 72 372 q 143 674 72 617 q 328 731 214 731 l 389 731 l 389 793 l -15 793 l -15 1028 l 793 1028 l 793 793 l 663 793 l 663 533 l 399 533 m 579 -251 q 533 -362 579 -317 q 421 -407 488 -407 q 310 -362 356 -407 q 264 -251 264 -317 q 310 -138 264 -185 q 421 -92 356 -92 q 533 -138 488 -92 q 579 -251 579 -185 z "},"ढ़":{"ha":922,"x_min":-15,"x_max":938,"o":"m 551 544 q 394 494 456 544 q 332 356 332 444 q 379 225 332 275 q 529 175 426 175 q 634 197 594 175 q 674 263 674 218 q 664 291 674 281 q 638 301 654 301 q 613 292 622 301 q 603 268 603 282 q 607 249 603 257 l 408 249 q 401 308 401 283 q 469 450 401 400 q 650 500 536 500 q 844 435 775 500 q 914 263 914 371 q 814 49 914 124 q 524 -26 714 -26 q 286 19 392 -26 q 119 154 181 65 q 58 368 58 243 q 110 565 58 482 q 252 692 161 649 q 458 736 343 736 l 467 736 l 467 793 l -15 793 l -15 1028 l 938 1028 l 938 793 l 732 793 l 732 544 l 551 544 m 658 -243 q 613 -353 658 -308 q 500 -399 567 -399 q 389 -353 435 -399 q 343 -243 343 -308 q 389 -130 343 -176 q 500 -83 435 -83 q 613 -130 567 -83 q 658 -243 658 -176 z "},"फ़":{"ha":1367,"x_min":-15,"x_max":1382,"o":"m 847 793 l 847 642 q 1036 713 915 713 q 1185 670 1124 713 q 1279 557 1247 628 q 1311 400 1311 486 q 1275 227 1311 300 q 1174 116 1239 154 q 1026 78 1110 78 q 917 94 967 78 l 917 310 q 949 306 933 306 q 1004 328 985 306 q 1024 386 1024 351 q 1003 447 1024 422 q 943 472 983 472 q 872 438 897 472 q 847 340 847 404 l 847 0 l 564 0 l 564 249 q 386 189 497 189 q 219 235 289 189 q 115 362 150 282 q 79 542 79 442 l 79 793 l -15 793 l -15 1028 l 1382 1028 l 1382 793 l 847 793 m 564 793 l 363 793 l 363 542 q 388 458 363 490 q 461 426 413 426 q 538 459 511 426 q 564 542 564 492 l 564 793 m 444 -21 q 399 -131 444 -86 q 286 -176 353 -176 q 175 -131 221 -176 q 129 -21 129 -86 q 175 92 129 46 q 286 139 221 139 q 399 92 353 139 q 444 -21 444 46 z "},"ऱ":{"ha":733,"x_min":-15,"x_max":749,"o":"m 661 757 q 592 493 661 593 q 350 383 524 393 l 350 276 q 388 228 350 228 q 415 242 406 228 q 424 276 424 256 l 424 322 l 694 322 q 696 286 696 306 q 616 68 696 149 q 393 -12 536 -12 q 217 27 290 -12 q 107 135 144 67 q 69 290 69 204 l 69 608 l 206 608 q 342 647 306 608 q 378 757 378 685 l 378 793 l -15 793 l -15 1028 l 749 1028 l 749 793 l 661 793 l 661 757 m 303 -186 q 257 -297 303 -251 q 144 -342 211 -342 q 33 -297 79 -342 q -12 -186 -12 -251 q 33 -73 -12 -119 q 144 -26 79 -26 q 257 -73 211 -26 q 303 -186 303 -119 z "},"ं":{"ha":0,"x_min":-393,"x_max":-76,"o":"m -76 1267 q -123 1156 -76 1201 q -236 1110 -169 1110 q -347 1156 -301 1110 q -393 1267 -393 1201 q -347 1379 -393 1333 q -236 1425 -301 1425 q -123 1379 -169 1425 q -76 1267 -76 1333 z "},"ँ":{"ha":0,"x_min":-611,"x_max":117,"o":"m -147 1475 q -176 1403 -147 1432 q -250 1374 -206 1374 q -321 1403 -292 1374 q -350 1475 -350 1433 q -320 1547 -350 1517 q -250 1576 -290 1576 q -176 1547 -206 1576 q -147 1475 -147 1517 m 117 1444 q 23 1203 117 1286 q -247 1121 -71 1121 q -517 1203 -424 1121 q -611 1444 -611 1286 l -387 1444 q -349 1354 -387 1389 q -247 1319 -311 1319 q -147 1354 -183 1319 q -110 1444 -110 1389 l 117 1444 z "},"ः":{"ha":431,"x_min":57,"x_max":374,"o":"m 374 629 q 327 518 374 564 q 215 472 281 472 q 103 518 150 472 q 57 629 57 564 q 103 741 57 694 q 215 788 150 788 q 327 741 281 788 q 374 629 374 694 m 374 238 q 327 128 374 174 q 215 82 281 82 q 103 128 150 82 q 57 238 57 174 q 103 350 57 304 q 215 396 150 396 q 327 350 281 396 q 374 238 374 304 z "},"ऽ":{"ha":847,"x_min":63,"x_max":742,"o":"m 63 51 l 63 288 l 392 288 q 427 295 415 288 q 439 319 439 303 q 419 358 439 339 q 354 410 400 376 q 253 491 293 454 q 184 585 214 528 q 154 715 154 642 q 222 876 154 819 q 404 933 290 933 l 742 933 l 742 696 l 476 696 q 443 671 443 696 q 462 635 443 653 q 525 585 481 618 q 626 505 585 542 q 697 410 667 468 q 728 276 728 353 q 654 110 728 169 q 467 51 581 51 l 63 51 z "},"्":{"ha":0,"x_min":-369,"x_max":104,"o":"m -183 -401 l -369 -71 l -89 -71 l 104 -401 l -183 -401 z "},"़":{"ha":0,"x_min":-483,"x_max":-168,"o":"m -168 -310 q -214 -420 -168 -375 q -326 -465 -260 -465 q -437 -420 -392 -465 q -483 -310 -483 -375 q -437 -197 -483 -243 q -326 -150 -392 -150 q -214 -197 -260 -150 q -168 -310 -168 -243 z "},"०":{"ha":919,"x_min":44,"x_max":878,"o":"m 44 522 q 147 900 44 763 q 461 1038 249 1038 q 775 899 672 1038 q 878 522 878 761 q 775 144 878 282 q 461 6 672 6 q 147 144 249 6 q 44 522 44 282 m 574 522 q 551 690 574 633 q 461 746 529 746 q 369 690 392 746 q 347 522 347 633 q 369 353 347 410 q 461 297 392 297 q 551 353 529 297 q 574 522 574 410 z "},"१":{"ha":554,"x_min":14,"x_max":485,"o":"m 14 726 l 14 1015 l 485 1015 l 485 0 l 161 0 l 161 726 l 14 726 z "},"२":{"ha":786,"x_min":35,"x_max":757,"o":"m 39 246 q 333 498 225 385 q 442 710 442 611 q 427 761 442 743 q 389 779 413 779 q 345 751 361 779 q 333 664 329 722 l 35 664 q 91 876 39 793 q 226 999 143 960 q 410 1038 310 1038 q 670 952 588 1038 q 753 733 753 867 q 663 470 753 593 q 439 263 574 347 l 757 263 l 757 14 l 39 14 l 39 246 z "},"३":{"ha":854,"x_min":51,"x_max":783,"o":"m 63 697 q 159 950 67 863 q 421 1038 251 1038 q 608 1000 531 1038 q 726 899 686 963 q 765 754 765 835 q 719 602 765 657 q 617 528 674 547 l 617 522 q 783 290 783 460 q 742 133 783 201 q 623 28 700 65 q 440 -10 546 -10 q 157 76 260 -10 q 51 346 54 163 l 351 346 q 366 270 349 296 q 426 244 383 244 q 468 263 451 244 q 485 313 485 282 q 459 372 485 351 q 372 392 433 392 l 321 392 l 321 640 l 371 640 q 465 715 465 635 q 451 767 465 750 q 414 783 436 783 q 363 697 363 783 l 63 697 z "},"४":{"ha":978,"x_min":72,"x_max":918,"o":"m 72 153 l 72 410 l 486 1000 l 818 1000 l 818 419 l 918 419 l 918 153 l 818 153 l 818 0 l 507 0 l 507 153 l 72 153 m 532 649 l 382 419 l 532 419 l 532 649 z "},"५":{"ha":917,"x_min":126,"x_max":861,"o":"m 811 744 l 408 744 l 408 628 q 477 665 435 651 q 572 679 519 679 q 732 635 667 679 q 829 516 797 590 q 861 351 861 442 q 767 92 861 185 q 510 0 674 0 q 303 42 390 0 q 172 157 217 83 q 129 325 126 231 l 429 325 q 444 283 429 303 q 494 264 460 264 q 546 289 529 264 q 563 357 563 314 q 544 418 563 397 q 490 439 525 439 q 446 425 461 439 q 431 393 431 411 l 131 393 l 131 1015 l 811 1015 l 811 744 z "},"६":{"ha":879,"x_min":72,"x_max":818,"o":"m 507 707 q 483 768 499 749 q 433 788 467 788 q 363 734 381 788 q 346 568 346 681 q 418 629 371 607 q 525 651 465 651 q 738 569 658 651 q 818 332 818 488 q 774 151 818 228 q 650 32 731 74 q 460 -10 569 -10 q 157 124 242 -10 q 72 500 72 258 q 111 806 72 689 q 234 978 150 922 q 453 1033 318 1033 q 702 939 618 1033 q 794 707 786 844 l 507 707 m 449 415 q 389 394 411 415 q 367 336 367 374 q 388 274 367 294 q 449 254 410 254 q 509 274 488 254 q 531 336 531 294 q 508 394 531 374 q 449 415 486 415 z "},"७":{"ha":711,"x_min":25,"x_max":697,"o":"m 697 789 l 381 0 l 64 0 l 383 751 l 25 751 l 25 1015 l 697 1015 l 697 789 z "},"८":{"ha":913,"x_min":67,"x_max":844,"o":"m 207 558 q 120 642 151 590 q 89 767 89 694 q 129 903 89 842 q 252 1001 169 964 q 456 1038 335 1038 q 659 1001 576 1038 q 782 903 742 964 q 822 767 822 842 q 791 642 822 694 q 704 558 760 590 q 844 313 844 476 q 792 133 844 207 q 650 22 739 60 q 456 -15 561 -15 q 261 22 350 -15 q 119 133 172 60 q 67 313 67 207 q 207 558 67 476 m 519 715 q 501 777 519 754 q 456 800 483 800 q 410 777 428 800 q 392 715 392 754 q 410 654 392 675 q 456 633 428 633 q 501 654 483 633 q 519 715 519 675 m 456 426 q 390 399 414 426 q 365 331 365 372 q 389 263 365 289 q 456 236 413 236 q 522 263 499 236 q 546 331 546 289 q 522 399 546 372 q 456 426 497 426 z "},"९":{"ha":829,"x_min":42,"x_max":790,"o":"m 353 317 q 378 256 360 276 q 431 236 397 236 q 498 288 482 236 q 514 456 514 340 q 442 394 489 417 q 335 372 394 372 q 122 456 203 372 q 42 696 42 539 q 85 877 42 800 q 210 996 129 954 q 400 1038 292 1038 q 705 908 619 1038 q 790 540 790 779 q 706 128 790 265 q 424 -10 622 -10 q 235 36 314 -10 q 113 156 156 82 q 65 317 71 231 l 353 317 m 411 608 q 471 629 449 608 q 493 688 493 650 q 472 749 493 729 q 411 769 450 769 q 351 749 372 769 q 329 688 329 729 q 351 629 329 650 q 411 608 374 608 z "},"ॐ":{"ha":1503,"x_min":85,"x_max":1418,"o":"m 767 1244 q 697 1274 726 1244 q 667 1346 667 1304 q 697 1419 667 1389 q 767 1449 726 1449 q 839 1419 810 1449 q 868 1346 868 1389 q 839 1274 868 1303 q 767 1244 810 1244 m 768 992 q 498 1074 592 992 q 404 1315 404 1157 l 628 1315 q 666 1226 628 1261 q 768 1192 704 1192 q 869 1226 832 1192 q 907 1315 907 1260 l 1133 1315 q 1039 1074 1133 1157 q 768 992 944 992 m 1093 944 q 1340 858 1261 944 q 1418 601 1418 771 l 1418 446 q 1315 126 1418 238 q 1028 14 1211 14 q 883 28 958 14 l 883 261 q 975 253 953 253 q 1106 305 1069 253 q 1143 456 1143 357 l 1143 640 q 1093 706 1143 706 q 1053 684 1065 706 q 1042 624 1042 663 q 1013 431 1042 501 q 916 325 985 360 q 721 289 847 290 l 721 285 q 683 141 721 203 q 576 46 644 79 q 421 13 508 13 q 242 50 318 13 q 125 155 165 88 q 85 311 85 222 l 349 311 q 363 272 349 289 q 404 254 378 254 q 447 271 432 254 q 461 314 461 288 q 439 365 461 346 q 374 385 417 385 l 306 385 l 306 622 l 374 622 q 431 638 408 622 q 454 685 454 653 q 440 724 454 708 q 404 739 426 739 q 367 724 381 739 q 353 686 353 710 l 92 686 q 131 839 92 772 q 242 942 169 906 q 410 979 314 979 q 629 909 549 979 q 710 721 710 839 q 674 595 710 649 q 576 515 639 542 l 576 510 l 581 508 l 657 508 q 730 518 704 508 q 767 553 756 528 q 778 626 778 578 q 851 865 778 786 q 1093 944 924 944 z "},"॰":{"ha":646,"x_min":79,"x_max":567,"o":"m 325 694 q 499 628 432 694 q 567 456 567 561 q 536 333 567 386 q 451 249 506 279 q 325 218 396 218 q 198 249 254 218 q 110 333 142 279 q 79 456 79 388 q 110 579 79 525 q 198 664 142 633 q 325 694 254 694 m 325 529 q 269 508 292 529 q 247 456 247 488 q 269 403 247 424 q 325 383 292 383 q 377 403 357 383 q 397 456 397 424 q 377 508 397 488 q 325 529 357 529 z "},"।":{"ha":532,"x_min":196,"x_max":476,"o":"m 476 1028 l 476 0 l 196 0 l 196 1028 l 476 1028 z "},"॥":{"ha":965,"x_min":196,"x_max":910,"o":"m 476 1028 l 476 0 l 196 0 l 196 1028 l 476 1028 m 910 1028 l 910 0 l 628 0 l 628 1028 l 910 1028 z "},"₨":{"ha":1707,"x_min":69,"x_max":1678,"o":"m 901 661 q 847 486 901 563 q 689 376 792 410 l 903 0 l 564 0 l 378 353 l 378 0 l 69 0 l 69 983 l 528 983 q 732 941 647 983 q 859 826 817 899 q 901 661 901 753 m 1208 535 q 1239 504 1208 514 q 1343 481 1269 494 q 1508 443 1440 464 q 1627 373 1576 422 q 1678 240 1678 324 q 1640 113 1678 169 q 1527 23 1601 56 q 1350 -10 1453 -10 q 1072 63 1178 -10 q 944 271 967 135 l 1246 271 q 1346 217 1253 217 q 1400 247 1400 217 q 1369 280 1400 269 q 1263 304 1338 290 q 1101 340 1167 319 q 985 410 1035 361 q 936 546 936 460 q 975 670 936 614 q 1090 760 1014 726 q 1274 793 1167 793 q 1544 716 1444 793 q 1669 513 1644 639 l 1368 513 q 1269 565 1354 565 q 1208 535 1208 565 m 378 558 l 500 558 q 567 578 544 558 q 589 642 589 599 q 566 703 589 681 q 500 725 543 725 l 378 725 l 378 558 z "},"₹":{"ha":801,"x_min":42,"x_max":760,"o":"m 679 782 l 679 736 l 760 736 l 760 564 l 672 564 q 564 381 650 451 q 329 310 478 310 l 329 283 q 340 233 329 250 q 376 215 350 215 q 413 233 403 215 q 422 293 422 250 l 707 293 q 619 69 699 153 q 390 -14 540 -14 q 131 70 221 -14 q 42 336 42 154 l 42 507 q 241 510 176 507 q 339 526 306 514 q 383 564 372 538 l 42 564 l 42 736 l 392 736 l 392 782 l 42 782 l 42 983 l 760 983 l 760 782 l 679 782 z "},"‌":{"ha":0,"x_min":-32,"x_max":33,"o":"m -32 -319 l -32 1126 l 33 1126 l 33 -319 l -32 -319 z "},"‍":{"ha":0,"x_min":-178,"x_max":178,"o":"m 132 778 l 32 882 l 32 -319 l -33 -319 l -33 882 l -129 781 l -175 826 l -46 956 l -178 1088 l -132 1133 l 0 1001 l 133 1133 l 178 1089 l 44 956 l 178 824 l 132 778 z "},"◌":{"ha":904,"x_min":69,"x_max":835,"o":"m 478 692 q 461 649 478 665 q 418 633 444 633 q 375 649 392 633 q 358 692 358 665 q 375 734 358 718 q 418 750 392 750 q 461 734 444 750 q 478 692 478 718 m 646 671 q 629 628 646 644 q 586 613 613 613 q 543 628 560 613 q 526 671 526 644 q 543 713 526 697 q 586 729 560 729 q 629 713 613 729 q 646 671 646 697 m 315 633 q 299 591 315 607 q 256 575 282 575 q 213 591 229 575 q 196 633 196 607 q 213 676 196 660 q 256 692 229 692 q 299 676 282 692 q 315 633 315 660 m 774 568 q 757 526 774 542 q 714 510 740 510 q 671 526 688 510 q 654 568 654 542 q 671 610 654 594 q 714 626 688 626 q 757 610 740 626 q 774 568 774 594 m 210 496 q 193 453 210 469 q 150 438 176 438 q 107 453 124 438 q 90 496 90 469 q 107 538 90 522 q 150 554 124 554 q 193 538 176 554 q 210 496 210 522 m 835 410 q 818 367 835 383 q 775 351 801 351 q 732 367 749 351 q 715 410 715 383 q 732 452 715 436 q 775 468 749 468 q 818 452 801 468 q 835 410 835 436 m 189 328 q 172 285 189 301 q 129 269 156 269 q 86 285 103 269 q 69 328 69 301 q 86 370 69 354 q 129 386 103 386 q 172 370 156 386 q 189 328 189 354 m 821 243 q 804 201 821 217 q 761 185 788 185 q 718 201 735 185 q 701 243 701 217 q 718 285 701 269 q 761 301 735 301 q 804 285 788 301 q 821 243 821 269 m 251 171 q 235 128 251 144 q 192 113 218 113 q 149 128 165 113 q 132 171 132 144 q 149 213 132 197 q 192 229 165 229 q 235 213 218 229 q 251 171 251 197 m 719 110 q 703 67 719 83 q 660 51 686 51 q 617 67 633 51 q 600 110 600 83 q 617 152 600 136 q 660 168 633 168 q 703 152 686 168 q 719 110 719 136 m 388 65 q 371 23 388 39 q 328 7 354 7 q 285 23 301 7 q 268 65 268 39 q 285 108 268 92 q 328 124 301 124 q 371 108 354 124 q 388 65 388 92 m 560 46 q 543 3 560 19 q 500 -12 526 -12 q 457 3 474 -12 q 440 46 440 19 q 457 88 440 72 q 500 104 474 104 q 543 88 526 104 q 560 46 560 72 z "},"!":{"ha":632,"x_min":139,"x_max":493,"o":"m 485 1049 l 449 390 l 185 390 l 149 1049 l 485 1049 m 317 -11 q 188 32 236 -11 q 139 140 139 75 q 188 251 139 207 q 317 294 236 294 q 444 251 396 294 q 493 140 493 207 q 444 32 493 75 q 317 -11 396 -11 z "},"\"":{"ha":681,"x_min":63,"x_max":618,"o":"m 306 1115 l 288 789 l 82 789 l 63 1115 l 306 1115 m 618 1115 l 600 789 l 394 789 l 375 1115 l 618 1115 z "},"#":{"ha":1296,"x_min":14,"x_max":1282,"o":"m 1063 585 l 1035 453 l 1188 453 l 1188 172 l 974 172 l 938 0 l 651 0 l 688 172 l 494 172 l 458 0 l 174 0 l 210 172 l 14 172 l 14 453 l 271 453 l 299 585 l 108 585 l 108 865 l 358 865 l 393 1028 l 678 1028 l 643 865 l 836 865 l 871 1028 l 1157 1028 l 1122 865 l 1282 865 l 1282 585 l 1063 585 m 776 585 l 583 585 l 556 453 l 749 453 l 776 585 z "},"$":{"ha":924,"x_min":42,"x_max":885,"o":"m 885 290 q 840 140 885 207 q 708 33 794 74 q 501 -10 622 -7 l 501 -121 l 415 -121 l 415 -7 q 154 90 254 8 q 44 315 54 172 l 372 315 q 415 238 376 258 l 415 374 q 224 435 294 407 q 98 526 154 463 q 42 700 42 590 q 92 856 42 790 q 226 958 142 922 q 415 999 311 994 l 415 1111 l 501 1111 l 501 999 q 763 906 667 988 q 868 682 858 825 l 536 682 q 501 753 531 735 l 501 618 q 547 604 550 604 q 719 541 651 572 q 835 449 786 510 q 885 290 885 388 m 372 714 q 415 653 372 678 l 415 764 q 372 714 372 756 m 501 225 q 556 283 556 236 q 501 344 556 319 l 501 225 z "},"%":{"ha":1303,"x_min":29,"x_max":1274,"o":"m 29 750 q 99 937 29 872 q 281 1001 168 1001 q 460 937 392 1001 q 529 750 529 872 q 460 564 529 628 q 281 500 392 500 q 99 564 168 500 q 29 750 29 628 m 1058 988 l 540 0 l 246 0 l 764 988 l 1058 988 m 278 822 q 231 750 231 822 q 278 679 231 679 q 316 697 303 679 q 329 750 329 715 q 316 804 329 786 q 278 822 303 822 m 775 238 q 844 424 775 360 q 1025 489 914 489 q 1206 424 1138 489 q 1274 238 1274 360 q 1206 51 1274 115 q 1025 -14 1138 -14 q 844 51 914 -14 q 775 238 775 115 m 1024 310 q 975 238 975 310 q 1024 165 975 165 q 1060 183 1047 165 q 1074 238 1074 201 q 1060 291 1074 272 q 1024 310 1047 310 z "},"&":{"ha":1154,"x_min":50,"x_max":1154,"o":"m 815 0 l 747 64 q 440 -14 617 -14 q 233 24 321 -14 q 97 130 144 61 q 50 288 50 199 q 94 442 50 372 q 225 561 138 513 q 161 728 161 640 q 201 865 161 803 q 317 965 240 928 q 499 1001 393 1001 q 681 963 606 1001 q 793 863 756 925 q 831 728 831 800 l 550 728 q 535 767 550 754 q 499 781 519 781 q 460 767 476 781 q 444 731 444 754 q 506 628 444 686 l 729 411 q 764 496 749 449 l 768 508 l 1067 508 l 1053 472 q 922 225 1000 333 l 1154 0 l 815 0 m 463 229 q 556 244 513 229 l 392 397 q 356 359 368 381 q 344 315 344 338 q 376 254 344 279 q 463 229 407 229 z "},"'":{"ha":368,"x_min":63,"x_max":306,"o":"m 306 1115 l 288 789 l 82 789 l 63 1115 l 306 1115 z "},"(":{"ha":643,"x_min":75,"x_max":660,"o":"m 363 -318 q 152 15 229 -192 q 75 463 75 222 q 152 910 75 703 q 363 1243 229 1117 l 660 1243 l 660 1214 q 447 873 525 1072 q 369 463 369 674 q 447 51 369 250 q 660 -290 525 -149 l 660 -318 l 363 -318 z "},")":{"ha":643,"x_min":-17,"x_max":568,"o":"m -17 -318 l -17 -290 q 196 51 118 -149 q 274 463 274 250 q 196 873 274 674 q -17 1214 118 1072 l -17 1243 l 281 1243 q 491 910 414 1117 q 568 463 568 703 q 491 15 568 222 q 281 -318 414 -192 l -17 -318 z "},"*":{"ha":779,"x_min":117,"x_max":676,"o":"m 583 985 l 676 817 l 522 767 l 676 719 l 575 543 l 454 663 l 493 500 l 300 500 l 339 663 l 221 542 l 117 721 l 271 771 l 119 815 l 213 983 l 340 868 l 297 1033 l 494 1033 l 454 868 l 583 985 z "},"+":{"ha":765,"x_min":28,"x_max":738,"o":"m 738 331 l 531 331 l 531 118 l 235 118 l 235 331 l 28 331 l 28 613 l 235 613 l 235 826 l 531 826 l 531 613 l 738 613 l 738 331 z "},",":{"ha":475,"x_min":63,"x_max":400,"o":"m 400 246 l 257 -167 l 63 -167 l 128 246 l 400 246 z "},"-":{"ha":800,"x_min":28,"x_max":675,"o":"m 675 601 l 675 347 l 28 347 l 28 601 l 675 601 z "},".":{"ha":443,"x_min":44,"x_max":399,"o":"m 222 -11 q 93 32 142 -11 q 44 140 44 75 q 93 251 44 207 q 222 294 142 294 q 350 251 301 294 q 399 140 399 207 q 350 32 399 75 q 222 -11 301 -11 z "},"/":{"ha":554,"x_min":-50,"x_max":614,"o":"m 614 1326 l 246 -275 l -50 -275 l 319 1326 l 614 1326 z "},":":{"ha":443,"x_min":44,"x_max":399,"o":"m 222 -11 q 93 32 142 -11 q 44 140 44 75 q 93 251 44 207 q 222 294 142 294 q 350 251 301 294 q 399 140 399 207 q 350 32 399 75 q 222 -11 301 -11 m 222 539 q 93 582 142 539 q 44 690 44 625 q 93 801 44 757 q 222 844 142 844 q 350 801 301 844 q 399 690 399 757 q 350 582 399 625 q 222 539 301 539 z "},";":{"ha":535,"x_min":93,"x_max":449,"o":"m 272 518 q 143 561 192 518 q 94 669 94 604 q 143 780 94 736 q 272 824 192 824 q 400 780 351 824 q 449 669 449 736 q 400 561 449 604 q 272 518 351 518 m 431 246 l 288 -167 l 93 -167 l 158 246 l 431 246 z "},"<":{"ha":690,"x_min":28,"x_max":663,"o":"m 278 174 l 28 472 l 278 772 l 663 772 l 413 472 l 663 174 l 278 174 z "},"=":{"ha":869,"x_min":28,"x_max":842,"o":"m 842 806 l 842 526 l 28 526 l 28 806 l 842 806 m 842 417 l 842 138 l 28 138 l 28 417 l 842 417 z "},">":{"ha":690,"x_min":28,"x_max":663,"o":"m 28 772 l 413 772 l 663 472 l 413 174 l 28 174 l 278 472 l 28 772 z "},"?":{"ha":747,"x_min":21,"x_max":719,"o":"m 378 1074 q 626 997 532 1074 q 719 771 719 919 q 637 574 719 649 q 421 496 554 499 l 413 397 l 140 397 l 132 692 l 249 692 q 374 710 331 692 q 418 768 418 728 q 405 809 418 794 q 369 824 392 824 q 328 806 342 824 q 315 761 315 789 l 25 761 q 59 918 21 847 q 178 1031 97 989 q 378 1074 258 1074 m 281 -11 q 151 32 200 -11 q 103 140 103 75 q 151 251 103 207 q 281 294 200 294 q 408 251 360 294 q 457 140 457 207 q 408 32 457 75 q 281 -11 360 -11 z "},"@":{"ha":1568,"x_min":106,"x_max":1463,"o":"m 896 954 q 1193 889 1064 954 q 1392 706 1322 824 q 1463 438 1463 589 q 1418 212 1463 313 q 1288 53 1374 111 q 1081 -6 1201 -6 q 951 22 1004 -6 q 874 101 897 50 q 781 19 839 47 q 650 -10 724 -10 q 492 49 549 -10 q 435 213 435 107 q 474 399 435 311 q 582 540 513 486 q 738 593 651 593 q 833 569 794 593 q 885 506 871 546 l 899 586 l 1138 586 l 1083 279 q 1079 244 1079 261 q 1124 192 1079 192 q 1208 259 1179 192 q 1236 429 1236 326 q 1191 598 1236 525 q 1063 711 1146 671 q 869 751 981 751 q 595 678 719 751 q 399 481 471 606 q 328 211 328 357 q 419 -40 328 53 q 671 -133 511 -133 q 929 -83 813 -133 l 982 -276 q 657 -340 838 -340 q 367 -275 492 -340 q 174 -90 242 -210 q 106 189 106 31 q 210 584 106 410 q 494 856 314 758 q 896 954 675 954 m 751 204 q 815 235 786 204 q 843 311 843 265 q 826 362 843 343 q 783 381 810 381 q 719 349 747 381 q 692 271 692 318 q 708 222 692 240 q 751 204 724 204 z "},"A":{"ha":1074,"x_min":0,"x_max":1074,"o":"m 700 149 l 372 149 l 324 0 l 0 0 l 360 983 l 715 983 l 1074 0 l 749 0 l 700 149 m 625 381 l 536 654 l 447 381 l 625 381 z "},"B":{"ha":950,"x_min":69,"x_max":915,"o":"m 728 504 q 866 419 817 483 q 915 269 915 354 q 830 70 915 140 q 585 0 744 0 l 69 0 l 69 983 l 571 983 q 807 918 721 983 q 893 728 893 853 q 848 583 893 642 q 728 504 803 524 m 378 600 l 497 600 q 559 617 539 600 q 579 668 579 633 q 559 722 579 704 q 497 739 539 739 l 378 739 l 378 600 m 518 247 q 580 263 560 247 q 600 315 600 279 q 518 386 600 386 l 378 386 l 378 247 l 518 247 z "},"C":{"ha":1046,"x_min":42,"x_max":1004,"o":"m 42 493 q 101 753 42 639 q 269 930 160 867 q 528 993 379 993 q 756 945 656 993 q 920 810 857 897 q 1004 606 983 722 l 679 606 q 616 681 657 654 q 522 708 575 708 q 399 650 444 708 q 354 493 354 592 q 399 336 354 394 q 522 278 444 278 q 616 305 575 278 q 679 381 657 332 l 1004 381 q 920 176 983 264 q 756 41 857 89 q 528 -7 656 -7 q 269 56 379 -7 q 101 233 160 119 q 42 493 42 347 z "},"D":{"ha":1032,"x_min":69,"x_max":990,"o":"m 479 983 q 749 921 633 983 q 928 747 865 858 q 990 494 990 636 q 928 242 990 354 q 749 65 865 129 q 479 0 633 0 l 69 0 l 69 983 l 479 983 m 451 275 q 617 332 556 275 q 678 494 678 389 q 617 657 678 600 q 451 714 556 714 l 378 714 l 378 275 l 451 275 z "},"E":{"ha":772,"x_min":69,"x_max":725,"o":"m 378 738 l 378 617 l 683 617 l 683 385 l 378 385 l 378 246 l 725 246 l 725 0 l 69 0 l 69 983 l 725 983 l 725 738 l 378 738 z "},"F":{"ha":799,"x_min":69,"x_max":764,"o":"m 764 983 l 764 739 l 378 739 l 378 603 l 656 603 l 656 371 l 378 371 l 378 0 l 69 0 l 69 983 l 764 983 z "},"G":{"ha":1044,"x_min":42,"x_max":1003,"o":"m 672 647 q 621 692 654 676 q 540 708 588 708 q 403 651 451 708 q 354 493 354 593 q 408 321 354 378 q 575 264 463 264 q 747 350 682 264 l 501 350 l 501 568 l 1003 568 l 1003 260 q 826 72 939 150 q 542 -7 714 -7 q 276 56 389 -7 q 102 233 163 119 q 42 493 42 347 q 102 753 42 639 q 275 930 163 867 q 539 993 388 993 q 853 900 732 993 q 997 647 975 807 l 672 647 z "},"H":{"ha":1049,"x_min":69,"x_max":979,"o":"m 979 983 l 979 0 l 671 0 l 671 383 l 378 383 l 378 0 l 69 0 l 69 983 l 378 983 l 378 629 l 671 629 l 671 983 l 979 983 z "},"I":{"ha":447,"x_min":69,"x_max":378,"o":"m 378 983 l 378 0 l 69 0 l 69 983 l 378 983 z "},"J":{"ha":819,"x_min":14,"x_max":756,"o":"m 756 983 l 756 349 q 663 81 756 172 q 404 -10 571 -10 q 119 89 225 -10 q 14 376 14 188 l 318 376 q 338 292 318 317 q 390 268 357 268 q 433 286 418 268 q 449 349 449 304 l 449 983 l 756 983 z "},"K":{"ha":1049,"x_min":69,"x_max":1031,"o":"m 664 0 l 378 426 l 378 0 l 69 0 l 69 983 l 378 983 l 378 569 l 660 983 l 1008 983 l 669 513 l 1031 0 l 664 0 z "},"L":{"ha":703,"x_min":69,"x_max":675,"o":"m 378 233 l 675 233 l 675 0 l 69 0 l 69 983 l 378 983 l 378 233 z "},"M":{"ha":1321,"x_min":69,"x_max":1251,"o":"m 1251 983 l 1251 0 l 944 0 l 944 490 l 793 0 l 529 0 l 378 490 l 378 0 l 69 0 l 69 983 l 447 983 l 664 393 l 875 983 l 1251 983 z "},"N":{"ha":1082,"x_min":69,"x_max":1013,"o":"m 1013 0 l 704 0 l 378 494 l 378 0 l 69 0 l 69 983 l 378 983 l 704 481 l 704 983 l 1013 983 l 1013 0 z "},"O":{"ha":1094,"x_min":42,"x_max":1053,"o":"m 549 -10 q 294 56 410 -10 q 110 236 178 121 q 42 496 42 351 q 110 756 42 640 q 294 935 178 871 q 549 1000 410 1000 q 803 935 688 1000 q 985 756 918 871 q 1053 496 1053 640 q 985 236 1053 351 q 802 56 918 121 q 549 -10 686 -10 m 549 278 q 690 337 640 278 q 740 496 740 396 q 690 656 740 597 q 549 715 640 715 q 406 656 456 715 q 356 496 356 597 q 406 337 356 396 q 549 278 456 278 z "},"P":{"ha":901,"x_min":69,"x_max":874,"o":"m 874 646 q 831 477 874 553 q 703 357 788 401 q 500 313 619 313 l 378 313 l 378 0 l 69 0 l 69 983 l 500 983 q 777 892 681 983 q 874 646 874 800 m 465 556 q 561 646 561 556 q 465 736 561 736 l 378 736 l 378 556 l 465 556 z "},"Q":{"ha":1094,"x_min":42,"x_max":1081,"o":"m 717 -160 l 622 -4 q 549 -10 590 -10 q 294 56 410 -10 q 110 236 178 121 q 42 496 42 351 q 110 756 42 640 q 294 935 178 871 q 549 1000 410 1000 q 803 935 688 1000 q 985 756 918 871 q 1053 496 1053 640 q 1007 278 1053 378 q 881 110 961 179 l 1081 -160 l 717 -160 m 356 496 q 406 337 356 396 q 549 278 456 278 q 690 337 640 278 q 740 496 740 396 q 690 656 740 597 q 549 715 640 715 q 406 656 456 715 q 356 496 356 597 z "},"R":{"ha":931,"x_min":69,"x_max":903,"o":"m 564 0 l 379 353 l 378 353 l 378 0 l 69 0 l 69 983 l 528 983 q 732 941 647 983 q 859 826 817 899 q 901 661 901 753 q 847 486 901 563 q 689 376 792 410 l 903 0 l 564 0 m 378 558 l 500 558 q 567 578 544 558 q 589 642 589 599 q 566 703 589 681 q 500 725 543 725 l 378 725 l 378 558 z "},"S":{"ha":868,"x_min":39,"x_max":829,"o":"m 454 -10 q 163 73 278 -10 q 39 315 49 156 l 367 315 q 442 231 374 231 q 484 242 467 231 q 501 279 501 254 q 464 335 501 314 q 347 385 426 357 q 191 450 253 418 q 85 543 129 482 q 42 700 40 604 q 91 863 42 796 q 226 965 140 931 q 418 1000 311 1000 q 705 917 599 1000 q 817 682 811 833 l 485 682 q 464 742 483 724 q 417 760 444 760 q 385 747 397 760 q 372 710 372 733 q 409 655 372 676 q 526 603 446 633 q 680 536 619 568 q 785 447 740 504 q 829 304 829 390 q 785 142 829 214 q 656 31 740 71 q 454 -10 571 -10 z "},"T":{"ha":856,"x_min":14,"x_max":842,"o":"m 842 983 l 842 739 l 581 739 l 581 0 l 272 0 l 272 739 l 14 739 l 14 983 l 842 983 z "},"U":{"ha":999,"x_min":64,"x_max":935,"o":"m 371 983 l 371 429 q 401 322 371 361 q 497 282 431 282 q 596 322 564 282 q 628 429 628 361 l 628 983 l 935 983 l 935 429 q 876 190 935 289 q 717 40 818 90 q 490 -10 615 -10 q 269 40 365 -10 q 118 189 172 90 q 64 429 64 288 l 64 983 l 371 983 z "},"V":{"ha":1060,"x_min":0,"x_max":1060,"o":"m 1060 983 l 729 0 l 331 0 l 0 983 l 328 983 l 531 307 l 732 983 l 1060 983 z "},"W":{"ha":1528,"x_min":42,"x_max":1486,"o":"m 1486 983 l 1261 0 l 878 0 l 764 558 l 650 0 l 267 0 l 42 983 l 374 983 l 463 364 l 596 983 l 932 983 l 1065 364 l 1154 983 l 1486 983 z "},"X":{"ha":1061,"x_min":0,"x_max":1061,"o":"m 696 0 l 515 256 l 365 0 l 14 0 l 338 507 l 0 983 l 365 983 l 539 738 l 683 983 l 1035 983 l 717 486 l 1061 0 l 696 0 z "},"Y":{"ha":1014,"x_min":0,"x_max":1014,"o":"m 1014 983 l 661 299 l 661 0 l 353 0 l 353 299 l 0 983 l 353 983 l 510 635 l 667 983 l 1014 983 z "},"Z":{"ha":875,"x_min":69,"x_max":806,"o":"m 411 246 l 806 246 l 806 0 l 69 0 l 69 232 l 458 739 l 69 739 l 69 983 l 806 983 l 806 751 l 411 246 z "},"[":{"ha":740,"x_min":132,"x_max":663,"o":"m 663 1243 l 663 996 l 421 996 l 421 -71 l 663 -71 l 663 -318 l 132 -318 l 132 1243 l 663 1243 z "},"\\":{"ha":1219,"x_min":278,"x_max":906,"o":"m 611 -275 l 278 1326 l 572 1326 l 906 -275 l 611 -275 z "},"]":{"ha":740,"x_min":78,"x_max":608,"o":"m 608 -318 l 78 -318 l 78 -71 l 319 -71 l 319 996 l 78 996 l 78 1243 l 608 1243 l 608 -318 z "},"^":{"ha":1053,"x_min":35,"x_max":1018,"o":"m 340 225 l 35 225 l 376 988 l 679 988 l 1018 225 l 713 225 l 528 639 l 340 225 z "},"_":{"ha":1061,"x_min":68,"x_max":1006,"o":"m 1006 -58 l 1006 -358 l 68 -358 l 68 -58 l 1006 -58 z "},"`":{"ha":450,"x_min":14,"x_max":374,"o":"m 374 1042 l 374 836 l 14 967 l 14 1194 l 374 1042 z "},"a":{"ha":944,"x_min":28,"x_max":875,"o":"m 28 392 q 70 606 28 515 q 186 745 113 697 q 351 793 260 793 q 483 762 428 793 q 568 676 539 731 l 568 783 l 875 783 l 875 0 l 568 0 l 568 107 q 483 22 539 53 q 351 -10 428 -10 q 186 38 260 -10 q 70 177 113 86 q 28 392 28 268 m 568 392 q 536 489 568 454 q 454 524 504 524 q 372 489 404 524 q 340 392 340 454 q 372 294 340 329 q 454 260 404 260 q 536 294 504 260 q 568 392 568 329 z "},"b":{"ha":944,"x_min":69,"x_max":917,"o":"m 378 676 q 462 762 407 731 q 593 793 517 793 q 758 745 685 793 q 874 606 832 697 q 917 392 917 515 q 874 177 917 268 q 758 38 832 86 q 593 -10 685 -10 q 462 22 517 -10 q 378 107 407 53 l 378 0 l 69 0 l 69 1028 l 378 1028 l 378 676 m 604 392 q 572 489 604 454 q 490 524 540 524 q 408 489 440 524 q 376 392 376 454 q 408 294 376 329 q 490 260 440 260 q 572 294 540 260 q 604 392 604 329 z "},"c":{"ha":846,"x_min":28,"x_max":818,"o":"m 28 392 q 78 605 28 514 q 220 744 129 696 q 428 793 311 793 q 685 707 581 793 q 818 468 790 621 l 492 468 q 421 529 474 529 q 362 494 383 529 q 340 392 340 460 q 362 289 340 324 q 421 254 383 254 q 492 315 474 254 l 818 315 q 685 76 790 163 q 428 -10 581 -10 q 220 39 311 -10 q 78 178 129 88 q 28 392 28 269 z "},"d":{"ha":944,"x_min":28,"x_max":875,"o":"m 28 392 q 70 606 28 515 q 186 745 113 697 q 351 793 260 793 q 483 762 428 793 q 567 676 538 731 l 567 1028 l 875 1028 l 875 0 l 567 0 l 567 107 q 483 22 538 53 q 351 -10 428 -10 q 186 38 260 -10 q 70 177 113 86 q 28 392 28 268 m 568 392 q 536 489 568 454 q 454 524 504 524 q 372 489 404 524 q 340 392 340 454 q 372 294 340 329 q 454 260 404 260 q 536 294 504 260 q 568 392 568 329 z "},"e":{"ha":856,"x_min":28,"x_max":828,"o":"m 828 399 q 824 338 828 367 l 328 338 q 413 236 335 236 q 485 282 463 236 l 811 282 q 741 133 794 199 q 606 28 688 67 q 428 -10 525 -10 q 220 39 311 -10 q 78 178 129 88 q 28 392 28 269 q 78 605 28 514 q 220 744 129 696 q 428 793 311 793 q 635 745 544 793 q 777 608 726 697 q 828 399 828 519 m 515 472 q 490 531 515 511 q 428 551 465 551 q 332 472 346 551 l 515 472 z "},"f":{"ha":535,"x_min":14,"x_max":521,"o":"m 521 839 q 486 842 496 842 q 433 828 451 842 q 408 783 415 815 l 521 783 l 521 526 l 406 526 l 406 0 l 97 0 l 97 526 l 14 526 l 14 783 l 97 783 q 194 1020 100 936 q 457 1104 288 1104 q 521 1101 476 1104 l 521 839 z "},"g":{"ha":944,"x_min":28,"x_max":875,"o":"m 351 793 q 483 762 428 793 q 568 676 539 731 l 568 783 l 875 783 l 875 14 q 835 -186 875 -96 q 705 -331 794 -276 q 475 -385 615 -385 q 176 -297 286 -385 q 50 -57 65 -208 l 353 -57 q 453 -118 365 -118 q 538 -90 507 -118 q 568 14 568 -62 l 568 107 q 483 22 539 53 q 351 -10 428 -10 q 186 38 260 -10 q 70 177 113 86 q 28 392 28 268 q 70 606 28 515 q 186 745 113 697 q 351 793 260 793 m 568 392 q 536 489 568 454 q 454 524 504 524 q 372 489 404 524 q 340 392 340 454 q 372 294 340 329 q 454 260 404 260 q 536 294 504 260 q 568 392 568 329 z "},"h":{"ha":968,"x_min":69,"x_max":904,"o":"m 618 789 q 828 699 753 789 q 904 454 904 608 l 904 0 l 597 0 l 597 415 q 567 503 597 471 q 488 536 538 536 q 407 503 436 536 q 378 415 378 471 l 378 0 l 69 0 l 69 1028 l 378 1028 l 378 664 q 474 754 414 719 q 618 789 535 789 z "},"i":{"ha":447,"x_min":47,"x_max":401,"o":"m 225 846 q 96 889 144 846 q 47 997 47 932 q 96 1108 47 1064 q 225 1151 144 1151 q 353 1108 304 1151 q 401 997 401 1064 q 353 889 401 932 q 225 846 304 846 m 378 783 l 378 0 l 69 0 l 69 783 l 378 783 z "},"j":{"ha":444,"x_min":-47,"x_max":399,"o":"m 222 846 q 93 889 142 846 q 44 997 44 932 q 93 1108 44 1064 q 222 1151 142 1151 q 350 1108 301 1151 q 399 997 399 1064 q 350 889 399 932 q 222 846 301 846 m 378 -54 q 56 -375 378 -375 l -47 -375 l -47 -112 l 13 -112 q 56 -100 43 -112 q 69 -60 69 -87 l 69 783 l 378 783 l 378 -54 z "},"k":{"ha":939,"x_min":69,"x_max":939,"o":"m 571 0 l 378 313 l 378 0 l 69 0 l 69 1028 l 378 1028 l 378 490 l 574 783 l 932 783 l 639 389 l 939 0 l 571 0 z "},"l":{"ha":447,"x_min":69,"x_max":378,"o":"m 378 1028 l 378 0 l 69 0 l 69 1028 l 378 1028 z "},"m":{"ha":1494,"x_min":69,"x_max":1431,"o":"m 1115 789 q 1348 699 1265 789 q 1431 454 1431 608 l 1431 0 l 1124 0 l 1124 415 q 1094 494 1124 465 q 1014 522 1064 522 q 933 494 963 522 q 904 415 904 465 l 904 0 l 597 0 l 597 415 q 567 494 597 465 q 488 522 538 522 q 407 494 436 522 q 378 415 378 465 l 378 0 l 69 0 l 69 783 l 378 783 l 378 678 q 469 758 411 728 q 604 789 526 789 q 754 752 689 789 q 858 649 819 715 q 968 749 901 710 q 1115 789 1035 789 z "},"n":{"ha":968,"x_min":69,"x_max":904,"o":"m 618 789 q 828 699 753 789 q 904 454 904 608 l 904 0 l 597 0 l 597 415 q 567 503 597 471 q 488 536 538 536 q 407 503 436 536 q 378 415 378 471 l 378 0 l 69 0 l 69 783 l 378 783 l 378 664 q 474 754 414 719 q 618 789 535 789 z "},"o":{"ha":883,"x_min":28,"x_max":856,"o":"m 442 -10 q 229 39 324 -10 q 81 178 135 88 q 28 392 28 269 q 81 605 28 514 q 229 744 135 696 q 442 793 324 793 q 654 744 560 793 q 802 605 749 696 q 856 392 856 514 q 802 178 856 269 q 654 39 749 88 q 442 -10 560 -10 m 442 257 q 514 291 485 257 q 543 392 543 325 q 514 492 543 458 q 442 526 485 526 q 369 492 399 526 q 340 392 340 458 q 369 291 340 325 q 442 257 397 257 z "},"p":{"ha":944,"x_min":69,"x_max":917,"o":"m 378 676 q 462 762 407 731 q 593 793 517 793 q 758 745 685 793 q 874 606 832 697 q 917 392 917 515 q 874 177 917 268 q 758 38 832 86 q 593 -10 685 -10 q 462 22 517 -10 q 378 107 407 53 l 378 -375 l 69 -375 l 69 783 l 378 783 l 378 676 m 604 392 q 572 489 604 454 q 490 524 540 524 q 408 489 440 524 q 376 392 376 454 q 408 294 376 329 q 490 260 440 260 q 572 294 540 260 q 604 392 604 329 z "},"q":{"ha":944,"x_min":28,"x_max":875,"o":"m 28 386 q 75 593 28 501 q 202 737 122 685 q 374 789 282 789 q 483 772 436 789 q 568 714 531 754 l 568 783 l 875 783 l 875 -375 l 568 -375 l 568 86 q 480 15 526 38 q 374 -8 433 -8 q 201 42 281 -8 q 75 181 122 92 q 28 386 28 271 m 568 392 q 533 491 568 460 q 454 522 497 522 q 376 488 413 522 q 340 386 340 454 q 376 290 340 319 q 454 260 411 260 q 533 292 497 260 q 568 392 568 324 z "},"r":{"ha":649,"x_min":69,"x_max":635,"o":"m 378 639 q 493 748 425 707 q 635 789 561 789 l 635 460 l 547 460 q 419 429 460 460 q 378 321 378 399 l 378 0 l 69 0 l 69 783 l 378 783 l 378 639 z "},"s":{"ha":804,"x_min":29,"x_max":753,"o":"m 418 -10 q 222 26 307 -10 q 86 126 136 63 q 29 271 36 190 l 325 271 q 355 219 331 236 q 417 203 379 203 q 454 213 440 203 q 468 239 468 224 q 439 276 468 265 q 340 301 410 288 q 201 338 256 318 q 105 404 146 357 q 64 535 64 451 q 102 666 64 607 q 215 759 140 725 q 397 793 290 793 q 645 715 556 793 q 753 513 735 638 l 479 513 q 450 562 472 544 q 390 579 428 579 q 354 570 367 579 q 342 543 342 561 q 371 508 342 519 q 464 483 400 496 q 607 446 549 467 q 708 374 665 425 q 751 235 751 324 q 711 110 751 165 q 595 22 671 54 q 418 -10 519 -10 z "},"t":{"ha":606,"x_min":21,"x_max":557,"o":"m 557 263 l 557 0 l 440 0 q 118 321 118 0 l 118 526 l 21 526 l 21 783 l 118 783 l 118 972 l 426 972 l 426 783 l 554 783 l 554 526 l 426 526 l 426 315 q 440 275 426 288 q 483 263 453 263 l 557 263 z "},"u":{"ha":968,"x_min":64,"x_max":899,"o":"m 899 783 l 899 0 l 590 0 l 590 119 q 494 29 554 64 q 350 -6 433 -6 q 140 85 215 -6 q 64 329 64 175 l 64 783 l 371 783 l 371 368 q 401 280 371 313 q 481 247 431 247 q 561 280 532 247 q 590 368 590 313 l 590 783 l 899 783 z "},"v":{"ha":932,"x_min":13,"x_max":919,"o":"m 467 293 l 592 783 l 919 783 l 658 0 l 274 0 l 13 783 l 340 783 l 467 293 z "},"w":{"ha":1254,"x_min":-1,"x_max":1258,"o":"m 1258 783 l 1072 0 l 725 0 l 631 442 l 531 0 l 183 0 l -1 783 l 304 783 l 369 307 l 471 783 l 800 783 l 907 301 l 974 783 l 1258 783 z "},"x":{"ha":928,"x_min":0,"x_max":928,"o":"m 583 0 l 451 176 l 353 0 l 14 0 l 276 413 l 0 783 l 344 783 l 476 606 l 576 783 l 915 783 l 644 381 l 928 0 l 583 0 z "},"y":{"ha":940,"x_min":-14,"x_max":954,"o":"m 954 783 l 453 -375 l 115 -375 l 313 39 l -14 783 l 329 783 l 476 386 l 614 783 l 954 783 z "},"z":{"ha":719,"x_min":28,"x_max":692,"o":"m 365 256 l 692 256 l 692 0 l 28 0 l 28 242 l 326 528 l 32 528 l 32 783 l 678 783 l 678 542 l 365 256 z "},"{":{"ha":672,"x_min":83,"x_max":597,"o":"m 83 588 q 183 608 154 588 q 211 675 211 629 q 196 792 211 710 q 176 956 176 897 q 261 1168 176 1093 q 492 1243 346 1243 l 597 1243 l 597 997 l 550 997 q 487 978 506 997 q 468 922 468 958 q 479 811 468 900 q 493 663 493 708 q 456 528 493 581 q 343 463 418 476 l 343 460 q 456 394 418 446 q 493 260 493 342 q 479 111 493 214 q 468 0 468 22 q 487 -56 468 -36 q 550 -75 506 -75 l 597 -75 l 597 -321 l 492 -321 q 261 -246 346 -321 q 176 -33 176 -171 q 196 131 176 25 q 211 247 211 213 q 182 313 211 290 q 83 336 153 336 l 83 588 z "},"|":{"ha":364,"x_min":28,"x_max":336,"o":"m 336 -200 l 28 -200 l 28 1150 l 336 1150 l 336 -200 z "},"}":{"ha":672,"x_min":75,"x_max":589,"o":"m 589 336 q 490 313 519 336 q 461 247 461 290 q 476 131 461 213 q 496 -33 496 25 q 411 -246 496 -171 q 181 -321 326 -321 l 75 -321 l 75 -75 l 122 -75 q 185 -56 167 -75 q 204 0 204 -36 q 193 111 204 22 q 179 260 179 214 q 217 394 179 342 q 329 460 254 446 l 329 463 q 217 528 254 476 q 179 663 179 581 q 193 811 179 708 q 204 922 204 900 q 185 978 204 958 q 122 997 167 997 l 75 997 l 75 1243 l 181 1243 q 411 1168 326 1243 q 496 956 496 1093 q 476 792 496 897 q 461 675 461 710 q 490 608 461 629 q 589 588 518 588 l 589 336 z "},"~":{"ha":988,"x_min":28,"x_max":960,"o":"m 28 251 q 143 529 58 440 q 354 618 228 618 q 446 603 404 618 q 538 563 488 589 q 599 534 575 543 q 647 525 624 525 q 703 547 685 525 q 729 621 722 568 l 960 621 q 844 344 931 433 q 632 254 758 254 q 541 269 582 254 q 450 310 500 283 q 385 339 408 331 q 339 347 363 347 q 283 325 301 347 q 256 251 264 303 l 28 251 z "}," ":{"ha":236,"x_min":0,"x_max":0,"o":""},"¡":{"ha":632,"x_min":139,"x_max":493,"o":"m 317 800 q 444 757 396 800 q 493 649 493 714 q 444 538 493 582 q 317 494 396 494 q 188 538 236 494 q 139 649 139 582 q 188 757 139 714 q 317 800 236 800 m 185 399 l 449 399 l 485 -260 l 149 -260 l 185 399 z "},"¢":{"ha":804,"x_min":28,"x_max":776,"o":"m 418 236 q 466 249 443 236 q 494 285 489 261 l 776 285 q 726 133 771 197 q 609 33 681 68 q 453 -10 538 -3 l 453 -115 l 367 -115 l 367 -10 q 118 97 208 4 q 28 353 28 190 q 118 606 28 514 q 367 713 208 699 l 367 818 l 453 818 l 453 713 q 676 626 585 703 q 776 419 768 550 l 494 419 q 464 457 485 446 q 418 468 443 468 q 347 438 371 468 q 322 351 322 407 q 347 266 322 296 q 418 236 371 236 z "},"£":{"ha":943,"x_min":43,"x_max":854,"o":"m 854 229 l 854 -8 l 88 -8 l 50 136 q 147 243 114 186 q 186 381 179 300 l 43 381 l 43 585 l 150 585 q 126 761 126 685 q 172 928 126 858 q 297 1034 217 997 q 481 1071 376 1071 q 747 979 653 1071 q 851 738 842 888 l 568 738 q 492 821 558 821 q 419 725 419 821 q 429 663 419 701 q 450 585 439 625 l 683 585 l 683 381 l 475 381 q 389 229 454 282 l 854 229 z "},"¤":{"ha":838,"x_min":83,"x_max":754,"o":"m 739 526 q 686 372 739 439 l 754 304 l 643 192 l 549 286 q 422 268 494 268 q 290 288 351 268 l 194 192 l 83 304 l 156 376 q 106 526 106 439 q 157 678 106 615 l 83 751 l 194 864 l 296 763 q 422 779 351 779 q 543 764 486 779 l 643 864 l 754 751 l 683 682 q 739 526 739 619 m 422 444 q 480 464 457 444 q 503 524 503 483 q 480 586 503 567 q 422 606 457 606 q 365 586 388 606 q 342 524 342 567 q 365 464 342 483 q 422 444 388 444 z "},"¥":{"ha":1014,"x_min":0,"x_max":1014,"o":"m 831 628 l 938 628 l 938 428 l 728 428 l 701 378 l 938 378 l 938 178 l 661 178 l 661 0 l 353 0 l 353 178 l 74 178 l 74 378 l 313 378 l 286 428 l 74 428 l 74 628 l 183 628 l 0 983 l 353 983 l 510 589 l 667 983 l 1014 983 l 831 628 z "},"¦":{"ha":600,"x_min":146,"x_max":454,"o":"m 146 1150 l 454 1150 l 454 553 l 146 553 l 146 1150 m 454 -200 l 146 -200 l 146 399 l 454 399 l 454 -200 z "},"§":{"ha":826,"x_min":29,"x_max":799,"o":"m 799 339 q 768 225 799 274 q 664 140 738 176 q 744 -61 744 51 q 655 -253 744 -181 q 404 -326 565 -326 q 169 -246 254 -326 q 74 -35 85 -165 l 378 -35 q 411 -110 381 -110 q 433 -76 433 -110 q 414 -28 433 -50 q 353 17 394 -7 q 226 86 313 42 q 81 199 132 135 q 29 339 29 263 q 161 539 29 483 q 101 635 121 583 q 82 739 82 686 q 172 931 82 858 q 422 1004 261 1004 q 657 924 572 1004 q 753 713 742 843 l 449 713 q 415 788 446 788 q 393 754 393 788 q 412 706 393 728 q 472 660 431 685 q 600 593 514 636 q 799 339 799 485 m 413 263 q 455 284 439 263 q 471 339 471 306 q 457 394 471 372 q 417 415 443 415 q 374 394 390 415 q 358 339 358 372 q 373 284 358 306 q 413 263 388 263 z "},"¨":{"ha":579,"x_min":14,"x_max":565,"o":"m 132 861 q 48 895 82 861 q 14 979 14 929 q 48 1065 14 1031 q 132 1100 82 1100 q 219 1066 185 1100 q 253 979 253 1032 q 218 895 253 929 q 132 861 183 861 m 444 861 q 360 895 394 861 q 326 979 326 929 q 360 1065 326 1031 q 444 1100 394 1100 q 531 1066 497 1100 q 565 979 565 1032 q 531 895 565 929 q 444 861 496 861 z "},"©":{"ha":1071,"x_min":42,"x_max":1029,"o":"m 536 1000 q 793 936 681 1000 q 967 758 906 872 q 1029 497 1029 643 q 967 235 1029 350 q 792 56 904 121 q 536 -8 681 -8 q 279 56 392 -8 q 104 236 167 121 q 42 497 42 351 q 104 758 42 643 q 279 936 167 872 q 536 1000 392 1000 m 536 910 q 324 859 414 910 q 187 715 235 808 q 139 497 139 622 q 187 278 139 372 q 325 133 235 185 q 536 82 415 82 q 747 133 657 82 q 885 279 836 185 q 933 497 933 374 q 885 715 933 622 q 747 859 836 808 q 536 910 657 910 m 542 803 q 377 765 449 803 q 267 658 306 728 q 228 496 228 589 q 267 333 228 403 q 377 226 306 264 q 542 189 449 189 q 738 257 656 189 q 836 439 819 325 l 581 439 q 528 390 567 390 q 481 417 497 390 q 465 496 465 443 q 481 575 465 549 q 528 601 497 601 q 581 553 567 601 l 836 553 q 738 735 819 667 q 542 803 656 803 z "},"ª":{"ha":668,"x_min":28,"x_max":640,"o":"m 28 736 q 92 922 28 856 q 256 989 156 989 q 349 974 313 989 q 413 929 386 960 l 413 983 l 640 983 l 640 493 l 413 493 l 413 547 q 350 501 386 515 q 258 486 314 486 q 92 551 157 486 q 28 736 28 617 m 263 735 q 283 685 263 701 q 338 668 304 668 q 391 687 369 668 q 413 739 413 706 q 391 790 413 772 q 338 808 369 808 q 284 789 306 808 q 263 735 263 769 z "},"«":{"ha":858,"x_min":63,"x_max":803,"o":"m 169 167 l 63 410 l 169 653 l 449 653 l 339 410 l 449 167 l 169 167 m 524 167 l 417 410 l 524 653 l 803 653 l 693 410 l 803 167 l 524 167 z "},"¬":{"ha":1081,"x_min":76,"x_max":990,"o":"m 990 622 l 990 215 l 682 215 l 682 392 l 76 392 l 76 622 l 990 622 z "},"­":{"ha":800,"x_min":28,"x_max":675,"o":"m 675 601 l 675 347 l 28 347 l 28 601 l 675 601 z "},"®":{"ha":710,"x_min":42,"x_max":668,"o":"m 356 1001 q 517 962 446 1001 q 628 852 589 922 q 668 692 668 782 q 628 532 668 603 q 517 422 589 461 q 356 382 446 382 q 194 422 265 382 q 82 532 122 461 q 42 692 42 603 q 82 852 42 782 q 194 962 122 922 q 356 1001 265 1001 m 356 472 q 513 533 454 472 q 572 692 572 594 q 513 851 572 790 q 356 911 454 911 q 197 851 256 911 q 138 692 138 792 q 197 533 138 594 q 356 472 257 472 m 496 747 q 483 698 496 719 q 446 664 469 676 l 511 550 l 392 550 l 340 651 l 333 651 l 333 550 l 222 550 l 222 842 l 389 842 q 467 816 438 842 q 496 747 496 790 m 329 718 l 363 718 q 381 736 381 718 q 363 754 381 754 l 329 754 l 329 718 z "},"¯":{"ha":626,"x_min":14,"x_max":613,"o":"m 613 1068 l 613 864 l 14 864 l 14 1068 l 613 1068 z "},"°":{"ha":689,"x_min":32,"x_max":657,"o":"m 32 740 q 117 926 32 858 q 346 993 203 993 q 572 926 488 993 q 657 740 657 858 q 574 551 657 621 q 351 482 492 482 q 185 514 258 482 q 72 604 113 546 q 32 740 32 663 m 422 738 q 399 810 422 786 q 347 833 376 833 q 291 810 315 833 q 267 738 267 786 q 293 667 267 690 q 351 644 319 644 q 401 667 381 644 q 422 738 422 690 z "},"±":{"ha":765,"x_min":28,"x_max":738,"o":"m 531 478 l 531 413 l 738 413 l 738 133 l 28 133 l 28 413 l 235 413 l 235 478 l 28 478 l 28 757 l 235 757 l 235 875 l 531 875 l 531 757 l 738 757 l 738 478 l 531 478 z "},"²":{"ha":586,"x_min":56,"x_max":560,"o":"m 310 663 l 546 663 l 546 489 l 67 489 l 67 658 l 254 756 q 319 826 319 789 q 307 838 319 838 q 282 790 283 838 l 56 790 q 138 939 63 882 q 338 996 213 996 q 506 951 451 996 q 560 846 560 906 q 515 759 560 796 q 365 683 469 722 l 310 663 z "},"³":{"ha":560,"x_min":18,"x_max":535,"o":"m 28 801 q 90 940 28 883 q 290 996 151 996 q 461 956 400 996 q 522 849 522 915 q 418 746 522 763 l 418 740 q 508 699 481 726 q 535 628 535 672 q 471 522 535 558 q 296 485 407 485 q 88 532 150 485 q 18 669 26 579 l 257 669 q 262 648 257 654 q 276 642 267 642 q 294 671 294 642 q 285 698 294 690 q 257 706 276 706 l 215 706 l 215 781 l 244 781 q 272 789 264 781 q 281 817 281 797 q 264 840 281 840 q 249 831 254 840 q 244 801 244 822 l 28 801 z "},"´":{"ha":388,"x_min":14,"x_max":374,"o":"m 374 967 l 14 836 l 14 1042 l 374 1194 l 374 967 z "},"µ":{"ha":1043,"x_min":104,"x_max":939,"o":"m 939 783 l 939 0 l 631 0 l 631 107 q 542 27 597 58 q 411 -6 486 -4 l 411 -375 l 104 -375 l 104 783 l 411 783 l 411 369 q 441 290 411 319 q 521 261 471 261 q 601 290 572 261 q 631 369 631 319 l 631 783 l 939 783 z "},"¶":{"ha":1081,"x_min":31,"x_max":976,"o":"m 976 0 l 731 0 l 731 753 l 650 753 l 650 0 l 406 0 l 406 368 l 363 368 q 174 412 249 368 q 65 525 100 456 q 31 675 31 594 q 65 826 31 756 q 174 940 100 896 q 363 983 249 983 l 976 983 l 976 0 z "},"·":{"ha":485,"x_min":65,"x_max":419,"o":"m 243 260 q 114 303 163 260 q 65 411 65 346 q 114 522 65 478 q 243 565 163 565 q 371 522 322 565 q 419 411 419 478 q 371 303 419 346 q 243 260 322 260 z "},"¸":{"ha":476,"x_min":14,"x_max":463,"o":"m 282 -37 q 363 -53 321 -37 q 433 -108 404 -69 q 463 -207 463 -146 q 400 -337 463 -297 q 254 -376 338 -376 l 14 -376 l 14 -219 l 222 -219 q 249 -213 239 -219 q 258 -197 258 -207 q 222 -176 258 -176 l 104 -176 l 104 10 l 282 10 l 282 -37 z "},"¹":{"ha":396,"x_min":28,"x_max":347,"o":"m 28 801 l 28 978 l 347 978 l 347 489 l 119 489 l 119 801 l 28 801 z "},"º":{"ha":653,"x_min":28,"x_max":625,"o":"m 28 735 q 64 863 28 807 q 167 952 100 919 q 326 985 235 985 q 485 952 418 985 q 589 863 553 919 q 625 735 625 807 q 589 606 625 664 q 485 515 553 549 q 326 482 417 482 q 168 515 236 482 q 64 606 100 549 q 28 735 28 664 m 393 735 q 374 792 393 772 q 326 811 356 811 q 278 792 297 811 q 260 735 260 772 q 278 677 260 697 q 326 657 297 657 q 374 677 356 657 q 393 735 393 697 z "},"»":{"ha":858,"x_min":69,"x_max":810,"o":"m 181 410 l 69 653 l 350 653 l 456 410 l 350 167 l 69 167 l 181 410 m 535 410 l 424 653 l 704 653 l 810 410 l 704 167 l 424 167 l 535 410 z "},"¼":{"ha":1221,"x_min":63,"x_max":1190,"o":"m 992 983 l 454 0 l 153 0 l 692 983 l 992 983 m 63 801 l 63 978 l 382 978 l 382 489 l 154 489 l 154 801 l 63 801 m 1190 81 l 1142 81 l 1142 0 l 913 0 l 913 81 l 631 81 l 631 197 l 826 488 l 1142 488 l 1142 203 l 1190 203 l 1190 81 m 925 347 l 843 210 l 925 210 l 925 347 z "},"½":{"ha":1289,"x_min":63,"x_max":1190,"o":"m 1006 988 l 454 0 l 153 0 l 706 988 l 1006 988 m 154 801 l 63 801 l 63 978 l 382 978 l 382 489 l 154 489 l 154 801 m 940 172 l 1176 172 l 1176 -1 l 697 -1 l 697 168 l 885 265 q 950 336 950 299 q 938 347 950 347 q 913 300 914 347 l 686 300 q 768 449 693 392 q 968 506 843 506 q 1136 460 1082 506 q 1190 356 1190 415 q 1145 269 1190 306 q 996 193 1100 232 l 940 172 z "},"¾":{"ha":1422,"x_min":92,"x_max":1401,"o":"m 101 801 q 163 940 101 883 q 364 996 225 996 q 535 956 474 996 q 596 849 596 915 q 492 746 596 763 l 492 740 q 581 699 554 726 q 608 628 608 672 q 544 522 608 558 q 369 485 481 485 q 162 532 224 485 q 92 669 100 579 l 331 669 q 335 648 331 654 q 350 642 340 642 q 368 671 368 642 q 359 698 368 690 q 331 706 350 706 l 289 706 l 289 781 l 318 781 q 346 789 338 781 q 354 817 354 797 q 338 840 354 840 q 323 831 328 840 q 318 801 318 822 l 101 801 m 1176 988 l 663 0 l 363 0 l 875 988 l 1176 988 m 1401 81 l 1353 81 l 1353 0 l 1125 0 l 1125 81 l 842 81 l 842 197 l 1010 488 l 1353 488 l 1353 203 l 1401 203 l 1401 81 m 1138 375 l 1056 203 l 1138 203 l 1138 375 z "},"¿":{"ha":747,"x_min":25,"x_max":724,"o":"m 464 807 q 593 764 544 807 q 642 656 642 721 q 593 545 642 589 q 464 501 544 501 q 336 545 385 501 q 288 656 288 589 q 336 764 288 721 q 464 807 385 807 m 367 -278 q 119 -201 213 -278 q 25 25 25 -124 q 108 222 25 147 q 324 300 190 297 l 332 399 l 604 399 l 613 104 l 496 104 q 370 86 414 104 q 326 28 326 68 q 340 -13 326 1 q 375 -28 353 -28 q 416 -10 403 -28 q 429 35 429 7 l 719 35 q 685 -122 724 -51 q 567 -235 647 -193 q 367 -278 486 -278 z "},"À":{"ha":1074,"x_min":0,"x_max":1074,"o":"m 700 149 l 372 149 l 324 0 l 0 0 l 360 983 l 715 983 l 1074 0 l 749 0 l 700 149 m 625 381 l 536 654 l 447 381 l 625 381 m 715 1246 l 715 1040 l 356 1171 l 356 1399 l 715 1246 z "},"Á":{"ha":1074,"x_min":0,"x_max":1074,"o":"m 700 149 l 372 149 l 324 0 l 0 0 l 360 983 l 715 983 l 1074 0 l 749 0 l 700 149 m 625 381 l 536 654 l 447 381 l 625 381 m 715 1171 l 356 1040 l 356 1246 l 715 1399 l 715 1171 z "},"Â":{"ha":1074,"x_min":0,"x_max":1074,"o":"m 700 149 l 372 149 l 324 0 l 0 0 l 360 983 l 715 983 l 1074 0 l 749 0 l 700 149 m 625 381 l 536 654 l 447 381 l 625 381 m 538 1149 l 307 1040 l 307 1240 l 538 1344 l 767 1240 l 767 1040 l 538 1149 z "},"Ã":{"ha":1074,"x_min":0,"x_max":1074,"o":"m 700 149 l 372 149 l 324 0 l 0 0 l 360 983 l 715 983 l 1074 0 l 749 0 l 700 149 m 625 381 l 536 654 l 447 381 l 625 381 m 213 1040 q 291 1227 235 1169 q 436 1285 347 1285 q 499 1275 469 1285 q 561 1247 528 1265 q 603 1227 588 1233 q 636 1221 619 1221 q 697 1286 688 1221 l 849 1286 q 770 1100 826 1157 q 625 1043 714 1043 q 563 1053 592 1043 q 500 1081 533 1063 q 461 1098 481 1090 q 425 1106 442 1106 q 363 1040 375 1106 l 213 1040 z "},"Ä":{"ha":1074,"x_min":0,"x_max":1074,"o":"m 700 149 l 372 149 l 324 0 l 0 0 l 360 983 l 715 983 l 1074 0 l 749 0 l 700 149 m 625 381 l 536 654 l 447 381 l 625 381 m 379 1065 q 295 1099 329 1065 q 261 1183 261 1133 q 295 1269 261 1235 q 379 1304 329 1304 q 466 1270 432 1304 q 500 1183 500 1236 q 465 1099 500 1133 q 379 1065 431 1065 m 692 1065 q 608 1099 642 1065 q 574 1183 574 1133 q 608 1269 574 1235 q 692 1304 642 1304 q 778 1270 744 1304 q 813 1183 813 1236 q 778 1099 813 1133 q 692 1065 743 1065 z "},"Å":{"ha":1074,"x_min":0,"x_max":1074,"o":"m 700 149 l 372 149 l 324 0 l 0 0 l 360 983 l 715 983 l 1074 0 l 749 0 l 700 149 m 625 381 l 536 654 l 447 381 l 625 381 m 721 1211 q 668 1078 721 1128 q 538 1028 615 1028 q 407 1078 460 1028 q 354 1211 354 1128 q 407 1344 354 1294 q 538 1394 460 1394 q 668 1344 615 1394 q 721 1211 721 1294 m 601 1211 q 583 1258 601 1240 q 538 1276 565 1276 q 492 1258 510 1276 q 474 1211 474 1240 q 492 1164 474 1182 q 538 1146 510 1146 q 583 1164 565 1146 q 601 1211 601 1182 z "},"Æ":{"ha":1369,"x_min":0,"x_max":1322,"o":"m 989 739 l 989 621 l 1281 621 l 1281 389 l 989 389 l 989 246 l 1322 246 l 1322 0 l 681 0 l 681 135 l 397 135 l 335 0 l 0 0 l 471 983 l 1322 983 l 1322 739 l 989 739 m 681 367 l 681 746 l 504 367 l 681 367 z "},"Ç":{"ha":1046,"x_min":42,"x_max":1004,"o":"m 522 278 q 616 305 575 278 q 679 381 657 332 l 1004 381 q 876 125 978 226 q 619 0 775 24 l 626 0 l 626 -47 q 707 -63 665 -47 q 778 -117 749 -79 q 807 -217 807 -156 q 744 -347 807 -307 q 599 -386 682 -386 l 358 -386 l 358 -229 l 567 -229 q 593 -223 583 -229 q 603 -207 603 -217 q 567 -186 603 -186 l 449 -186 l 449 -1 q 231 82 324 15 q 90 254 139 149 q 42 493 42 360 q 101 753 42 639 q 269 930 160 867 q 528 993 379 993 q 756 945 656 993 q 920 810 857 897 q 1004 606 983 722 l 679 606 q 616 681 657 654 q 522 708 575 708 q 399 650 444 708 q 354 493 354 592 q 399 336 354 394 q 522 278 444 278 z "},"È":{"ha":772,"x_min":69,"x_max":725,"o":"m 378 738 l 378 617 l 683 617 l 683 385 l 378 385 l 378 246 l 725 246 l 725 0 l 69 0 l 69 983 l 725 983 l 725 738 l 378 738 m 569 1246 l 569 1040 l 210 1171 l 210 1399 l 569 1246 z "},"É":{"ha":772,"x_min":69,"x_max":725,"o":"m 378 738 l 378 617 l 683 617 l 683 385 l 378 385 l 378 246 l 725 246 l 725 0 l 69 0 l 69 983 l 725 983 l 725 738 l 378 738 m 569 1171 l 210 1040 l 210 1246 l 569 1399 l 569 1171 z "},"Ê":{"ha":772,"x_min":69,"x_max":725,"o":"m 378 738 l 378 617 l 683 617 l 683 385 l 378 385 l 378 246 l 725 246 l 725 0 l 69 0 l 69 983 l 725 983 l 725 738 l 378 738 m 392 1149 l 161 1040 l 161 1240 l 392 1344 l 621 1240 l 621 1040 l 392 1149 z "},"Ë":{"ha":772,"x_min":69,"x_max":725,"o":"m 378 738 l 378 617 l 683 617 l 683 385 l 378 385 l 378 246 l 725 246 l 725 0 l 69 0 l 69 983 l 725 983 l 725 738 l 378 738 m 233 1065 q 149 1099 183 1065 q 115 1183 115 1133 q 149 1269 115 1235 q 233 1304 183 1304 q 320 1270 286 1304 q 354 1183 354 1236 q 319 1099 354 1133 q 233 1065 285 1065 m 546 1065 q 462 1099 496 1065 q 428 1183 428 1133 q 462 1269 428 1235 q 546 1304 496 1304 q 633 1270 599 1304 q 667 1183 667 1236 q 632 1099 667 1133 q 546 1065 597 1065 z "},"Ì":{"ha":447,"x_min":43,"x_max":403,"o":"m 378 983 l 378 0 l 69 0 l 69 983 l 378 983 m 403 1246 l 403 1040 l 43 1171 l 43 1399 l 403 1246 z "},"Í":{"ha":447,"x_min":43,"x_max":403,"o":"m 378 983 l 378 0 l 69 0 l 69 983 l 378 983 m 403 1171 l 43 1040 l 43 1246 l 403 1399 l 403 1171 z "},"Î":{"ha":447,"x_min":-6,"x_max":454,"o":"m 378 983 l 378 0 l 69 0 l 69 983 l 378 983 m 225 1149 l -6 1040 l -6 1240 l 225 1344 l 454 1240 l 454 1040 l 225 1149 z "},"Ï":{"ha":447,"x_min":-51,"x_max":500,"o":"m 378 983 l 378 0 l 69 0 l 69 983 l 378 983 m 67 1065 q -17 1099 17 1065 q -51 1183 -51 1133 q -17 1269 -51 1235 q 67 1304 17 1304 q 153 1270 119 1304 q 188 1183 188 1236 q 153 1099 188 1133 q 67 1065 118 1065 m 379 1065 q 295 1099 329 1065 q 261 1183 261 1133 q 295 1269 261 1235 q 379 1304 329 1304 q 466 1270 432 1304 q 500 1183 500 1236 q 465 1099 500 1133 q 379 1065 431 1065 z "},"Ð":{"ha":1032,"x_min":0,"x_max":990,"o":"m 479 983 q 749 921 633 983 q 928 747 865 858 q 990 494 990 636 q 928 242 990 354 q 749 65 865 129 q 479 0 633 0 l 69 0 l 69 372 l 0 372 l 0 617 l 69 617 l 69 983 l 479 983 m 451 275 q 617 332 556 275 q 678 494 678 389 q 617 657 678 600 q 451 714 556 714 l 378 714 l 378 617 l 558 617 l 558 372 l 378 372 l 378 275 l 451 275 z "},"Ñ":{"ha":1082,"x_min":69,"x_max":1013,"o":"m 1013 0 l 704 0 l 378 494 l 378 0 l 69 0 l 69 983 l 378 983 l 704 481 l 704 983 l 1013 983 l 1013 0 m 215 1040 q 294 1227 238 1169 q 439 1285 350 1285 q 501 1275 472 1285 q 564 1247 531 1265 q 606 1227 590 1233 q 639 1221 622 1221 q 700 1286 690 1221 l 851 1286 q 773 1100 829 1157 q 628 1043 717 1043 q 565 1053 594 1043 q 503 1081 536 1063 q 464 1098 483 1090 q 428 1106 444 1106 q 365 1040 378 1106 l 215 1040 z "},"Ò":{"ha":1094,"x_min":42,"x_max":1053,"o":"m 549 -10 q 294 56 410 -10 q 110 236 178 121 q 42 496 42 351 q 110 756 42 640 q 294 935 178 871 q 549 1000 410 1000 q 803 935 688 1000 q 985 756 918 871 q 1053 496 1053 640 q 985 236 1053 351 q 802 56 918 121 q 549 -10 686 -10 m 549 278 q 690 337 640 278 q 740 496 740 396 q 690 656 740 597 q 549 715 640 715 q 406 656 456 715 q 356 496 356 597 q 406 337 356 396 q 549 278 456 278 m 726 1246 l 726 1040 l 367 1171 l 367 1399 l 726 1246 z "},"Ó":{"ha":1094,"x_min":42,"x_max":1053,"o":"m 549 -10 q 294 56 410 -10 q 110 236 178 121 q 42 496 42 351 q 110 756 42 640 q 294 935 178 871 q 549 1000 410 1000 q 803 935 688 1000 q 985 756 918 871 q 1053 496 1053 640 q 985 236 1053 351 q 802 56 918 121 q 549 -10 686 -10 m 549 278 q 690 337 640 278 q 740 496 740 396 q 690 656 740 597 q 549 715 640 715 q 406 656 456 715 q 356 496 356 597 q 406 337 356 396 q 549 278 456 278 m 726 1171 l 367 1040 l 367 1246 l 726 1399 l 726 1171 z "},"Ô":{"ha":1094,"x_min":42,"x_max":1053,"o":"m 549 -10 q 294 56 410 -10 q 110 236 178 121 q 42 496 42 351 q 110 756 42 640 q 294 935 178 871 q 549 1000 410 1000 q 803 935 688 1000 q 985 756 918 871 q 1053 496 1053 640 q 985 236 1053 351 q 802 56 918 121 q 549 -10 686 -10 m 549 278 q 690 337 640 278 q 740 496 740 396 q 690 656 740 597 q 549 715 640 715 q 406 656 456 715 q 356 496 356 597 q 406 337 356 396 q 549 278 456 278 m 549 1149 l 318 1040 l 318 1240 l 549 1344 l 778 1240 l 778 1040 l 549 1149 z "},"Õ":{"ha":1094,"x_min":42,"x_max":1053,"o":"m 549 -10 q 294 56 410 -10 q 110 236 178 121 q 42 496 42 351 q 110 756 42 640 q 294 935 178 871 q 549 1000 410 1000 q 803 935 688 1000 q 985 756 918 871 q 1053 496 1053 640 q 985 236 1053 351 q 802 56 918 121 q 549 -10 686 -10 m 549 278 q 690 337 640 278 q 740 496 740 396 q 690 656 740 597 q 549 715 640 715 q 406 656 456 715 q 356 496 356 597 q 406 337 356 396 q 549 278 456 278 m 224 1040 q 302 1227 246 1169 q 447 1285 358 1285 q 510 1275 481 1285 q 572 1247 539 1265 q 615 1227 599 1233 q 647 1221 631 1221 q 708 1286 699 1221 l 860 1286 q 781 1100 838 1157 q 636 1043 725 1043 q 574 1053 603 1043 q 511 1081 544 1063 q 472 1098 492 1090 q 436 1106 453 1106 q 374 1040 386 1106 l 224 1040 z "},"Ö":{"ha":1094,"x_min":42,"x_max":1053,"o":"m 549 -10 q 294 56 410 -10 q 110 236 178 121 q 42 496 42 351 q 110 756 42 640 q 294 935 178 871 q 549 1000 410 1000 q 803 935 688 1000 q 985 756 918 871 q 1053 496 1053 640 q 985 236 1053 351 q 802 56 918 121 q 549 -10 686 -10 m 549 278 q 690 337 640 278 q 740 496 740 396 q 690 656 740 597 q 549 715 640 715 q 406 656 456 715 q 356 496 356 597 q 406 337 356 396 q 549 278 456 278 m 390 1065 q 306 1099 340 1065 q 272 1183 272 1133 q 306 1269 272 1235 q 390 1304 340 1304 q 477 1270 443 1304 q 511 1183 511 1236 q 476 1099 511 1133 q 390 1065 442 1065 m 703 1065 q 619 1099 653 1065 q 585 1183 585 1133 q 619 1269 585 1235 q 703 1304 653 1304 q 790 1270 756 1304 q 824 1183 824 1236 q 789 1099 824 1133 q 703 1065 754 1065 z "},"×":{"ha":807,"x_min":28,"x_max":779,"o":"m 575 108 l 399 283 l 226 110 l 28 307 l 200 482 l 33 649 l 238 850 l 401 686 l 564 850 l 764 653 l 600 488 l 779 310 l 575 108 z "},"Ø":{"ha":1094,"x_min":25,"x_max":1068,"o":"m 929 833 q 1019 681 988 767 q 1051 496 1051 594 q 984 236 1051 351 q 801 56 917 121 q 547 -10 685 -10 q 392 13 467 -10 q 256 78 318 36 l 186 1 l 25 1 l 165 157 q 73 310 106 224 q 40 496 40 397 q 108 756 40 640 q 292 935 176 871 q 547 1000 408 1000 q 840 913 708 1000 l 908 989 l 1068 989 l 929 833 m 354 496 q 372 390 354 435 l 643 693 q 547 715 601 715 q 404 656 454 715 q 354 496 354 597 m 739 496 q 721 601 739 557 l 451 299 q 547 278 493 278 q 689 337 639 278 q 739 496 739 396 z "},"Ù":{"ha":999,"x_min":64,"x_max":935,"o":"m 371 983 l 371 429 q 401 322 371 361 q 497 282 431 282 q 596 322 564 282 q 628 429 628 361 l 628 983 l 935 983 l 935 429 q 876 190 935 289 q 717 40 818 90 q 490 -10 615 -10 q 269 40 365 -10 q 118 189 172 90 q 64 429 64 288 l 64 983 l 371 983 m 678 1246 l 678 1040 l 318 1171 l 318 1399 l 678 1246 z "},"Ú":{"ha":999,"x_min":64,"x_max":935,"o":"m 371 983 l 371 429 q 401 322 371 361 q 497 282 431 282 q 596 322 564 282 q 628 429 628 361 l 628 983 l 935 983 l 935 429 q 876 190 935 289 q 717 40 818 90 q 490 -10 615 -10 q 269 40 365 -10 q 118 189 172 90 q 64 429 64 288 l 64 983 l 371 983 m 678 1171 l 318 1040 l 318 1246 l 678 1399 l 678 1171 z "},"Û":{"ha":999,"x_min":64,"x_max":935,"o":"m 371 983 l 371 429 q 401 322 371 361 q 497 282 431 282 q 596 322 564 282 q 628 429 628 361 l 628 983 l 935 983 l 935 429 q 876 190 935 289 q 717 40 818 90 q 490 -10 615 -10 q 269 40 365 -10 q 118 189 172 90 q 64 429 64 288 l 64 983 l 371 983 m 500 1149 l 269 1040 l 269 1240 l 500 1344 l 729 1240 l 729 1040 l 500 1149 z "},"Ü":{"ha":999,"x_min":64,"x_max":935,"o":"m 371 983 l 371 429 q 401 322 371 361 q 497 282 431 282 q 596 322 564 282 q 628 429 628 361 l 628 983 l 935 983 l 935 429 q 876 190 935 289 q 717 40 818 90 q 490 -10 615 -10 q 269 40 365 -10 q 118 189 172 90 q 64 429 64 288 l 64 983 l 371 983 m 342 1065 q 258 1099 292 1065 q 224 1183 224 1133 q 258 1269 224 1235 q 342 1304 292 1304 q 428 1270 394 1304 q 463 1183 463 1236 q 428 1099 463 1133 q 342 1065 393 1065 m 654 1065 q 570 1099 604 1065 q 536 1183 536 1133 q 570 1269 536 1235 q 654 1304 604 1304 q 741 1270 707 1304 q 775 1183 775 1236 q 740 1099 775 1133 q 654 1065 706 1065 z "},"Ý":{"ha":1014,"x_min":0,"x_max":1014,"o":"m 1014 983 l 661 299 l 661 0 l 353 0 l 353 299 l 0 983 l 353 983 l 510 635 l 667 983 l 1014 983 m 686 1171 l 326 1040 l 326 1246 l 686 1399 l 686 1171 z "},"Þ":{"ha":901,"x_min":69,"x_max":874,"o":"m 874 493 q 831 331 874 404 q 703 216 788 258 q 500 174 619 174 l 378 174 l 378 0 l 69 0 l 69 983 l 375 983 l 375 817 l 500 817 q 777 728 681 817 q 874 493 874 640 m 465 403 q 561 493 561 403 q 465 583 561 583 l 378 583 l 378 403 l 465 403 z "},"ß":{"ha":1132,"x_min":61,"x_max":1071,"o":"m 61 707 q 119 895 61 815 q 276 1017 176 975 q 500 1060 375 1060 q 694 1025 607 1060 q 831 930 781 990 q 881 794 881 869 q 857 698 881 739 q 794 611 833 657 q 769 578 781 594 q 758 553 758 563 q 778 524 758 538 q 869 481 797 510 q 1025 384 979 436 q 1071 249 1071 332 q 1030 111 1071 171 q 917 19 989 51 q 750 -14 844 -14 q 512 56 601 -14 q 397 261 422 126 l 667 261 q 696 216 675 233 q 742 199 717 199 q 772 208 761 199 q 783 235 783 218 q 763 269 783 254 q 678 310 743 285 q 503 398 553 357 q 453 497 453 439 q 471 565 453 533 q 524 643 489 597 q 563 696 550 674 q 576 738 576 718 q 550 787 576 768 q 481 806 524 806 q 398 775 429 806 q 367 693 367 744 l 367 0 l 61 0 l 61 707 z "},"à":{"ha":944,"x_min":28,"x_max":875,"o":"m 28 392 q 70 606 28 515 q 186 745 113 697 q 351 793 260 793 q 483 762 428 793 q 568 676 539 731 l 568 783 l 875 783 l 875 0 l 568 0 l 568 107 q 483 22 539 53 q 351 -10 428 -10 q 186 38 260 -10 q 70 177 113 86 q 28 392 28 268 m 568 392 q 536 489 568 454 q 454 524 504 524 q 372 489 404 524 q 340 392 340 454 q 372 294 340 329 q 454 260 404 260 q 536 294 504 260 q 568 392 568 329 m 660 1042 l 660 836 l 300 967 l 300 1194 l 660 1042 z "},"á":{"ha":944,"x_min":28,"x_max":875,"o":"m 28 392 q 70 606 28 515 q 186 745 113 697 q 351 793 260 793 q 483 762 428 793 q 568 676 539 731 l 568 783 l 875 783 l 875 0 l 568 0 l 568 107 q 483 22 539 53 q 351 -10 428 -10 q 186 38 260 -10 q 70 177 113 86 q 28 392 28 268 m 568 392 q 536 489 568 454 q 454 524 504 524 q 372 489 404 524 q 340 392 340 454 q 372 294 340 329 q 454 260 404 260 q 536 294 504 260 q 568 392 568 329 m 660 967 l 300 836 l 300 1042 l 660 1194 l 660 967 z "},"â":{"ha":944,"x_min":28,"x_max":875,"o":"m 28 392 q 70 606 28 515 q 186 745 113 697 q 351 793 260 793 q 483 762 428 793 q 568 676 539 731 l 568 783 l 875 783 l 875 0 l 568 0 l 568 107 q 483 22 539 53 q 351 -10 428 -10 q 186 38 260 -10 q 70 177 113 86 q 28 392 28 268 m 568 392 q 536 489 568 454 q 454 524 504 524 q 372 489 404 524 q 340 392 340 454 q 372 294 340 329 q 454 260 404 260 q 536 294 504 260 q 568 392 568 329 m 482 944 l 251 836 l 251 1036 l 482 1140 l 711 1036 l 711 836 l 482 944 z "},"ã":{"ha":944,"x_min":28,"x_max":875,"o":"m 28 392 q 70 606 28 515 q 186 745 113 697 q 351 793 260 793 q 483 762 428 793 q 568 676 539 731 l 568 783 l 875 783 l 875 0 l 568 0 l 568 107 q 483 22 539 53 q 351 -10 428 -10 q 186 38 260 -10 q 70 177 113 86 q 28 392 28 268 m 568 392 q 536 489 568 454 q 454 524 504 524 q 372 489 404 524 q 340 392 340 454 q 372 294 340 329 q 454 260 404 260 q 536 294 504 260 q 568 392 568 329 m 157 836 q 235 1023 179 965 q 381 1081 292 1081 q 443 1071 414 1081 q 506 1043 472 1061 q 548 1023 532 1029 q 581 1017 564 1017 q 642 1082 632 1017 l 793 1082 q 715 896 771 953 q 569 839 658 839 q 507 849 536 839 q 444 876 478 858 q 406 894 425 886 q 369 901 386 901 q 307 836 319 901 l 157 836 z "},"ä":{"ha":944,"x_min":28,"x_max":875,"o":"m 28 392 q 70 606 28 515 q 186 745 113 697 q 351 793 260 793 q 483 762 428 793 q 568 676 539 731 l 568 783 l 875 783 l 875 0 l 568 0 l 568 107 q 483 22 539 53 q 351 -10 428 -10 q 186 38 260 -10 q 70 177 113 86 q 28 392 28 268 m 568 392 q 536 489 568 454 q 454 524 504 524 q 372 489 404 524 q 340 392 340 454 q 372 294 340 329 q 454 260 404 260 q 536 294 504 260 q 568 392 568 329 m 324 861 q 240 895 274 861 q 206 979 206 929 q 240 1065 206 1031 q 324 1100 274 1100 q 410 1066 376 1100 q 444 979 444 1032 q 410 895 444 929 q 324 861 375 861 m 636 861 q 552 895 586 861 q 518 979 518 929 q 552 1065 518 1031 q 636 1100 586 1100 q 723 1066 689 1100 q 757 979 757 1032 q 722 895 757 929 q 636 861 688 861 z "},"å":{"ha":944,"x_min":28,"x_max":875,"o":"m 28 392 q 70 606 28 515 q 186 745 113 697 q 351 793 260 793 q 483 762 428 793 q 568 676 539 731 l 568 783 l 875 783 l 875 0 l 568 0 l 568 107 q 483 22 539 53 q 351 -10 428 -10 q 186 38 260 -10 q 70 177 113 86 q 28 392 28 268 m 568 392 q 536 489 568 454 q 454 524 504 524 q 372 489 404 524 q 340 392 340 454 q 372 294 340 329 q 454 260 404 260 q 536 294 504 260 q 568 392 568 329 m 665 1007 q 613 874 665 924 q 482 824 560 824 q 351 874 404 824 q 299 1007 299 924 q 351 1140 299 1090 q 482 1190 404 1190 q 613 1140 560 1190 q 665 1007 665 1090 m 546 1007 q 528 1054 546 1036 q 482 1072 510 1072 q 436 1054 454 1072 q 418 1007 418 1036 q 436 960 418 978 q 482 942 454 942 q 528 960 510 942 q 546 1007 546 978 z "},"æ":{"ha":1464,"x_min":28,"x_max":1436,"o":"m 1436 399 q 1429 338 1436 369 l 886 338 q 922 256 893 279 q 996 232 950 232 q 1093 282 1071 232 l 1419 282 q 1310 72 1394 154 q 1106 -10 1225 -10 q 963 21 1022 -10 q 875 107 904 51 l 875 0 l 568 0 l 568 107 q 483 22 539 53 q 351 -10 428 -10 q 186 38 260 -10 q 70 177 113 86 q 28 392 28 268 q 70 606 28 515 q 186 745 113 697 q 351 793 260 793 q 483 762 428 793 q 568 676 539 731 l 568 783 l 875 783 l 875 676 q 963 763 903 732 q 1106 793 1022 793 q 1277 745 1203 793 q 1394 608 1351 697 q 1436 399 1436 519 m 1124 464 q 1090 529 1124 507 q 1006 551 1057 551 q 888 464 906 551 l 1124 464 m 454 260 q 536 294 504 260 q 568 392 568 329 q 536 489 568 454 q 454 524 504 524 q 372 489 404 524 q 340 392 340 454 q 372 294 340 329 q 454 260 404 260 z "},"ç":{"ha":846,"x_min":28,"x_max":818,"o":"m 421 254 q 492 315 474 254 l 818 315 q 715 104 794 186 q 518 -1 636 22 l 518 -47 q 599 -63 557 -47 q 669 -117 640 -79 q 699 -217 699 -156 q 636 -347 699 -307 q 490 -386 574 -386 l 250 -386 l 250 -229 l 458 -229 q 485 -223 475 -229 q 494 -207 494 -217 q 458 -186 494 -186 l 340 -186 l 340 -3 q 113 126 197 22 q 28 392 28 231 q 78 605 28 514 q 220 744 129 696 q 428 793 311 793 q 685 707 581 793 q 818 468 790 621 l 492 468 q 421 529 474 529 q 362 494 383 529 q 340 392 340 460 q 362 289 340 324 q 421 254 383 254 z "},"è":{"ha":856,"x_min":28,"x_max":828,"o":"m 828 399 q 824 338 828 367 l 328 338 q 413 236 335 236 q 485 282 463 236 l 811 282 q 741 133 794 199 q 606 28 688 67 q 428 -10 525 -10 q 220 39 311 -10 q 78 178 129 88 q 28 392 28 269 q 78 605 28 514 q 220 744 129 696 q 428 793 311 793 q 635 745 544 793 q 777 608 726 697 q 828 399 828 519 m 515 472 q 490 531 515 511 q 428 551 465 551 q 332 472 346 551 l 515 472 m 606 1051 l 606 846 l 246 976 l 246 1204 l 606 1051 z "},"é":{"ha":856,"x_min":28,"x_max":828,"o":"m 828 399 q 824 338 828 367 l 328 338 q 413 236 335 236 q 485 282 463 236 l 811 282 q 741 133 794 199 q 606 28 688 67 q 428 -10 525 -10 q 220 39 311 -10 q 78 178 129 88 q 28 392 28 269 q 78 605 28 514 q 220 744 129 696 q 428 793 311 793 q 635 745 544 793 q 777 608 726 697 q 828 399 828 519 m 515 472 q 490 531 515 511 q 428 551 465 551 q 332 472 346 551 l 515 472 m 606 976 l 246 846 l 246 1051 l 606 1204 l 606 976 z "},"ê":{"ha":856,"x_min":28,"x_max":828,"o":"m 828 399 q 824 338 828 367 l 328 338 q 413 236 335 236 q 485 282 463 236 l 811 282 q 741 133 794 199 q 606 28 688 67 q 428 -10 525 -10 q 220 39 311 -10 q 78 178 129 88 q 28 392 28 269 q 78 605 28 514 q 220 744 129 696 q 428 793 311 793 q 635 745 544 793 q 777 608 726 697 q 828 399 828 519 m 515 472 q 490 531 515 511 q 428 551 465 551 q 332 472 346 551 l 515 472 m 428 954 l 197 846 l 197 1046 l 428 1150 l 657 1046 l 657 846 l 428 954 z "},"ë":{"ha":856,"x_min":28,"x_max":828,"o":"m 828 399 q 824 338 828 367 l 328 338 q 413 236 335 236 q 485 282 463 236 l 811 282 q 741 133 794 199 q 606 28 688 67 q 428 -10 525 -10 q 220 39 311 -10 q 78 178 129 88 q 28 392 28 269 q 78 605 28 514 q 220 744 129 696 q 428 793 311 793 q 635 745 544 793 q 777 608 726 697 q 828 399 828 519 m 515 472 q 490 531 515 511 q 428 551 465 551 q 332 472 346 551 l 515 472 m 269 871 q 185 905 219 871 q 151 989 151 939 q 185 1075 151 1040 q 269 1110 219 1110 q 356 1076 322 1110 q 390 989 390 1042 q 356 905 390 939 q 269 871 321 871 m 582 871 q 498 905 532 871 q 464 989 464 939 q 498 1075 464 1040 q 582 1110 532 1110 q 669 1076 635 1110 q 703 989 703 1042 q 668 905 703 939 q 582 871 633 871 z "},"ì":{"ha":517,"x_min":78,"x_max":438,"o":"m 413 783 l 413 0 l 104 0 l 104 783 l 413 783 m 438 1042 l 438 836 l 78 967 l 78 1194 l 438 1042 z "},"í":{"ha":517,"x_min":78,"x_max":438,"o":"m 413 783 l 413 0 l 104 0 l 104 783 l 413 783 m 438 967 l 78 836 l 78 1042 l 438 1194 l 438 967 z "},"î":{"ha":517,"x_min":29,"x_max":489,"o":"m 413 783 l 413 0 l 104 0 l 104 783 l 413 783 m 260 944 l 29 836 l 29 1036 l 260 1140 l 489 1036 l 489 836 l 260 944 z "},"ï":{"ha":517,"x_min":-17,"x_max":535,"o":"m 413 783 l 413 0 l 104 0 l 104 783 l 413 783 m 101 861 q 17 895 51 861 q -17 979 -17 929 q 17 1065 -17 1031 q 101 1100 51 1100 q 188 1066 154 1100 q 222 979 222 1032 q 188 895 222 929 q 101 861 153 861 m 414 861 q 330 895 364 861 q 296 979 296 929 q 330 1065 296 1031 q 414 1100 364 1100 q 501 1066 467 1100 q 535 979 535 1032 q 500 895 535 929 q 414 861 465 861 z "},"ð":{"ha":893,"x_min":28,"x_max":865,"o":"m 706 913 q 822 684 779 807 q 865 440 865 561 q 810 197 865 299 q 663 44 756 96 q 456 -8 569 -8 q 242 41 340 -8 q 86 182 144 90 q 28 394 28 274 q 79 604 28 515 q 219 741 131 693 q 418 789 308 789 q 528 778 464 789 q 486 850 514 807 l 367 817 l 367 917 l 428 935 q 343 1028 383 992 l 611 1028 l 642 994 l 735 1021 l 735 921 l 706 913 m 456 258 q 524 290 496 258 q 551 392 551 322 q 520 492 551 460 q 450 524 489 524 q 374 492 407 524 q 342 392 342 460 q 378 291 342 324 q 456 258 414 258 z "},"ñ":{"ha":968,"x_min":69,"x_max":904,"o":"m 618 789 q 828 699 753 789 q 904 454 904 608 l 904 0 l 597 0 l 597 415 q 567 503 597 471 q 488 536 538 536 q 407 503 436 536 q 378 415 378 471 l 378 0 l 69 0 l 69 783 l 378 783 l 378 664 q 474 754 414 719 q 618 789 535 789 m 208 836 q 287 1023 231 965 q 432 1081 343 1081 q 494 1071 465 1081 q 557 1043 524 1061 q 599 1023 583 1029 q 632 1017 615 1017 q 693 1082 683 1017 l 844 1082 q 766 896 822 953 q 621 839 710 839 q 558 849 588 839 q 496 876 529 858 q 457 894 476 886 q 421 901 438 901 q 358 836 371 901 l 208 836 z "},"ò":{"ha":883,"x_min":28,"x_max":856,"o":"m 442 -10 q 229 39 324 -10 q 81 178 135 88 q 28 392 28 269 q 81 605 28 514 q 229 744 135 696 q 442 793 324 793 q 654 744 560 793 q 802 605 749 696 q 856 392 856 514 q 802 178 856 269 q 654 39 749 88 q 442 -10 560 -10 m 442 257 q 514 291 485 257 q 543 392 543 325 q 514 492 543 458 q 442 526 485 526 q 369 492 399 526 q 340 392 340 458 q 369 291 340 325 q 442 257 397 257 m 654 1042 l 654 836 l 294 967 l 294 1194 l 654 1042 z "},"ó":{"ha":883,"x_min":28,"x_max":856,"o":"m 442 -10 q 229 39 324 -10 q 81 178 135 88 q 28 392 28 269 q 81 605 28 514 q 229 744 135 696 q 442 793 324 793 q 654 744 560 793 q 802 605 749 696 q 856 392 856 514 q 802 178 856 269 q 654 39 749 88 q 442 -10 560 -10 m 442 257 q 514 291 485 257 q 543 392 543 325 q 514 492 543 458 q 442 526 485 526 q 369 492 399 526 q 340 392 340 458 q 369 291 340 325 q 442 257 397 257 m 654 967 l 294 836 l 294 1042 l 654 1194 l 654 967 z "},"ô":{"ha":883,"x_min":28,"x_max":856,"o":"m 442 -10 q 229 39 324 -10 q 81 178 135 88 q 28 392 28 269 q 81 605 28 514 q 229 744 135 696 q 442 793 324 793 q 654 744 560 793 q 802 605 749 696 q 856 392 856 514 q 802 178 856 269 q 654 39 749 88 q 442 -10 560 -10 m 442 257 q 514 291 485 257 q 543 392 543 325 q 514 492 543 458 q 442 526 485 526 q 369 492 399 526 q 340 392 340 458 q 369 291 340 325 q 442 257 397 257 m 476 944 l 246 836 l 246 1036 l 476 1140 l 706 1036 l 706 836 l 476 944 z "},"õ":{"ha":883,"x_min":28,"x_max":856,"o":"m 442 -10 q 229 39 324 -10 q 81 178 135 88 q 28 392 28 269 q 81 605 28 514 q 229 744 135 696 q 442 793 324 793 q 654 744 560 793 q 802 605 749 696 q 856 392 856 514 q 802 178 856 269 q 654 39 749 88 q 442 -10 560 -10 m 442 257 q 514 291 485 257 q 543 392 543 325 q 514 492 543 458 q 442 526 485 526 q 369 492 399 526 q 340 392 340 458 q 369 291 340 325 q 442 257 397 257 m 151 836 q 230 1023 174 965 q 375 1081 286 1081 q 438 1071 408 1081 q 500 1043 467 1061 q 542 1023 526 1029 q 575 1017 558 1017 q 636 1082 626 1017 l 788 1082 q 709 896 765 953 q 564 839 653 839 q 501 849 531 839 q 439 876 472 858 q 400 894 419 886 q 364 901 381 901 q 301 836 314 901 l 151 836 z "},"ö":{"ha":883,"x_min":28,"x_max":856,"o":"m 442 -10 q 229 39 324 -10 q 81 178 135 88 q 28 392 28 269 q 81 605 28 514 q 229 744 135 696 q 442 793 324 793 q 654 744 560 793 q 802 605 749 696 q 856 392 856 514 q 802 178 856 269 q 654 39 749 88 q 442 -10 560 -10 m 442 257 q 514 291 485 257 q 543 392 543 325 q 514 492 543 458 q 442 526 485 526 q 369 492 399 526 q 340 392 340 458 q 369 291 340 325 q 442 257 397 257 m 318 861 q 234 895 268 861 q 200 979 200 929 q 234 1065 200 1031 q 318 1100 268 1100 q 405 1066 371 1100 q 439 979 439 1032 q 404 895 439 929 q 318 861 369 861 m 631 861 q 547 895 581 861 q 513 979 513 929 q 547 1065 513 1031 q 631 1100 581 1100 q 717 1066 683 1100 q 751 979 751 1032 q 717 895 751 929 q 631 861 682 861 z "},"÷":{"ha":765,"x_min":28,"x_max":738,"o":"m 389 649 q 260 692 308 649 q 211 800 211 735 q 260 910 211 867 q 389 954 308 954 q 517 910 468 954 q 565 800 565 867 q 517 692 565 735 q 389 649 468 649 m 738 613 l 738 333 l 28 333 l 28 613 l 738 613 m 389 -11 q 260 32 308 -11 q 211 140 211 75 q 260 251 211 207 q 389 294 308 294 q 517 251 468 294 q 565 140 565 207 q 517 32 565 75 q 389 -11 468 -11 z "},"ø":{"ha":863,"x_min":0,"x_max":863,"o":"m 750 661 q 844 392 844 554 q 791 178 844 269 q 643 39 738 88 q 431 -10 549 -10 q 192 54 294 -10 l 143 0 l 0 0 l 111 121 q 17 392 17 228 q 70 605 17 514 q 218 744 124 696 q 431 793 313 793 q 669 729 567 793 l 719 783 l 863 783 l 750 661 m 329 392 q 331 361 329 371 l 474 517 q 431 526 456 526 q 358 492 388 526 q 329 392 329 458 m 532 392 q 531 421 532 413 l 388 267 q 431 257 407 257 q 503 291 474 257 q 532 392 532 325 z "},"ù":{"ha":968,"x_min":64,"x_max":899,"o":"m 899 783 l 899 0 l 590 0 l 590 119 q 494 29 554 64 q 350 -6 433 -6 q 140 85 215 -6 q 64 329 64 175 l 64 783 l 371 783 l 371 368 q 401 280 371 313 q 481 247 431 247 q 561 280 532 247 q 590 368 590 313 l 590 783 l 899 783 m 663 1042 l 663 836 l 303 967 l 303 1194 l 663 1042 z "},"ú":{"ha":968,"x_min":64,"x_max":899,"o":"m 899 783 l 899 0 l 590 0 l 590 119 q 494 29 554 64 q 350 -6 433 -6 q 140 85 215 -6 q 64 329 64 175 l 64 783 l 371 783 l 371 368 q 401 280 371 313 q 481 247 431 247 q 561 280 532 247 q 590 368 590 313 l 590 783 l 899 783 m 663 967 l 303 836 l 303 1042 l 663 1194 l 663 967 z "},"û":{"ha":968,"x_min":64,"x_max":899,"o":"m 899 783 l 899 0 l 590 0 l 590 119 q 494 29 554 64 q 350 -6 433 -6 q 140 85 215 -6 q 64 329 64 175 l 64 783 l 371 783 l 371 368 q 401 280 371 313 q 481 247 431 247 q 561 280 532 247 q 590 368 590 313 l 590 783 l 899 783 m 485 944 l 254 836 l 254 1036 l 485 1140 l 714 1036 l 714 836 l 485 944 z "},"ü":{"ha":968,"x_min":64,"x_max":899,"o":"m 899 783 l 899 0 l 590 0 l 590 119 q 494 29 554 64 q 350 -6 433 -6 q 140 85 215 -6 q 64 329 64 175 l 64 783 l 371 783 l 371 368 q 401 280 371 313 q 481 247 431 247 q 561 280 532 247 q 590 368 590 313 l 590 783 l 899 783 m 326 861 q 242 895 276 861 q 208 979 208 929 q 242 1065 208 1031 q 326 1100 276 1100 q 413 1066 379 1100 q 447 979 447 1032 q 413 895 447 929 q 326 861 378 861 m 639 861 q 555 895 589 861 q 521 979 521 929 q 555 1065 521 1031 q 639 1100 589 1100 q 726 1066 692 1100 q 760 979 760 1032 q 725 895 760 929 q 639 861 690 861 z "},"ý":{"ha":940,"x_min":-14,"x_max":954,"o":"m 954 783 l 453 -375 l 115 -375 l 313 39 l -14 783 l 329 783 l 476 386 l 614 783 l 954 783 m 649 967 l 289 836 l 289 1042 l 649 1194 l 649 967 z "},"þ":{"ha":944,"x_min":69,"x_max":917,"o":"m 378 714 q 461 772 415 754 q 571 789 507 789 q 743 737 664 789 q 869 593 822 685 q 917 386 917 501 q 869 181 917 271 q 743 42 822 92 q 571 -8 664 -8 q 464 15 510 -8 q 378 86 418 38 l 378 -375 l 69 -375 l 69 1028 l 378 1028 l 378 714 m 604 386 q 569 488 604 454 q 492 522 533 522 q 413 491 449 522 q 378 392 378 460 q 413 292 378 324 q 492 260 449 260 q 569 289 535 260 q 604 386 604 318 z "},"ÿ":{"ha":940,"x_min":-14,"x_max":954,"o":"m 954 783 l 453 -375 l 115 -375 l 313 39 l -14 783 l 329 783 l 476 386 l 614 783 l 954 783 m 313 861 q 228 895 263 861 q 194 979 194 929 q 228 1065 194 1031 q 313 1100 263 1100 q 399 1066 365 1100 q 433 979 433 1032 q 399 895 433 929 q 313 861 364 861 m 625 861 q 541 895 575 861 q 507 979 507 929 q 541 1065 507 1031 q 625 1100 575 1100 q 712 1066 678 1100 q 746 979 746 1032 q 711 895 746 929 q 625 861 676 861 z "},"Ā":{"ha":1074,"x_min":0,"x_max":1074,"o":"m 700 149 l 372 149 l 324 0 l 0 0 l 360 983 l 715 983 l 1074 0 l 749 0 l 700 149 m 625 381 l 536 654 l 447 381 l 625 381 m 838 1272 l 838 1068 l 239 1068 l 239 1272 l 838 1272 z "},"ā":{"ha":944,"x_min":28,"x_max":875,"o":"m 28 392 q 70 606 28 515 q 186 745 113 697 q 351 793 260 793 q 483 762 428 793 q 568 676 539 731 l 568 783 l 875 783 l 875 0 l 568 0 l 568 107 q 483 22 539 53 q 351 -10 428 -10 q 186 38 260 -10 q 70 177 113 86 q 28 392 28 268 m 568 392 q 536 489 568 454 q 454 524 504 524 q 372 489 404 524 q 340 392 340 454 q 372 294 340 329 q 454 260 404 260 q 536 294 504 260 q 568 392 568 329 m 782 1068 l 782 864 l 183 864 l 183 1068 l 782 1068 z "},"Ă":{"ha":1074,"x_min":0,"x_max":1074,"o":"m 700 149 l 372 149 l 324 0 l 0 0 l 360 983 l 715 983 l 1074 0 l 749 0 l 700 149 m 625 381 l 536 654 l 447 381 l 625 381 m 799 1319 q 726 1110 799 1182 q 538 1038 653 1038 q 349 1110 422 1038 q 276 1319 276 1182 l 276 1343 l 419 1343 q 446 1278 419 1300 q 538 1257 472 1257 q 629 1278 603 1257 q 656 1343 656 1300 l 799 1343 l 799 1319 z "},"ă":{"ha":944,"x_min":28,"x_max":875,"o":"m 28 392 q 70 606 28 515 q 186 745 113 697 q 351 793 260 793 q 483 762 428 793 q 568 676 539 731 l 568 783 l 875 783 l 875 0 l 568 0 l 568 107 q 483 22 539 53 q 351 -10 428 -10 q 186 38 260 -10 q 70 177 113 86 q 28 392 28 268 m 568 392 q 536 489 568 454 q 454 524 504 524 q 372 489 404 524 q 340 392 340 454 q 372 294 340 329 q 454 260 404 260 q 536 294 504 260 q 568 392 568 329 m 743 1115 q 670 906 743 978 q 482 833 597 833 q 294 906 367 833 q 221 1115 221 978 l 221 1139 l 364 1139 q 390 1074 364 1096 q 482 1053 417 1053 q 574 1074 547 1053 q 600 1139 600 1096 l 743 1139 l 743 1115 z "},"Ą":{"ha":1074,"x_min":0,"x_max":1074,"o":"m 908 -114 q 960 -149 908 -149 q 1074 -126 1007 -149 l 1074 -287 q 915 -310 1000 -310 q 752 -264 811 -310 q 693 -135 693 -218 q 706 -63 693 -96 q 749 0 718 -31 l 700 149 l 372 149 l 324 0 l 0 0 l 360 983 l 715 983 l 1074 0 l 1013 -26 q 931 -74 953 -53 q 908 -114 908 -94 m 625 381 l 536 654 l 447 381 l 625 381 z "},"ą":{"ha":944,"x_min":28,"x_max":875,"o":"m 815 -29 q 734 -78 758 -57 q 710 -119 710 -99 q 722 -140 710 -132 q 757 -149 735 -149 q 875 -126 808 -149 l 875 -287 q 718 -310 801 -310 q 554 -265 614 -310 q 494 -143 494 -221 q 511 -67 494 -101 q 568 3 528 -32 l 568 107 q 483 22 539 53 q 351 -10 428 -10 q 186 38 260 -10 q 70 177 113 86 q 28 392 28 268 q 70 606 28 515 q 186 745 113 697 q 351 793 260 793 q 483 762 428 793 q 568 676 539 731 l 568 783 l 875 783 l 875 0 l 815 -29 m 454 260 q 536 294 504 260 q 568 392 568 329 q 536 489 568 454 q 454 524 504 524 q 372 489 404 524 q 340 392 340 454 q 372 294 340 329 q 454 260 404 260 z "},"Ć":{"ha":1046,"x_min":42,"x_max":1004,"o":"m 42 493 q 101 753 42 639 q 269 930 160 867 q 528 993 379 993 q 756 945 656 993 q 920 810 857 897 q 1004 606 983 722 l 679 606 q 616 681 657 654 q 522 708 575 708 q 399 650 444 708 q 354 493 354 592 q 399 336 354 394 q 522 278 444 278 q 616 305 575 278 q 679 381 657 332 l 1004 381 q 920 176 983 264 q 756 41 857 89 q 528 -7 656 -7 q 269 56 379 -7 q 101 233 160 119 q 42 493 42 347 m 701 1171 l 342 1040 l 342 1246 l 701 1399 l 701 1171 z "},"ć":{"ha":846,"x_min":28,"x_max":818,"o":"m 28 392 q 78 605 28 514 q 220 744 129 696 q 428 793 311 793 q 685 707 581 793 q 818 468 790 621 l 492 468 q 421 529 474 529 q 362 494 383 529 q 340 392 340 460 q 362 289 340 324 q 421 254 383 254 q 492 315 474 254 l 818 315 q 685 76 790 163 q 428 -10 581 -10 q 220 39 311 -10 q 78 178 129 88 q 28 392 28 269 m 593 967 l 233 836 l 233 1042 l 593 1194 l 593 967 z "},"Ċ":{"ha":1046,"x_min":42,"x_max":1004,"o":"m 42 493 q 101 753 42 639 q 269 930 160 867 q 528 993 379 993 q 756 945 656 993 q 920 810 857 897 q 1004 606 983 722 l 679 606 q 616 681 657 654 q 522 708 575 708 q 399 650 444 708 q 354 493 354 592 q 399 336 354 394 q 522 278 444 278 q 616 305 575 278 q 679 381 657 332 l 1004 381 q 920 176 983 264 q 756 41 857 89 q 528 -7 656 -7 q 269 56 379 -7 q 101 233 160 119 q 42 493 42 347 m 521 1065 q 437 1099 471 1065 q 403 1183 403 1133 q 437 1269 403 1235 q 521 1304 471 1304 q 608 1270 574 1304 q 642 1183 642 1236 q 607 1099 642 1133 q 521 1065 572 1065 z "},"ċ":{"ha":846,"x_min":28,"x_max":818,"o":"m 28 392 q 78 605 28 514 q 220 744 129 696 q 428 793 311 793 q 685 707 581 793 q 818 468 790 621 l 492 468 q 421 529 474 529 q 362 494 383 529 q 340 392 340 460 q 362 289 340 324 q 421 254 383 254 q 492 315 474 254 l 818 315 q 685 76 790 163 q 428 -10 581 -10 q 220 39 311 -10 q 78 178 129 88 q 28 392 28 269 m 413 861 q 328 895 363 861 q 294 979 294 929 q 328 1065 294 1031 q 413 1100 363 1100 q 499 1066 465 1100 q 533 979 533 1032 q 499 895 533 929 q 413 861 464 861 z "},"Č":{"ha":1046,"x_min":42,"x_max":1004,"o":"m 42 493 q 101 753 42 639 q 269 930 160 867 q 528 993 379 993 q 756 945 656 993 q 920 810 857 897 q 1004 606 983 722 l 679 606 q 616 681 657 654 q 522 708 575 708 q 399 650 444 708 q 354 493 354 592 q 399 336 354 394 q 522 278 444 278 q 616 305 575 278 q 679 381 657 332 l 1004 381 q 920 176 983 264 q 756 41 857 89 q 528 -7 656 -7 q 269 56 379 -7 q 101 233 160 119 q 42 493 42 347 m 753 1144 l 524 1040 l 293 1144 l 293 1344 l 524 1222 l 753 1344 l 753 1144 z "},"č":{"ha":846,"x_min":28,"x_max":818,"o":"m 28 392 q 78 605 28 514 q 220 744 129 696 q 428 793 311 793 q 685 707 581 793 q 818 468 790 621 l 492 468 q 421 529 474 529 q 362 494 383 529 q 340 392 340 460 q 362 289 340 324 q 421 254 383 254 q 492 315 474 254 l 818 315 q 685 76 790 163 q 428 -10 581 -10 q 220 39 311 -10 q 78 178 129 88 q 28 392 28 269 m 644 940 l 415 836 l 185 940 l 185 1140 l 415 1018 l 644 1140 l 644 940 z "},"Ď":{"ha":1032,"x_min":69,"x_max":990,"o":"m 479 983 q 749 921 633 983 q 928 747 865 858 q 990 494 990 636 q 928 242 990 354 q 749 65 865 129 q 479 0 633 0 l 69 0 l 69 983 l 479 983 m 451 275 q 617 332 556 275 q 678 494 678 389 q 617 657 678 600 q 451 714 556 714 l 378 714 l 378 275 l 451 275 m 728 1144 l 499 1040 l 268 1144 l 268 1344 l 499 1222 l 728 1344 l 728 1144 z "},"ď":{"ha":1225,"x_min":28,"x_max":1211,"o":"m 28 392 q 70 606 28 515 q 186 745 113 697 q 351 793 260 793 q 483 762 428 793 q 567 676 538 731 l 567 1028 l 875 1028 l 875 0 l 567 0 l 567 107 q 483 22 538 53 q 351 -10 428 -10 q 186 38 260 -10 q 70 177 113 86 q 28 392 28 268 m 1175 1028 q 1211 842 1211 936 q 1153 665 1211 733 q 982 596 1094 596 l 982 706 q 1058 808 1058 706 l 1058 825 l 958 825 l 958 1028 l 1175 1028 m 568 392 q 536 489 568 454 q 454 524 504 524 q 372 489 404 524 q 340 392 340 454 q 372 294 340 329 q 454 260 404 260 q 536 294 504 260 q 568 392 568 329 z "},"Đ":{"ha":1032,"x_min":0,"x_max":990,"o":"m 479 983 q 749 921 633 983 q 928 747 865 858 q 990 494 990 636 q 928 242 990 354 q 749 65 865 129 q 479 0 633 0 l 69 0 l 69 372 l 0 372 l 0 617 l 69 617 l 69 983 l 479 983 m 451 275 q 617 332 556 275 q 678 494 678 389 q 617 657 678 600 q 451 714 556 714 l 378 714 l 378 617 l 558 617 l 558 372 l 378 372 l 378 275 l 451 275 z "},"đ":{"ha":978,"x_min":28,"x_max":964,"o":"m 964 822 l 875 822 l 875 0 l 567 0 l 567 107 q 483 22 538 53 q 351 -10 428 -10 q 186 38 260 -10 q 70 177 113 86 q 28 392 28 268 q 70 606 28 515 q 186 745 113 697 q 351 793 260 793 q 483 762 428 793 q 567 676 538 731 l 567 822 l 485 822 l 485 956 l 567 956 l 567 1028 l 875 1028 l 875 956 l 964 956 l 964 822 m 454 260 q 536 294 504 260 q 568 392 568 329 q 536 489 568 454 q 454 524 504 524 q 372 489 404 524 q 340 392 340 454 q 372 294 340 329 q 454 260 404 260 z "},"Ē":{"ha":772,"x_min":69,"x_max":725,"o":"m 378 738 l 378 617 l 683 617 l 683 385 l 378 385 l 378 246 l 725 246 l 725 0 l 69 0 l 69 983 l 725 983 l 725 738 l 378 738 m 692 1272 l 692 1068 l 93 1068 l 93 1272 l 692 1272 z "},"ē":{"ha":856,"x_min":28,"x_max":828,"o":"m 828 399 q 824 338 828 367 l 328 338 q 413 236 335 236 q 485 282 463 236 l 811 282 q 741 133 794 199 q 606 28 688 67 q 428 -10 525 -10 q 220 39 311 -10 q 78 178 129 88 q 28 392 28 269 q 78 605 28 514 q 220 744 129 696 q 428 793 311 793 q 635 745 544 793 q 777 608 726 697 q 828 399 828 519 m 515 472 q 490 531 515 511 q 428 551 465 551 q 332 472 346 551 l 515 472 m 728 1078 l 728 874 l 129 874 l 129 1078 l 728 1078 z "},"Ĕ":{"ha":772,"x_min":69,"x_max":725,"o":"m 378 738 l 378 617 l 683 617 l 683 385 l 378 385 l 378 246 l 725 246 l 725 0 l 69 0 l 69 983 l 725 983 l 725 738 l 378 738 m 653 1319 q 580 1110 653 1182 q 392 1038 507 1038 q 203 1110 276 1038 q 131 1319 131 1182 l 131 1343 l 274 1343 q 300 1278 274 1300 q 392 1257 326 1257 q 483 1278 457 1257 q 510 1343 510 1300 l 653 1343 l 653 1319 z "},"ĕ":{"ha":856,"x_min":28,"x_max":828,"o":"m 828 399 q 824 338 828 367 l 328 338 q 413 236 335 236 q 485 282 463 236 l 811 282 q 741 133 794 199 q 606 28 688 67 q 428 -10 525 -10 q 220 39 311 -10 q 78 178 129 88 q 28 392 28 269 q 78 605 28 514 q 220 744 129 696 q 428 793 311 793 q 635 745 544 793 q 777 608 726 697 q 828 399 828 519 m 515 472 q 490 531 515 511 q 428 551 465 551 q 332 472 346 551 l 515 472 m 689 1125 q 616 915 689 988 q 428 843 543 843 q 240 915 313 843 q 167 1125 167 988 l 167 1149 l 310 1149 q 336 1084 310 1106 q 428 1063 363 1063 q 519 1084 493 1063 q 546 1149 546 1106 l 689 1149 l 689 1125 z "},"Ė":{"ha":772,"x_min":69,"x_max":725,"o":"m 378 738 l 378 617 l 683 617 l 683 385 l 378 385 l 378 246 l 725 246 l 725 0 l 69 0 l 69 983 l 725 983 l 725 738 l 378 738 m 389 1065 q 305 1099 339 1065 q 271 1183 271 1133 q 305 1269 271 1235 q 389 1304 339 1304 q 476 1270 442 1304 q 510 1183 510 1236 q 475 1099 510 1133 q 389 1065 440 1065 z "},"ė":{"ha":856,"x_min":28,"x_max":828,"o":"m 828 399 q 824 338 828 367 l 328 338 q 413 236 335 236 q 485 282 463 236 l 811 282 q 741 133 794 199 q 606 28 688 67 q 428 -10 525 -10 q 220 39 311 -10 q 78 178 129 88 q 28 392 28 269 q 78 605 28 514 q 220 744 129 696 q 428 793 311 793 q 635 745 544 793 q 777 608 726 697 q 828 399 828 519 m 515 472 q 490 531 515 511 q 428 551 465 551 q 332 472 346 551 l 515 472 m 425 871 q 341 905 375 871 q 307 989 307 939 q 341 1075 307 1040 q 425 1110 375 1110 q 512 1076 478 1110 q 546 989 546 1042 q 511 905 546 939 q 425 871 476 871 z "},"Ę":{"ha":772,"x_min":69,"x_max":725,"o":"m 378 738 l 378 617 l 683 617 l 683 385 l 378 385 l 378 246 l 725 246 l 725 0 l 665 -29 q 584 -78 608 -57 q 560 -119 560 -99 q 572 -140 560 -132 q 607 -149 585 -149 q 725 -126 658 -149 l 725 -287 q 568 -310 651 -310 q 404 -265 464 -310 q 344 -143 344 -221 q 360 -67 344 -101 q 415 0 376 -33 l 69 0 l 69 983 l 725 983 l 725 738 l 378 738 z "},"ę":{"ha":856,"x_min":28,"x_max":828,"o":"m 828 399 q 824 338 828 367 l 328 338 q 413 236 335 236 q 485 282 463 236 l 811 282 q 724 112 792 185 q 556 8 656 39 l 500 -18 q 419 -67 443 -46 q 394 -108 394 -87 q 407 -129 394 -121 q 442 -137 419 -137 q 560 -115 493 -137 l 560 -276 q 403 -299 486 -299 q 239 -254 299 -299 q 179 -132 179 -210 q 198 -52 179 -89 q 261 19 217 -15 q 90 159 151 63 q 28 392 28 256 q 78 605 28 514 q 220 744 129 696 q 428 793 311 793 q 635 745 544 793 q 777 608 726 697 q 828 399 828 519 m 515 472 q 490 531 515 511 q 428 551 465 551 q 332 472 346 551 l 515 472 z "},"Ě":{"ha":772,"x_min":69,"x_max":725,"o":"m 378 738 l 378 617 l 683 617 l 683 385 l 378 385 l 378 246 l 725 246 l 725 0 l 69 0 l 69 983 l 725 983 l 725 738 l 378 738 m 621 1144 l 392 1040 l 161 1144 l 161 1344 l 392 1222 l 621 1344 l 621 1144 z "},"ě":{"ha":856,"x_min":28,"x_max":828,"o":"m 828 399 q 824 338 828 367 l 328 338 q 413 236 335 236 q 485 282 463 236 l 811 282 q 741 133 794 199 q 606 28 688 67 q 428 -10 525 -10 q 220 39 311 -10 q 78 178 129 88 q 28 392 28 269 q 78 605 28 514 q 220 744 129 696 q 428 793 311 793 q 635 745 544 793 q 777 608 726 697 q 828 399 828 519 m 515 472 q 490 531 515 511 q 428 551 465 551 q 332 472 346 551 l 515 472 m 657 950 l 428 846 l 197 950 l 197 1150 l 428 1028 l 657 1150 l 657 950 z "},"Ğ":{"ha":1044,"x_min":42,"x_max":1003,"o":"m 672 647 q 621 692 654 676 q 540 708 588 708 q 403 651 451 708 q 354 493 354 593 q 408 321 354 378 q 575 264 463 264 q 747 350 682 264 l 501 350 l 501 568 l 1003 568 l 1003 260 q 826 72 939 150 q 542 -7 714 -7 q 276 56 389 -7 q 102 233 163 119 q 42 493 42 347 q 102 753 42 639 q 275 930 163 867 q 539 993 388 993 q 853 900 732 993 q 997 647 975 807 l 672 647 m 785 1319 q 712 1110 785 1182 q 524 1038 639 1038 q 335 1110 408 1038 q 263 1319 263 1182 l 263 1343 l 406 1343 q 432 1278 406 1300 q 524 1257 458 1257 q 615 1278 589 1257 q 642 1343 642 1300 l 785 1343 l 785 1319 z "},"ğ":{"ha":944,"x_min":28,"x_max":875,"o":"m 351 793 q 483 762 428 793 q 568 676 539 731 l 568 783 l 875 783 l 875 14 q 835 -186 875 -96 q 705 -331 794 -276 q 475 -385 615 -385 q 176 -297 286 -385 q 50 -57 65 -208 l 353 -57 q 453 -118 365 -118 q 538 -90 507 -118 q 568 14 568 -62 l 568 107 q 483 22 539 53 q 351 -10 428 -10 q 186 38 260 -10 q 70 177 113 86 q 28 392 28 268 q 70 606 28 515 q 186 745 113 697 q 351 793 260 793 m 568 392 q 536 489 568 454 q 454 524 504 524 q 372 489 404 524 q 340 392 340 454 q 372 294 340 329 q 454 260 404 260 q 536 294 504 260 q 568 392 568 329 m 743 1115 q 670 906 743 978 q 482 833 597 833 q 294 906 367 833 q 221 1115 221 978 l 221 1139 l 364 1139 q 390 1074 364 1096 q 482 1053 417 1053 q 574 1074 547 1053 q 600 1139 600 1096 l 743 1139 l 743 1115 z "},"Ġ":{"ha":1044,"x_min":42,"x_max":1003,"o":"m 672 647 q 621 692 654 676 q 540 708 588 708 q 403 651 451 708 q 354 493 354 593 q 408 321 354 378 q 575 264 463 264 q 747 350 682 264 l 501 350 l 501 568 l 1003 568 l 1003 260 q 826 72 939 150 q 542 -7 714 -7 q 276 56 389 -7 q 102 233 163 119 q 42 493 42 347 q 102 753 42 639 q 275 930 163 867 q 539 993 388 993 q 853 900 732 993 q 997 647 975 807 l 672 647 m 521 1065 q 437 1099 471 1065 q 403 1183 403 1133 q 437 1269 403 1235 q 521 1304 471 1304 q 608 1270 574 1304 q 642 1183 642 1236 q 607 1099 642 1133 q 521 1065 572 1065 z "},"ġ":{"ha":944,"x_min":28,"x_max":875,"o":"m 351 793 q 483 762 428 793 q 568 676 539 731 l 568 783 l 875 783 l 875 14 q 835 -186 875 -96 q 705 -331 794 -276 q 475 -385 615 -385 q 176 -297 286 -385 q 50 -57 65 -208 l 353 -57 q 453 -118 365 -118 q 538 -90 507 -118 q 568 14 568 -62 l 568 107 q 483 22 539 53 q 351 -10 428 -10 q 186 38 260 -10 q 70 177 113 86 q 28 392 28 268 q 70 606 28 515 q 186 745 113 697 q 351 793 260 793 m 568 392 q 536 489 568 454 q 454 524 504 524 q 372 489 404 524 q 340 392 340 454 q 372 294 340 329 q 454 260 404 260 q 536 294 504 260 q 568 392 568 329 m 479 861 q 395 895 429 861 q 361 979 361 929 q 395 1065 361 1031 q 479 1100 429 1100 q 566 1066 532 1100 q 600 979 600 1032 q 565 895 600 929 q 479 861 531 861 z "},"Ģ":{"ha":1050,"x_min":42,"x_max":1003,"o":"m 672 647 q 621 692 654 676 q 540 708 588 708 q 403 651 451 708 q 354 493 354 593 q 408 321 354 378 q 575 264 463 264 q 747 350 682 264 l 501 350 l 501 568 l 1003 568 l 1003 260 q 826 72 939 150 q 542 -7 714 -7 q 276 56 389 -7 q 102 233 163 119 q 42 493 42 347 q 102 753 42 639 q 275 930 163 867 q 539 993 388 993 q 853 900 732 993 q 997 647 975 807 l 672 647 m 631 -49 q 667 -236 667 -143 q 608 -412 667 -343 q 438 -481 550 -481 l 438 -372 q 514 -268 514 -372 l 514 -253 l 414 -253 l 414 -49 l 631 -49 z "},"ģ":{"ha":944,"x_min":28,"x_max":875,"o":"m 392 832 q 357 1019 357 922 q 415 1195 357 1126 q 585 1264 472 1264 l 585 1156 q 508 1051 508 1156 l 508 1036 l 608 1036 l 608 832 l 392 832 m 351 793 q 483 762 428 793 q 568 676 539 731 l 568 783 l 875 783 l 875 14 q 835 -186 875 -96 q 705 -331 794 -276 q 475 -385 615 -385 q 176 -297 286 -385 q 50 -57 65 -208 l 353 -57 q 453 -118 365 -118 q 538 -90 507 -118 q 568 14 568 -62 l 568 107 q 483 22 539 53 q 351 -10 428 -10 q 186 38 260 -10 q 70 177 113 86 q 28 392 28 268 q 70 606 28 515 q 186 745 113 697 q 351 793 260 793 m 568 392 q 536 489 568 454 q 454 524 504 524 q 372 489 404 524 q 340 392 340 454 q 372 294 340 329 q 454 260 404 260 q 536 294 504 260 q 568 392 568 329 z "},"Ĩ":{"ha":447,"x_min":-100,"x_max":536,"o":"m 378 983 l 378 0 l 69 0 l 69 983 l 378 983 m -100 1040 q -22 1227 -78 1169 q 124 1285 35 1285 q 186 1275 157 1285 q 249 1247 215 1265 q 291 1227 275 1233 q 324 1221 307 1221 q 385 1286 375 1221 l 536 1286 q 458 1100 514 1157 q 313 1043 401 1043 q 250 1053 279 1043 q 188 1081 221 1063 q 149 1098 168 1090 q 113 1106 129 1106 q 50 1040 63 1106 l -100 1040 z "},"ĩ":{"ha":517,"x_min":-65,"x_max":571,"o":"m 413 783 l 413 0 l 104 0 l 104 783 l 413 783 m -65 836 q 13 1023 -43 965 q 158 1081 69 1081 q 221 1071 192 1081 q 283 1043 250 1061 q 326 1023 310 1029 q 358 1017 342 1017 q 419 1082 410 1017 l 571 1082 q 492 896 549 953 q 347 839 436 839 q 285 849 314 839 q 222 876 256 858 q 183 894 203 886 q 147 901 164 901 q 85 836 97 901 l -65 836 z "},"Ī":{"ha":447,"x_min":-74,"x_max":525,"o":"m 378 983 l 378 0 l 69 0 l 69 983 l 378 983 m 525 1272 l 525 1068 l -74 1068 l -74 1272 l 525 1272 z "},"ī":{"ha":517,"x_min":-39,"x_max":560,"o":"m 413 783 l 413 0 l 104 0 l 104 783 l 413 783 m 560 1068 l 560 864 l -39 864 l -39 1068 l 560 1068 z "},"Ĭ":{"ha":447,"x_min":-36,"x_max":486,"o":"m 378 983 l 378 0 l 69 0 l 69 983 l 378 983 m 486 1319 q 413 1110 486 1182 q 225 1038 340 1038 q 37 1110 110 1038 q -36 1319 -36 1182 l -36 1343 l 107 1343 q 133 1278 107 1300 q 225 1257 160 1257 q 317 1278 290 1257 q 343 1343 343 1300 l 486 1343 l 486 1319 z "},"ĭ":{"ha":517,"x_min":-1,"x_max":521,"o":"m 413 783 l 413 0 l 104 0 l 104 783 l 413 783 m 521 1115 q 448 906 521 978 q 260 833 375 833 q 72 906 144 833 q -1 1115 -1 978 l -1 1139 l 142 1139 q 168 1074 142 1096 q 260 1053 194 1053 q 351 1074 325 1053 q 378 1139 378 1096 l 521 1139 l 521 1115 z "},"Į":{"ha":447,"x_min":-3,"x_max":378,"o":"m 318 -29 q 237 -78 261 -57 q 213 -119 213 -99 q 225 -140 213 -132 q 260 -149 238 -149 q 378 -126 311 -149 l 378 -287 q 221 -310 304 -310 q 57 -265 117 -310 q -3 -143 -3 -221 q 14 -67 -3 -103 q 69 1 31 -32 l 69 983 l 378 983 l 378 0 l 318 -29 z "},"į":{"ha":447,"x_min":-3,"x_max":401,"o":"m 225 846 q 96 889 144 846 q 47 997 47 932 q 96 1108 47 1064 q 225 1151 144 1151 q 353 1108 304 1151 q 401 997 401 1064 q 353 889 401 932 q 225 846 304 846 m 69 783 l 378 783 l 378 -1 l 318 -31 q 237 -79 261 -58 q 213 -121 213 -100 q 225 -142 213 -133 q 260 -150 238 -150 q 378 -128 311 -150 l 378 -289 q 221 -311 304 -311 q 57 -267 117 -311 q -3 -144 -3 -222 q 14 -69 -3 -104 q 69 0 31 -33 l 69 783 z "},"İ":{"ha":447,"x_min":69,"x_max":378,"o":"m 378 983 l 378 0 l 69 0 l 69 983 l 378 983 m 222 1065 q 138 1099 172 1065 q 104 1183 104 1133 q 138 1269 104 1235 q 222 1304 172 1304 q 309 1270 275 1304 q 343 1183 343 1236 q 308 1099 343 1133 q 222 1065 274 1065 z "},"ı":{"ha":517,"x_min":104,"x_max":413,"o":"m 413 783 l 413 0 l 104 0 l 104 783 l 413 783 z "},"Ķ":{"ha":1108,"x_min":69,"x_max":1031,"o":"m 378 426 l 378 0 l 69 0 l 69 983 l 378 983 l 378 569 l 660 983 l 1008 983 l 669 513 l 1031 0 l 664 0 l 378 426 m 660 -49 q 694 -236 694 -139 q 637 -412 694 -343 q 467 -481 579 -481 l 467 -372 q 543 -268 543 -372 l 543 -253 l 443 -253 l 443 -49 l 660 -49 z "},"ķ":{"ha":939,"x_min":69,"x_max":939,"o":"m 378 0 l 69 0 l 69 1028 l 378 1028 l 378 490 l 574 783 l 932 783 l 639 389 l 939 0 l 571 0 l 378 313 l 378 0 m 581 -49 q 615 -236 615 -139 q 558 -412 615 -343 q 388 -481 500 -481 l 388 -372 q 464 -268 464 -372 l 464 -253 l 364 -253 l 364 -49 l 581 -49 z "},"Ĺ":{"ha":703,"x_min":69,"x_max":675,"o":"m 378 233 l 675 233 l 675 0 l 69 0 l 69 983 l 378 983 l 378 233 m 499 1171 l 139 1040 l 139 1246 l 499 1399 l 499 1171 z "},"ĺ":{"ha":447,"x_min":43,"x_max":403,"o":"m 378 1028 l 378 0 l 69 0 l 69 1028 l 378 1028 m 403 1211 l 43 1081 l 43 1286 l 403 1439 l 403 1211 z "},"Ļ":{"ha":710,"x_min":69,"x_max":675,"o":"m 378 233 l 675 233 l 675 0 l 69 0 l 69 983 l 378 983 l 378 233 m 508 -49 q 544 -236 544 -143 q 486 -412 544 -343 q 315 -481 428 -481 l 315 -372 q 392 -268 392 -372 l 392 -253 l 292 -253 l 292 -49 l 508 -49 z "},"ļ":{"ha":447,"x_min":69,"x_max":378,"o":"m 378 1028 l 378 0 l 69 0 l 69 1028 l 378 1028 m 338 -49 q 372 -236 372 -139 q 315 -412 372 -343 q 144 -481 257 -481 l 144 -372 q 221 -268 221 -372 l 221 -253 l 121 -253 l 121 -49 l 338 -49 z "},"Ľ":{"ha":801,"x_min":69,"x_max":764,"o":"m 378 233 l 675 233 l 675 0 l 69 0 l 69 983 l 378 983 l 378 233 m 729 983 q 764 797 764 894 q 706 620 764 689 q 536 551 649 551 l 536 661 q 592 687 572 661 q 613 764 613 713 l 613 781 l 513 781 l 513 983 l 729 983 z "},"ľ":{"ha":717,"x_min":69,"x_max":703,"o":"m 378 1028 l 378 0 l 69 0 l 69 1028 l 378 1028 m 668 1028 q 703 842 703 939 q 645 665 703 733 q 475 596 588 596 l 475 706 q 531 731 511 706 q 551 808 551 757 l 551 825 l 451 825 l 451 1028 l 668 1028 z "},"Ŀ":{"ha":703,"x_min":69,"x_max":696,"o":"m 69 983 l 378 983 l 378 233 l 675 233 l 675 0 l 69 0 l 69 983 m 575 454 q 491 488 525 454 q 457 572 457 522 q 491 658 457 624 q 575 693 525 693 q 662 659 628 693 q 696 572 696 625 q 661 488 696 522 q 575 454 626 454 z "},"ŀ":{"ha":611,"x_min":69,"x_max":649,"o":"m 69 1028 l 378 1028 l 378 0 l 69 0 l 69 1028 m 528 385 q 444 419 478 385 q 410 503 410 453 q 444 589 410 554 q 528 624 478 624 q 615 590 581 624 q 649 503 649 556 q 614 419 649 453 q 528 385 579 385 z "},"Ł":{"ha":724,"x_min":14,"x_max":696,"o":"m 696 233 l 696 0 l 90 0 l 90 356 l 14 335 l 14 607 l 90 628 l 90 983 l 399 983 l 399 713 l 503 742 l 503 469 l 399 440 l 399 233 l 696 233 z "},"ł":{"ha":517,"x_min":14,"x_max":503,"o":"m 503 469 l 413 444 l 413 0 l 104 0 l 104 360 l 14 335 l 14 607 l 104 632 l 104 1028 l 413 1028 l 413 717 l 503 742 l 503 469 z "},"Ń":{"ha":1082,"x_min":69,"x_max":1013,"o":"m 1013 0 l 704 0 l 378 494 l 378 0 l 69 0 l 69 983 l 378 983 l 704 481 l 704 983 l 1013 983 l 1013 0 m 718 1171 l 358 1040 l 358 1246 l 718 1399 l 718 1171 z "},"ń":{"ha":968,"x_min":69,"x_max":904,"o":"m 618 789 q 828 699 753 789 q 904 454 904 608 l 904 0 l 597 0 l 597 415 q 567 503 597 471 q 488 536 538 536 q 407 503 436 536 q 378 415 378 471 l 378 0 l 69 0 l 69 783 l 378 783 l 378 664 q 474 754 414 719 q 618 789 535 789 m 711 967 l 351 836 l 351 1042 l 711 1194 l 711 967 z "},"Ņ":{"ha":1151,"x_min":69,"x_max":1013,"o":"m 1013 0 l 704 0 l 378 494 l 378 0 l 69 0 l 69 983 l 378 983 l 704 481 l 704 983 l 1013 983 l 1013 0 m 681 -49 q 717 -236 717 -143 q 658 -412 717 -343 q 488 -481 600 -481 l 488 -372 q 564 -268 564 -372 l 564 -253 l 464 -253 l 464 -49 l 681 -49 z "},"ņ":{"ha":968,"x_min":69,"x_max":904,"o":"m 618 789 q 828 699 753 789 q 904 454 904 608 l 904 0 l 597 0 l 597 415 q 567 503 597 471 q 488 536 538 536 q 407 503 436 536 q 378 415 378 471 l 378 0 l 69 0 l 69 783 l 378 783 l 378 664 q 474 754 414 719 q 618 789 535 789 m 624 -49 q 658 -236 658 -139 q 601 -412 658 -343 q 431 -481 543 -481 l 431 -372 q 507 -268 507 -372 l 507 -253 l 407 -253 l 407 -49 l 624 -49 z "},"Ň":{"ha":1082,"x_min":69,"x_max":1013,"o":"m 1013 0 l 704 0 l 378 494 l 378 0 l 69 0 l 69 983 l 378 983 l 704 481 l 704 983 l 1013 983 l 1013 0 m 769 1144 l 540 1040 l 310 1144 l 310 1344 l 540 1222 l 769 1344 l 769 1144 z "},"ň":{"ha":968,"x_min":69,"x_max":904,"o":"m 618 789 q 828 699 753 789 q 904 454 904 608 l 904 0 l 597 0 l 597 415 q 567 503 597 471 q 488 536 538 536 q 407 503 436 536 q 378 415 378 471 l 378 0 l 69 0 l 69 783 l 378 783 l 378 664 q 474 754 414 719 q 618 789 535 789 m 763 940 l 533 836 l 303 940 l 303 1140 l 533 1018 l 763 1140 l 763 940 z "},"Ō":{"ha":1094,"x_min":42,"x_max":1053,"o":"m 549 -10 q 294 56 410 -10 q 110 236 178 121 q 42 496 42 351 q 110 756 42 640 q 294 935 178 871 q 549 1000 410 1000 q 803 935 688 1000 q 985 756 918 871 q 1053 496 1053 640 q 985 236 1053 351 q 802 56 918 121 q 549 -10 686 -10 m 549 278 q 690 337 640 278 q 740 496 740 396 q 690 656 740 597 q 549 715 640 715 q 406 656 456 715 q 356 496 356 597 q 406 337 356 396 q 549 278 456 278 m 849 1272 l 849 1068 l 250 1068 l 250 1272 l 849 1272 z "},"ō":{"ha":883,"x_min":28,"x_max":856,"o":"m 442 -10 q 229 39 324 -10 q 81 178 135 88 q 28 392 28 269 q 81 605 28 514 q 229 744 135 696 q 442 793 324 793 q 654 744 560 793 q 802 605 749 696 q 856 392 856 514 q 802 178 856 269 q 654 39 749 88 q 442 -10 560 -10 m 442 257 q 514 291 485 257 q 543 392 543 325 q 514 492 543 458 q 442 526 485 526 q 369 492 399 526 q 340 392 340 458 q 369 291 340 325 q 442 257 397 257 m 776 1068 l 776 864 l 178 864 l 178 1068 l 776 1068 z "},"Ŏ":{"ha":1094,"x_min":42,"x_max":1053,"o":"m 549 -10 q 294 56 410 -10 q 110 236 178 121 q 42 496 42 351 q 110 756 42 640 q 294 935 178 871 q 549 1000 410 1000 q 803 935 688 1000 q 985 756 918 871 q 1053 496 1053 640 q 985 236 1053 351 q 802 56 918 121 q 549 -10 686 -10 m 549 278 q 690 337 640 278 q 740 496 740 396 q 690 656 740 597 q 549 715 640 715 q 406 656 456 715 q 356 496 356 597 q 406 337 356 396 q 549 278 456 278 m 810 1319 q 737 1110 810 1182 q 549 1038 664 1038 q 360 1110 433 1038 q 288 1319 288 1182 l 288 1343 l 431 1343 q 457 1278 431 1300 q 549 1257 483 1257 q 640 1278 614 1257 q 667 1343 667 1300 l 810 1343 l 810 1319 z "},"ŏ":{"ha":883,"x_min":28,"x_max":856,"o":"m 442 -10 q 229 39 324 -10 q 81 178 135 88 q 28 392 28 269 q 81 605 28 514 q 229 744 135 696 q 442 793 324 793 q 654 744 560 793 q 802 605 749 696 q 856 392 856 514 q 802 178 856 269 q 654 39 749 88 q 442 -10 560 -10 m 442 257 q 514 291 485 257 q 543 392 543 325 q 514 492 543 458 q 442 526 485 526 q 369 492 399 526 q 340 392 340 458 q 369 291 340 325 q 442 257 397 257 m 738 1115 q 665 906 738 978 q 476 833 592 833 q 288 906 361 833 q 215 1115 215 978 l 215 1139 l 358 1139 q 385 1074 358 1096 q 476 1053 411 1053 q 568 1074 542 1053 q 594 1139 594 1096 l 738 1139 l 738 1115 z "},"Ő":{"ha":1094,"x_min":42,"x_max":1053,"o":"m 549 -10 q 294 56 410 -10 q 110 236 178 121 q 42 496 42 351 q 110 756 42 640 q 294 935 178 871 q 549 1000 410 1000 q 803 935 688 1000 q 985 756 918 871 q 1053 496 1053 640 q 985 236 1053 351 q 802 56 918 121 q 549 -10 686 -10 m 549 278 q 690 337 640 278 q 740 496 740 396 q 690 656 740 597 q 549 715 640 715 q 406 656 456 715 q 356 496 356 597 q 406 337 356 396 q 549 278 456 278 m 467 1039 l 282 1039 l 393 1378 l 626 1378 l 467 1039 m 776 1039 l 592 1039 l 735 1378 l 968 1378 l 776 1039 z "},"ő":{"ha":883,"x_min":28,"x_max":896,"o":"m 442 -10 q 229 39 324 -10 q 81 178 135 88 q 28 392 28 269 q 81 605 28 514 q 229 744 135 696 q 442 793 324 793 q 654 744 560 793 q 802 605 749 696 q 856 392 856 514 q 802 178 856 269 q 654 39 749 88 q 442 -10 560 -10 m 442 257 q 514 291 485 257 q 543 392 543 325 q 514 492 543 458 q 442 526 485 526 q 369 492 399 526 q 340 392 340 458 q 369 291 340 325 q 442 257 397 257 m 394 835 l 210 835 l 321 1174 l 554 1174 l 394 835 m 704 835 l 519 835 l 663 1174 l 896 1174 l 704 835 z "},"Œ":{"ha":1457,"x_min":42,"x_max":1410,"o":"m 1063 617 l 1368 617 l 1368 385 l 1063 385 l 1063 246 l 1410 246 l 1410 0 l 754 0 l 754 51 q 525 -17 674 -10 q 276 48 386 -17 q 103 228 165 113 q 42 492 42 344 q 103 755 42 639 q 276 935 165 871 q 525 1000 386 1000 q 649 983 589 1000 q 754 932 710 965 l 754 983 l 1410 983 l 1410 739 l 1063 739 l 1063 617 m 356 492 q 406 328 356 388 q 549 268 456 268 q 690 328 640 268 q 740 492 740 388 q 690 656 740 596 q 549 715 640 715 q 406 656 456 715 q 356 492 356 596 z "},"œ":{"ha":1419,"x_min":28,"x_max":1356,"o":"m 1356 399 q 1349 338 1356 369 l 856 338 q 882 258 860 279 q 940 236 904 236 q 1013 282 990 236 l 1339 282 q 1269 133 1322 199 q 1134 28 1215 67 q 956 -10 1053 -10 q 701 68 807 -10 q 583 10 649 31 q 442 -10 517 -10 q 229 39 324 -10 q 81 178 135 88 q 28 392 28 269 q 81 605 28 514 q 229 744 135 696 q 442 793 324 793 q 583 773 517 793 q 701 715 649 753 q 956 793 807 793 q 1163 745 1072 793 q 1305 608 1254 697 q 1356 399 1356 519 m 1043 464 q 1018 530 1043 508 q 956 551 993 551 q 858 464 871 551 l 1043 464 m 442 257 q 514 291 485 257 q 543 392 543 325 q 514 492 543 458 q 442 526 485 526 q 369 492 399 526 q 340 392 340 458 q 369 291 340 325 q 442 257 397 257 z "},"Ŕ":{"ha":931,"x_min":69,"x_max":903,"o":"m 564 0 l 379 353 l 378 353 l 378 0 l 69 0 l 69 983 l 528 983 q 732 941 647 983 q 859 826 817 899 q 901 661 901 753 q 847 486 901 563 q 689 376 792 410 l 903 0 l 564 0 m 378 558 l 500 558 q 567 578 544 558 q 589 642 589 599 q 566 703 589 681 q 500 725 543 725 l 378 725 l 378 558 m 629 1171 l 269 1040 l 269 1246 l 629 1399 l 629 1171 z "},"ŕ":{"ha":649,"x_min":69,"x_max":635,"o":"m 378 639 q 493 748 425 707 q 635 789 561 789 l 635 460 l 547 460 q 419 429 460 460 q 378 321 378 399 l 378 0 l 69 0 l 69 783 l 378 783 l 378 639 m 560 967 l 200 836 l 200 1042 l 560 1194 l 560 967 z "},"Ŗ":{"ha":974,"x_min":69,"x_max":903,"o":"m 378 0 l 69 0 l 69 983 l 528 983 q 732 941 647 983 q 859 826 817 899 q 901 661 901 753 q 847 486 901 563 q 689 376 792 410 l 903 0 l 564 0 l 379 353 l 378 353 l 378 0 m 378 558 l 500 558 q 567 578 544 558 q 589 642 589 599 q 566 703 589 681 q 500 725 543 725 l 378 725 l 378 558 m 592 -49 q 628 -236 628 -143 q 569 -412 628 -343 q 399 -481 511 -481 l 399 -372 q 475 -268 475 -372 l 475 -253 l 375 -253 l 375 -49 l 592 -49 z "},"ŗ":{"ha":649,"x_min":69,"x_max":635,"o":"m 378 639 q 493 748 425 707 q 635 789 561 789 l 635 460 l 547 460 q 419 429 460 460 q 378 321 378 399 l 378 0 l 69 0 l 69 783 l 378 783 l 378 639 m 328 -49 q 363 -236 363 -139 q 305 -412 363 -343 q 135 -481 247 -481 l 135 -372 q 211 -268 211 -372 l 211 -253 l 111 -253 l 111 -49 l 328 -49 z "},"Ř":{"ha":931,"x_min":69,"x_max":903,"o":"m 564 0 l 379 353 l 378 353 l 378 0 l 69 0 l 69 983 l 528 983 q 732 941 647 983 q 859 826 817 899 q 901 661 901 753 q 847 486 901 563 q 689 376 792 410 l 903 0 l 564 0 m 378 558 l 500 558 q 567 578 544 558 q 589 642 589 599 q 566 703 589 681 q 500 725 543 725 l 378 725 l 378 558 m 681 1144 l 451 1040 l 221 1144 l 221 1344 l 451 1222 l 681 1344 l 681 1144 z "},"ř":{"ha":649,"x_min":69,"x_max":635,"o":"m 378 639 q 493 748 425 707 q 635 789 561 789 l 635 460 l 547 460 q 419 429 460 460 q 378 321 378 399 l 378 0 l 69 0 l 69 783 l 378 783 l 378 639 m 611 940 l 382 836 l 151 940 l 151 1140 l 382 1018 l 611 1140 l 611 940 z "},"Ś":{"ha":868,"x_min":39,"x_max":829,"o":"m 454 -10 q 163 73 278 -10 q 39 315 49 156 l 367 315 q 442 231 374 231 q 484 242 467 231 q 501 279 501 254 q 464 335 501 314 q 347 385 426 357 q 191 450 253 418 q 85 543 129 482 q 42 700 40 604 q 91 863 42 796 q 226 965 140 931 q 418 1000 311 1000 q 705 917 599 1000 q 817 682 811 833 l 485 682 q 464 742 483 724 q 417 760 444 760 q 385 747 397 760 q 372 710 372 733 q 409 655 372 676 q 526 603 446 633 q 680 536 619 568 q 785 447 740 504 q 829 304 829 390 q 785 142 829 214 q 656 31 740 71 q 454 -10 571 -10 m 613 1171 l 253 1040 l 253 1246 l 613 1399 l 613 1171 z "},"ś":{"ha":804,"x_min":29,"x_max":753,"o":"m 418 -10 q 222 26 307 -10 q 86 126 136 63 q 29 271 36 190 l 325 271 q 355 219 331 236 q 417 203 379 203 q 454 213 440 203 q 468 239 468 224 q 439 276 468 265 q 340 301 410 288 q 201 338 256 318 q 105 404 146 357 q 64 535 64 451 q 102 666 64 607 q 215 759 140 725 q 397 793 290 793 q 645 715 556 793 q 753 513 735 638 l 479 513 q 450 562 472 544 q 390 579 428 579 q 354 570 367 579 q 342 543 342 561 q 371 508 342 519 q 464 483 400 496 q 607 446 549 467 q 708 374 665 425 q 751 235 751 324 q 711 110 751 165 q 595 22 671 54 q 418 -10 519 -10 m 597 967 l 238 836 l 238 1042 l 597 1194 l 597 967 z "},"Ş":{"ha":868,"x_min":39,"x_max":829,"o":"m 829 304 q 752 100 829 183 q 538 -4 675 17 l 538 -47 q 618 -63 576 -47 q 689 -117 660 -79 q 718 -217 718 -156 q 656 -347 718 -307 q 510 -386 593 -386 l 269 -386 l 269 -229 l 478 -229 q 504 -223 494 -229 q 514 -207 514 -217 q 478 -186 514 -186 l 360 -186 l 360 -3 q 135 99 221 18 q 39 315 49 179 l 367 315 q 442 231 374 231 q 484 242 467 231 q 501 279 501 254 q 464 335 501 314 q 347 385 426 357 q 191 450 253 418 q 85 543 129 482 q 42 700 40 604 q 91 863 42 796 q 226 965 140 931 q 418 1000 311 1000 q 705 917 599 1000 q 817 682 811 833 l 485 682 q 464 742 483 724 q 417 760 444 760 q 385 747 397 760 q 372 710 372 733 q 409 655 372 676 q 526 603 446 633 q 680 536 619 568 q 785 447 740 504 q 829 304 829 390 z "},"ş":{"ha":804,"x_min":29,"x_max":753,"o":"m 751 235 q 690 85 751 149 q 522 0 629 22 l 522 -47 q 603 -63 561 -47 q 674 -117 644 -79 q 703 -217 703 -156 q 640 -347 703 -307 q 494 -386 578 -386 l 254 -386 l 254 -229 l 463 -229 q 489 -223 479 -229 q 499 -207 499 -217 q 463 -186 499 -186 l 344 -186 l 344 -6 q 124 88 208 13 q 29 271 39 163 l 325 271 q 355 219 331 236 q 417 203 379 203 q 454 213 440 203 q 468 239 468 224 q 439 276 468 265 q 340 301 410 288 q 201 338 256 318 q 105 404 146 357 q 64 535 64 451 q 102 666 64 607 q 215 759 140 725 q 397 793 290 793 q 645 715 556 793 q 753 513 735 638 l 479 513 q 450 562 472 544 q 390 579 428 579 q 354 570 367 579 q 342 543 342 561 q 371 508 342 519 q 464 483 400 496 q 607 446 549 467 q 708 374 665 425 q 751 235 751 324 z "},"Š":{"ha":868,"x_min":39,"x_max":829,"o":"m 454 -10 q 163 73 278 -10 q 39 315 49 156 l 367 315 q 442 231 374 231 q 484 242 467 231 q 501 279 501 254 q 464 335 501 314 q 347 385 426 357 q 191 450 253 418 q 85 543 129 482 q 42 700 40 604 q 91 863 42 796 q 226 965 140 931 q 418 1000 311 1000 q 705 917 599 1000 q 817 682 811 833 l 485 682 q 464 742 483 724 q 417 760 444 760 q 385 747 397 760 q 372 710 372 733 q 409 655 372 676 q 526 603 446 633 q 680 536 619 568 q 785 447 740 504 q 829 304 829 390 q 785 142 829 214 q 656 31 740 71 q 454 -10 571 -10 m 664 1144 l 435 1040 l 204 1144 l 204 1344 l 435 1222 l 664 1344 l 664 1144 z "},"š":{"ha":804,"x_min":29,"x_max":753,"o":"m 418 -10 q 222 26 307 -10 q 86 126 136 63 q 29 271 36 190 l 325 271 q 355 219 331 236 q 417 203 379 203 q 454 213 440 203 q 468 239 468 224 q 439 276 468 265 q 340 301 410 288 q 201 338 256 318 q 105 404 146 357 q 64 535 64 451 q 102 666 64 607 q 215 759 140 725 q 397 793 290 793 q 645 715 556 793 q 753 513 735 638 l 479 513 q 450 562 472 544 q 390 579 428 579 q 354 570 367 579 q 342 543 342 561 q 371 508 342 519 q 464 483 400 496 q 607 446 549 467 q 708 374 665 425 q 751 235 751 324 q 711 110 751 165 q 595 22 671 54 q 418 -10 519 -10 m 649 940 l 419 836 l 189 940 l 189 1140 l 419 1018 l 649 1140 l 649 940 z "},"Ţ":{"ha":856,"x_min":14,"x_max":842,"o":"m 842 983 l 842 739 l 581 739 l 581 0 l 272 0 l 272 739 l 14 739 l 14 983 l 842 983 m 524 -47 q 604 -63 563 -47 q 675 -117 646 -79 q 704 -217 704 -156 q 642 -347 704 -307 q 496 -386 579 -386 l 256 -386 l 256 -229 l 464 -229 q 490 -223 481 -229 q 500 -207 500 -217 q 464 -186 500 -186 l 346 -186 l 346 0 l 524 0 l 524 -47 z "},"ţ":{"ha":606,"x_min":21,"x_max":614,"o":"m 433 -37 q 514 -53 472 -37 q 585 -108 556 -69 q 614 -207 614 -146 q 551 -337 614 -297 q 406 -376 489 -376 l 165 -376 l 165 -219 l 374 -219 q 400 -213 390 -219 q 410 -197 410 -207 q 374 -176 410 -176 l 256 -176 l 256 39 q 118 321 118 111 l 118 526 l 21 526 l 21 783 l 118 783 l 118 972 l 426 972 l 426 783 l 554 783 l 554 526 l 426 526 l 426 315 q 440 275 426 288 q 483 263 453 263 l 557 263 l 557 0 l 440 0 l 433 0 l 433 -37 z "},"Ť":{"ha":856,"x_min":14,"x_max":842,"o":"m 842 983 l 842 739 l 581 739 l 581 0 l 272 0 l 272 739 l 14 739 l 14 983 l 842 983 m 650 1144 l 421 1040 l 190 1144 l 190 1344 l 421 1222 l 650 1344 l 650 1144 z "},"ť":{"ha":606,"x_min":21,"x_max":722,"o":"m 686 1236 q 714 1147 706 1188 q 722 1064 722 1107 q 665 906 722 967 q 493 846 607 846 l 493 956 q 569 1010 569 956 l 569 1033 l 469 1033 l 469 1236 l 686 1236 m 426 315 q 440 275 426 288 q 483 263 453 263 l 557 263 l 557 0 l 440 0 q 118 321 118 0 l 118 526 l 21 526 l 21 783 l 118 783 l 118 972 l 426 972 l 426 783 l 554 783 l 554 526 l 426 526 l 426 315 z "},"Ũ":{"ha":999,"x_min":64,"x_max":935,"o":"m 371 983 l 371 429 q 401 322 371 361 q 497 282 431 282 q 596 322 564 282 q 628 429 628 361 l 628 983 l 935 983 l 935 429 q 876 190 935 289 q 717 40 818 90 q 490 -10 615 -10 q 269 40 365 -10 q 118 189 172 90 q 64 429 64 288 l 64 983 l 371 983 m 175 1040 q 253 1227 197 1169 q 399 1285 310 1285 q 461 1275 432 1285 q 524 1247 490 1265 q 566 1227 550 1233 q 599 1221 582 1221 q 660 1286 650 1221 l 811 1286 q 733 1100 789 1157 q 588 1043 676 1043 q 525 1053 554 1043 q 463 1081 496 1063 q 424 1098 443 1090 q 388 1106 404 1106 q 325 1040 338 1106 l 175 1040 z "},"ũ":{"ha":968,"x_min":64,"x_max":899,"o":"m 899 783 l 899 0 l 590 0 l 590 119 q 494 29 554 64 q 350 -6 433 -6 q 140 85 215 -6 q 64 329 64 175 l 64 783 l 371 783 l 371 368 q 401 280 371 313 q 481 247 431 247 q 561 280 532 247 q 590 368 590 313 l 590 783 l 899 783 m 160 836 q 238 1023 182 965 q 383 1081 294 1081 q 446 1071 417 1081 q 508 1043 475 1061 q 551 1023 535 1029 q 583 1017 567 1017 q 644 1082 635 1017 l 796 1082 q 717 896 774 953 q 572 839 661 839 q 510 849 539 839 q 447 876 481 858 q 408 894 428 886 q 372 901 389 901 q 310 836 322 901 l 160 836 z "},"Ū":{"ha":999,"x_min":64,"x_max":935,"o":"m 371 983 l 371 429 q 401 322 371 361 q 497 282 431 282 q 596 322 564 282 q 628 429 628 361 l 628 983 l 935 983 l 935 429 q 876 190 935 289 q 717 40 818 90 q 490 -10 615 -10 q 269 40 365 -10 q 118 189 172 90 q 64 429 64 288 l 64 983 l 371 983 m 800 1272 l 800 1068 l 201 1068 l 201 1272 l 800 1272 z "},"ū":{"ha":968,"x_min":64,"x_max":899,"o":"m 899 783 l 899 0 l 590 0 l 590 119 q 494 29 554 64 q 350 -6 433 -6 q 140 85 215 -6 q 64 329 64 175 l 64 783 l 371 783 l 371 368 q 401 280 371 313 q 481 247 431 247 q 561 280 532 247 q 590 368 590 313 l 590 783 l 899 783 m 785 1068 l 785 864 l 186 864 l 186 1068 l 785 1068 z "},"Ŭ":{"ha":999,"x_min":64,"x_max":935,"o":"m 371 983 l 371 429 q 401 322 371 361 q 497 282 431 282 q 596 322 564 282 q 628 429 628 361 l 628 983 l 935 983 l 935 429 q 876 190 935 289 q 717 40 818 90 q 490 -10 615 -10 q 269 40 365 -10 q 118 189 172 90 q 64 429 64 288 l 64 983 l 371 983 m 761 1319 q 688 1110 761 1182 q 500 1038 615 1038 q 312 1110 385 1038 q 239 1319 239 1182 l 239 1343 l 382 1343 q 408 1278 382 1300 q 500 1257 435 1257 q 592 1278 565 1257 q 618 1343 618 1300 l 761 1343 l 761 1319 z "},"ŭ":{"ha":968,"x_min":64,"x_max":899,"o":"m 899 783 l 899 0 l 590 0 l 590 119 q 494 29 554 64 q 350 -6 433 -6 q 140 85 215 -6 q 64 329 64 175 l 64 783 l 371 783 l 371 368 q 401 280 371 313 q 481 247 431 247 q 561 280 532 247 q 590 368 590 313 l 590 783 l 899 783 m 746 1115 q 673 906 746 978 q 485 833 600 833 q 297 906 369 833 q 224 1115 224 978 l 224 1139 l 367 1139 q 393 1074 367 1096 q 485 1053 419 1053 q 576 1074 550 1053 q 603 1139 603 1096 l 746 1139 l 746 1115 z "},"Ů":{"ha":999,"x_min":64,"x_max":935,"o":"m 371 983 l 371 429 q 401 322 371 361 q 497 282 431 282 q 596 322 564 282 q 628 429 628 361 l 628 983 l 935 983 l 935 429 q 876 190 935 289 q 717 40 818 90 q 490 -10 615 -10 q 269 40 365 -10 q 118 189 172 90 q 64 429 64 288 l 64 983 l 371 983 m 683 1211 q 631 1078 683 1128 q 500 1028 578 1028 q 369 1078 422 1028 q 317 1211 317 1128 q 369 1344 317 1294 q 500 1394 422 1394 q 631 1344 578 1394 q 683 1211 683 1294 m 564 1211 q 546 1258 564 1240 q 500 1276 528 1276 q 454 1258 472 1276 q 436 1211 436 1240 q 454 1164 436 1182 q 500 1146 472 1146 q 546 1164 528 1146 q 564 1211 564 1182 z "},"ů":{"ha":968,"x_min":64,"x_max":899,"o":"m 899 783 l 899 0 l 590 0 l 590 119 q 494 29 554 64 q 350 -6 433 -6 q 140 85 215 -6 q 64 329 64 175 l 64 783 l 371 783 l 371 368 q 401 280 371 313 q 481 247 431 247 q 561 280 532 247 q 590 368 590 313 l 590 783 l 899 783 m 668 1007 q 615 874 668 924 q 485 824 563 824 q 354 874 407 824 q 301 1007 301 924 q 354 1140 301 1090 q 485 1190 407 1190 q 615 1140 563 1190 q 668 1007 668 1090 m 549 1007 q 531 1054 549 1036 q 485 1072 513 1072 q 439 1054 457 1072 q 421 1007 421 1036 q 439 960 421 978 q 485 942 457 942 q 531 960 513 942 q 549 1007 549 978 z "},"Ű":{"ha":999,"x_min":64,"x_max":935,"o":"m 371 983 l 371 429 q 401 322 371 361 q 497 282 431 282 q 596 322 564 282 q 628 429 628 361 l 628 983 l 935 983 l 935 429 q 876 190 935 289 q 717 40 818 90 q 490 -10 615 -10 q 269 40 365 -10 q 118 189 172 90 q 64 429 64 288 l 64 983 l 371 983 m 418 1039 l 233 1039 l 344 1378 l 578 1378 l 418 1039 m 728 1039 l 543 1039 l 686 1378 l 919 1378 l 728 1039 z "},"ű":{"ha":968,"x_min":64,"x_max":904,"o":"m 899 783 l 899 0 l 590 0 l 590 119 q 494 29 554 64 q 350 -6 433 -6 q 140 85 215 -6 q 64 329 64 175 l 64 783 l 371 783 l 371 368 q 401 280 371 313 q 481 247 431 247 q 561 280 532 247 q 590 368 590 313 l 590 783 l 899 783 m 403 835 l 218 835 l 329 1174 l 563 1174 l 403 835 m 713 835 l 528 835 l 671 1174 l 904 1174 l 713 835 z "},"Ų":{"ha":999,"x_min":64,"x_max":935,"o":"m 935 983 l 935 429 q 850 150 935 258 q 622 6 765 42 l 624 4 l 564 -25 q 483 -74 507 -53 q 458 -115 458 -94 q 471 -136 458 -128 q 506 -144 483 -144 q 624 -122 557 -144 l 624 -283 q 467 -306 550 -306 q 303 -261 363 -306 q 243 -139 243 -217 q 262 -58 243 -94 q 328 15 281 -21 q 134 163 204 57 q 64 429 64 268 l 64 983 l 371 983 l 371 429 q 401 322 371 361 q 497 282 431 282 q 596 322 564 282 q 628 429 628 361 l 628 983 l 935 983 z "},"ų":{"ha":968,"x_min":64,"x_max":899,"o":"m 899 0 l 897 0 l 899 -4 l 839 -33 q 758 -82 782 -61 q 733 -124 733 -103 q 746 -144 733 -136 q 781 -153 758 -153 q 899 -131 832 -153 l 899 -292 q 742 -314 825 -314 q 578 -269 638 -314 q 518 -147 518 -225 q 535 -69 518 -106 q 593 0 553 -33 l 590 0 l 590 119 q 494 29 554 64 q 350 -6 433 -6 q 140 85 215 -6 q 64 329 64 175 l 64 783 l 371 783 l 371 368 q 401 280 371 313 q 481 247 431 247 q 561 280 532 247 q 590 368 590 313 l 590 783 l 899 783 l 899 0 z "},"Ŵ":{"ha":1528,"x_min":42,"x_max":1486,"o":"m 1486 983 l 1261 0 l 878 0 l 764 558 l 650 0 l 267 0 l 42 983 l 374 983 l 463 364 l 596 983 l 932 983 l 1065 364 l 1154 983 l 1486 983 m 765 1144 l 535 1036 l 535 1236 l 765 1340 l 994 1236 l 994 1036 l 765 1144 z "},"ŵ":{"ha":1254,"x_min":-1,"x_max":1258,"o":"m 1258 783 l 1072 0 l 725 0 l 631 442 l 531 0 l 183 0 l -1 783 l 304 783 l 369 307 l 471 783 l 800 783 l 907 301 l 974 783 l 1258 783 m 629 944 l 399 836 l 399 1036 l 629 1140 l 858 1036 l 858 836 l 629 944 z "},"Ŷ":{"ha":1014,"x_min":0,"x_max":1014,"o":"m 1014 983 l 661 299 l 661 0 l 353 0 l 353 299 l 0 983 l 353 983 l 510 635 l 667 983 l 1014 983 m 508 1149 l 278 1040 l 278 1240 l 508 1344 l 738 1240 l 738 1040 l 508 1149 z "},"ŷ":{"ha":940,"x_min":-14,"x_max":954,"o":"m 954 783 l 453 -375 l 115 -375 l 313 39 l -14 783 l 329 783 l 476 386 l 614 783 l 954 783 m 471 944 l 240 836 l 240 1036 l 471 1140 l 700 1036 l 700 836 l 471 944 z "},"Ÿ":{"ha":1014,"x_min":0,"x_max":1014,"o":"m 1014 983 l 661 299 l 661 0 l 353 0 l 353 299 l 0 983 l 353 983 l 510 635 l 667 983 l 1014 983 m 350 1065 q 266 1099 300 1065 q 232 1183 232 1133 q 266 1269 232 1235 q 350 1304 300 1304 q 437 1270 403 1304 q 471 1183 471 1236 q 436 1099 471 1133 q 350 1065 401 1065 m 663 1065 q 578 1099 613 1065 q 544 1183 544 1133 q 578 1269 544 1235 q 663 1304 613 1304 q 749 1270 715 1304 q 783 1183 783 1236 q 749 1099 783 1133 q 663 1065 714 1065 z "},"Ź":{"ha":875,"x_min":69,"x_max":806,"o":"m 411 246 l 806 246 l 806 0 l 69 0 l 69 232 l 458 739 l 69 739 l 69 983 l 806 983 l 806 751 l 411 246 m 615 1171 l 256 1040 l 256 1246 l 615 1399 l 615 1171 z "},"ź":{"ha":719,"x_min":28,"x_max":692,"o":"m 365 256 l 692 256 l 692 0 l 28 0 l 28 242 l 326 528 l 32 528 l 32 783 l 678 783 l 678 542 l 365 256 m 547 967 l 188 836 l 188 1042 l 547 1194 l 547 967 z "},"Ż":{"ha":875,"x_min":69,"x_max":806,"o":"m 411 246 l 806 246 l 806 0 l 69 0 l 69 232 l 458 739 l 69 739 l 69 983 l 806 983 l 806 751 l 411 246 m 435 1065 q 351 1099 385 1065 q 317 1183 317 1133 q 351 1269 317 1235 q 435 1304 385 1304 q 522 1270 488 1304 q 556 1183 556 1236 q 521 1099 556 1133 q 435 1065 486 1065 z "},"ż":{"ha":719,"x_min":28,"x_max":692,"o":"m 365 256 l 692 256 l 692 0 l 28 0 l 28 242 l 326 528 l 32 528 l 32 783 l 678 783 l 678 542 l 365 256 m 367 861 q 283 895 317 861 q 249 979 249 929 q 283 1065 249 1031 q 367 1100 317 1100 q 453 1066 419 1100 q 488 979 488 1032 q 453 895 488 929 q 367 861 418 861 z "},"Ž":{"ha":875,"x_min":69,"x_max":806,"o":"m 411 246 l 806 246 l 806 0 l 69 0 l 69 232 l 458 739 l 69 739 l 69 983 l 806 983 l 806 751 l 411 246 m 667 1144 l 438 1040 l 207 1144 l 207 1344 l 438 1222 l 667 1344 l 667 1144 z "},"ž":{"ha":719,"x_min":28,"x_max":692,"o":"m 365 256 l 692 256 l 692 0 l 28 0 l 28 242 l 326 528 l 32 528 l 32 783 l 678 783 l 678 542 l 365 256 m 599 940 l 369 836 l 139 940 l 139 1140 l 369 1018 l 599 1140 l 599 940 z "},"Ə":{"ha":1074,"x_min":42,"x_max":1032,"o":"m 535 1010 q 796 947 683 1010 q 970 769 908 885 q 1032 499 1032 654 q 970 228 1032 344 q 796 50 908 113 q 535 -12 683 -12 q 275 49 386 -12 q 103 224 164 110 q 42 490 42 338 q 47 568 42 518 l 718 568 q 662 692 713 650 q 540 735 611 735 q 442 709 485 735 q 385 639 399 683 l 61 639 q 147 828 82 744 q 312 961 211 913 q 535 1010 413 1010 m 528 272 q 647 306 594 272 q 714 399 700 339 l 356 399 q 409 308 360 343 q 528 272 458 272 z "},"ƒ":{"ha":472,"x_min":-97,"x_max":525,"o":"m 415 783 l 503 783 l 476 526 l 389 526 l 319 -136 q 203 -365 301 -300 q -51 -431 106 -431 l -97 -431 l -72 -167 l -19 -167 q 11 -136 6 -167 l 82 526 l 25 526 l 51 783 l 108 783 l 110 790 q 228 1026 128 951 q 525 1101 329 1101 l 499 839 q 440 828 460 839 q 417 790 419 818 l 415 783 z "},"Ǽ":{"ha":1369,"x_min":0,"x_max":1322,"o":"m 989 739 l 989 621 l 1281 621 l 1281 389 l 989 389 l 989 246 l 1322 246 l 1322 0 l 681 0 l 681 135 l 397 135 l 335 0 l 0 0 l 471 983 l 1322 983 l 1322 739 l 989 739 m 681 367 l 681 746 l 504 367 l 681 367 m 842 1167 l 482 1036 l 482 1242 l 842 1394 l 842 1167 z "},"ǽ":{"ha":1464,"x_min":28,"x_max":1436,"o":"m 1436 399 q 1429 338 1436 369 l 886 338 q 922 256 893 279 q 996 232 950 232 q 1093 282 1071 232 l 1419 282 q 1310 72 1394 154 q 1106 -10 1225 -10 q 963 21 1022 -10 q 875 107 904 51 l 875 0 l 568 0 l 568 107 q 483 22 539 53 q 351 -10 428 -10 q 186 38 260 -10 q 70 177 113 86 q 28 392 28 268 q 70 606 28 515 q 186 745 113 697 q 351 793 260 793 q 483 762 428 793 q 568 676 539 731 l 568 783 l 875 783 l 875 676 q 963 763 903 732 q 1106 793 1022 793 q 1277 745 1203 793 q 1394 608 1351 697 q 1436 399 1436 519 m 1124 464 q 1090 529 1124 507 q 1006 551 1057 551 q 888 464 906 551 l 1124 464 m 454 260 q 536 294 504 260 q 568 392 568 329 q 536 489 568 454 q 454 524 504 524 q 372 489 404 524 q 340 392 340 454 q 372 294 340 329 q 454 260 404 260 m 913 967 l 553 836 l 553 1042 l 913 1194 l 913 967 z "},"Ș":{"ha":951,"x_min":39,"x_max":829,"o":"m 454 -10 q 163 73 278 -10 q 39 315 49 156 l 367 315 q 442 231 374 231 q 484 242 467 231 q 501 279 501 254 q 464 335 501 314 q 347 385 426 357 q 191 450 253 418 q 85 543 129 482 q 42 700 40 604 q 91 863 42 796 q 226 965 140 931 q 418 1000 311 1000 q 705 917 599 1000 q 817 682 811 833 l 485 682 q 464 742 483 724 q 417 760 444 760 q 385 747 397 760 q 372 710 372 733 q 409 655 372 676 q 526 603 446 633 q 680 536 619 568 q 785 447 740 504 q 829 304 829 390 q 785 142 829 214 q 656 31 740 71 q 454 -10 571 -10 m 582 -49 q 618 -236 618 -143 q 560 -412 618 -343 q 389 -481 501 -481 l 389 -372 q 465 -268 465 -372 l 465 -253 l 365 -253 l 365 -49 l 582 -49 z "},"ș":{"ha":804,"x_min":29,"x_max":753,"o":"m 418 -10 q 222 26 307 -10 q 86 126 136 63 q 29 271 36 190 l 325 271 q 355 219 331 236 q 417 203 379 203 q 454 213 440 203 q 468 239 468 224 q 439 276 468 265 q 340 301 410 288 q 201 338 256 318 q 105 404 146 357 q 64 535 64 451 q 102 666 64 607 q 215 759 140 725 q 397 793 290 793 q 645 715 556 793 q 753 513 735 638 l 479 513 q 450 562 472 544 q 390 579 428 579 q 354 570 367 579 q 342 543 342 561 q 371 508 342 519 q 464 483 400 496 q 607 446 549 467 q 708 374 665 425 q 751 235 751 324 q 711 110 751 165 q 595 22 671 54 q 418 -10 519 -10 m 506 -49 q 540 -236 540 -139 q 483 -412 540 -343 q 313 -481 425 -481 l 313 -372 q 389 -268 389 -372 l 389 -253 l 289 -253 l 289 -49 l 506 -49 z "},"Ț":{"ha":856,"x_min":14,"x_max":842,"o":"m 842 983 l 842 739 l 581 739 l 581 0 l 272 0 l 272 739 l 14 739 l 14 983 l 842 983 m 535 -49 q 569 -236 569 -139 q 512 -412 569 -343 q 342 -481 454 -481 l 342 -372 q 418 -268 418 -372 l 418 -253 l 318 -253 l 318 -49 l 535 -49 z "},"ț":{"ha":606,"x_min":21,"x_max":557,"o":"m 557 263 l 557 0 l 440 0 q 118 321 118 0 l 118 526 l 21 526 l 21 783 l 118 783 l 118 972 l 426 972 l 426 783 l 554 783 l 554 526 l 426 526 l 426 315 q 440 275 426 288 q 483 263 453 263 l 557 263 m 421 -49 q 457 -236 457 -143 q 399 -412 457 -343 q 228 -481 340 -481 l 228 -372 q 304 -268 304 -372 l 304 -253 l 204 -253 l 204 -49 l 421 -49 z "},"ə":{"ha":856,"x_min":28,"x_max":828,"o":"m 428 793 q 635 744 544 793 q 777 605 726 696 q 828 392 828 514 q 777 178 828 269 q 635 39 726 88 q 428 -10 544 -10 q 220 38 311 -10 q 78 175 129 86 q 28 385 28 264 q 32 446 28 417 l 528 446 q 443 547 521 547 q 371 501 393 547 l 44 501 q 115 651 61 585 q 249 755 168 717 q 428 793 331 793 m 428 232 q 524 311 510 232 l 340 311 q 365 252 340 272 q 428 232 390 232 z "},"ʼ":{"ha":525,"x_min":89,"x_max":456,"o":"m 150 983 l 456 983 l 292 574 l 89 574 l 150 983 z "},"ˆ":{"ha":488,"x_min":14,"x_max":474,"o":"m 244 944 l 14 836 l 14 1036 l 244 1140 l 474 1036 l 474 836 l 244 944 z "},"ˇ":{"ha":488,"x_min":14,"x_max":474,"o":"m 474 940 l 244 836 l 14 940 l 14 1140 l 244 1018 l 474 1140 l 474 940 z "},"ˉ":{"ha":626,"x_min":14,"x_max":613,"o":"m 613 1068 l 613 864 l 14 864 l 14 1068 l 613 1068 z "},"˘":{"ha":549,"x_min":14,"x_max":536,"o":"m 536 1115 q 463 906 536 978 q 275 833 390 833 q 87 906 160 833 q 14 1115 14 978 l 14 1139 l 157 1139 q 183 1074 157 1096 q 275 1053 210 1053 q 367 1074 340 1053 q 393 1139 393 1096 l 536 1139 l 536 1115 z "},"˙":{"ha":267,"x_min":14,"x_max":253,"o":"m 132 861 q 48 895 82 861 q 14 979 14 929 q 48 1065 14 1031 q 132 1100 82 1100 q 219 1066 185 1100 q 253 979 253 1032 q 218 895 253 929 q 132 861 183 861 z "},"˚":{"ha":393,"x_min":14,"x_max":381,"o":"m 381 1007 q 328 874 381 924 q 197 824 275 824 q 67 874 119 824 q 14 1007 14 924 q 67 1140 14 1090 q 197 1190 119 1190 q 328 1140 275 1190 q 381 1007 381 1090 m 261 1007 q 243 1054 261 1036 q 197 1072 225 1072 q 151 1054 169 1072 q 133 1007 133 1036 q 151 960 133 978 q 197 942 169 942 q 243 960 225 942 q 261 1007 261 978 z "},"˛":{"ha":419,"x_min":25,"x_max":406,"o":"m 406 0 l 346 -29 q 265 -78 289 -57 q 240 -119 240 -99 q 253 -140 240 -132 q 288 -149 265 -149 q 406 -126 339 -149 l 406 -287 q 249 -310 332 -310 q 85 -265 144 -310 q 25 -143 25 -221 q 83 -11 25 -69 q 296 110 142 47 l 347 131 l 406 0 z "},"˜":{"ha":636,"x_min":0,"x_max":636,"o":"m 0 836 q 78 1023 22 965 q 224 1081 135 1081 q 286 1071 257 1081 q 349 1043 315 1061 q 391 1023 375 1029 q 424 1017 407 1017 q 485 1082 475 1017 l 636 1082 q 558 896 614 953 q 413 839 501 839 q 350 849 379 839 q 288 876 321 858 q 249 894 268 886 q 213 901 229 901 q 150 836 163 901 l 0 836 z "},"˝":{"ha":713,"x_min":14,"x_max":700,"o":"m 199 835 l 14 835 l 125 1174 l 358 1174 l 199 835 m 508 835 l 324 835 l 467 1174 l 700 1174 l 508 835 z "},"π":{"ha":983,"x_min":14,"x_max":976,"o":"m 976 783 l 976 553 l 886 553 l 886 0 l 578 0 l 578 553 l 413 553 l 413 0 l 104 0 l 104 553 l 14 553 l 14 783 l 976 783 z "},"Ẁ":{"ha":1528,"x_min":42,"x_max":1486,"o":"m 1486 983 l 1261 0 l 878 0 l 764 558 l 650 0 l 267 0 l 42 983 l 374 983 l 463 364 l 596 983 l 932 983 l 1065 364 l 1154 983 l 1486 983 m 944 1242 l 944 1036 l 585 1167 l 585 1394 l 944 1242 z "},"ẁ":{"ha":1254,"x_min":-1,"x_max":1258,"o":"m 1258 783 l 1072 0 l 725 0 l 631 442 l 531 0 l 183 0 l -1 783 l 304 783 l 369 307 l 471 783 l 800 783 l 907 301 l 974 783 l 1258 783 m 808 1042 l 808 836 l 449 967 l 449 1194 l 808 1042 z "},"Ẃ":{"ha":1528,"x_min":42,"x_max":1486,"o":"m 1486 983 l 1261 0 l 878 0 l 764 558 l 650 0 l 267 0 l 42 983 l 374 983 l 463 364 l 596 983 l 932 983 l 1065 364 l 1154 983 l 1486 983 m 944 1167 l 585 1036 l 585 1242 l 944 1394 l 944 1167 z "},"ẃ":{"ha":1254,"x_min":-1,"x_max":1258,"o":"m 1258 783 l 1072 0 l 725 0 l 631 442 l 531 0 l 183 0 l -1 783 l 304 783 l 369 307 l 471 783 l 800 783 l 907 301 l 974 783 l 1258 783 m 808 967 l 449 836 l 449 1042 l 808 1194 l 808 967 z "},"Ẅ":{"ha":1528,"x_min":42,"x_max":1486,"o":"m 1486 983 l 1261 0 l 878 0 l 764 558 l 650 0 l 267 0 l 42 983 l 374 983 l 463 364 l 596 983 l 932 983 l 1065 364 l 1154 983 l 1486 983 m 607 1061 q 523 1095 557 1061 q 489 1179 489 1129 q 523 1265 489 1231 q 607 1300 557 1300 q 694 1266 660 1300 q 728 1179 728 1232 q 693 1095 728 1129 q 607 1061 658 1061 m 919 1061 q 835 1095 869 1061 q 801 1179 801 1129 q 835 1265 801 1231 q 919 1300 869 1300 q 1006 1266 972 1300 q 1040 1179 1040 1232 q 1006 1095 1040 1129 q 919 1061 971 1061 z "},"ẅ":{"ha":1254,"x_min":-1,"x_max":1258,"o":"m 1258 783 l 1072 0 l 725 0 l 631 442 l 531 0 l 183 0 l -1 783 l 304 783 l 369 307 l 471 783 l 800 783 l 907 301 l 974 783 l 1258 783 m 471 861 q 387 895 421 861 q 353 979 353 929 q 387 1065 353 1031 q 471 1100 421 1100 q 558 1066 524 1100 q 592 979 592 1032 q 557 895 592 929 q 471 861 522 861 m 783 861 q 699 895 733 861 q 665 979 665 929 q 699 1065 665 1031 q 783 1100 733 1100 q 870 1066 836 1100 q 904 979 904 1032 q 869 895 904 929 q 783 861 835 861 z "},"Ẽ":{"ha":772,"x_min":67,"x_max":725,"o":"m 378 738 l 378 617 l 683 617 l 683 385 l 378 385 l 378 246 l 725 246 l 725 0 l 69 0 l 69 983 l 725 983 l 725 738 l 378 738 m 67 1040 q 145 1227 89 1169 q 290 1285 201 1285 q 353 1275 324 1285 q 415 1247 382 1265 q 458 1227 442 1233 q 490 1221 474 1221 q 551 1286 542 1221 l 703 1286 q 624 1100 681 1157 q 479 1043 568 1043 q 417 1053 446 1043 q 354 1081 388 1063 q 315 1098 335 1090 q 279 1106 296 1106 q 217 1040 229 1106 l 67 1040 z "},"ẽ":{"ha":856,"x_min":28,"x_max":828,"o":"m 828 399 q 824 338 828 367 l 328 338 q 413 236 335 236 q 485 282 463 236 l 811 282 q 741 133 794 199 q 606 28 688 67 q 428 -10 525 -10 q 220 39 311 -10 q 78 178 129 88 q 28 392 28 269 q 78 605 28 514 q 220 744 129 696 q 428 793 311 793 q 635 745 544 793 q 777 608 726 697 q 828 399 828 519 m 515 472 q 490 531 515 511 q 428 551 465 551 q 332 472 346 551 l 515 472 m 103 846 q 181 1033 125 975 q 326 1090 238 1090 q 389 1081 360 1090 q 451 1053 418 1071 q 494 1033 478 1039 q 526 1026 510 1026 q 588 1092 578 1026 l 739 1092 q 660 906 717 963 q 515 849 604 849 q 453 858 482 849 q 390 886 424 868 q 351 903 371 896 q 315 911 332 911 q 253 846 265 911 l 103 846 z "},"Ỳ":{"ha":1014,"x_min":0,"x_max":1014,"o":"m 1014 983 l 661 299 l 661 0 l 353 0 l 353 299 l 0 983 l 353 983 l 510 635 l 667 983 l 1014 983 m 686 1246 l 686 1040 l 326 1171 l 326 1399 l 686 1246 z "},"ỳ":{"ha":940,"x_min":-14,"x_max":954,"o":"m 954 783 l 453 -375 l 115 -375 l 313 39 l -14 783 l 329 783 l 476 386 l 614 783 l 954 783 m 649 1042 l 649 836 l 289 967 l 289 1194 l 649 1042 z "},"Ỹ":{"ha":1014,"x_min":0,"x_max":1014,"o":"m 1014 983 l 661 299 l 661 0 l 353 0 l 353 299 l 0 983 l 353 983 l 510 635 l 667 983 l 1014 983 m 183 1040 q 262 1227 206 1169 q 407 1285 318 1285 q 469 1275 440 1285 q 532 1247 499 1265 q 574 1227 558 1233 q 607 1221 590 1221 q 668 1286 658 1221 l 819 1286 q 741 1100 797 1157 q 596 1043 685 1043 q 533 1053 563 1043 q 471 1081 504 1063 q 432 1098 451 1090 q 396 1106 413 1106 q 333 1040 346 1106 l 183 1040 z "},"ỹ":{"ha":940,"x_min":-14,"x_max":954,"o":"m 954 783 l 453 -375 l 115 -375 l 313 39 l -14 783 l 329 783 l 476 386 l 614 783 l 954 783 m 146 836 q 224 1023 168 965 q 369 1081 281 1081 q 432 1071 403 1081 q 494 1043 461 1061 q 537 1023 521 1029 q 569 1017 553 1017 q 631 1082 621 1017 l 782 1082 q 703 896 760 953 q 558 839 647 839 q 496 849 525 839 q 433 876 467 858 q 394 894 414 886 q 358 901 375 901 q 296 836 308 901 l 146 836 z "},"–":{"ha":949,"x_min":76,"x_max":872,"o":"m 872 601 l 872 347 l 76 347 l 76 601 l 872 601 z "},"—":{"ha":1300,"x_min":76,"x_max":1224,"o":"m 1224 601 l 1224 347 l 76 347 l 76 601 l 1224 601 z "},"‘":{"ha":525,"x_min":69,"x_max":436,"o":"m 375 574 l 69 574 l 233 983 l 436 983 l 375 574 z "},"’":{"ha":525,"x_min":89,"x_max":456,"o":"m 150 983 l 456 983 l 292 574 l 89 574 l 150 983 z "},"‚":{"ha":500,"x_min":60,"x_max":426,"o":"m 121 261 l 426 261 l 263 -149 l 60 -149 l 121 261 z "},"“":{"ha":900,"x_min":69,"x_max":811,"o":"m 375 574 l 69 574 l 233 983 l 436 983 l 375 574 m 750 574 l 444 574 l 608 983 l 811 983 l 750 574 z "},"”":{"ha":900,"x_min":89,"x_max":831,"o":"m 150 983 l 456 983 l 292 574 l 89 574 l 150 983 m 525 983 l 831 983 l 667 574 l 464 574 l 525 983 z "},"„":{"ha":874,"x_min":63,"x_max":799,"o":"m 124 261 l 429 261 l 265 -149 l 63 -149 l 124 261 m 493 261 l 799 261 l 635 -149 l 432 -149 l 493 261 z "},"†":{"ha":996,"x_min":71,"x_max":925,"o":"m 925 553 l 621 574 l 651 -375 l 343 -375 l 372 574 l 71 553 l 71 783 l 372 763 l 343 1103 l 651 1103 l 621 763 l 925 783 l 925 553 z "},"‡":{"ha":994,"x_min":69,"x_max":925,"o":"m 621 574 l 621 154 l 925 176 l 925 -56 l 621 -35 l 650 -375 l 342 -375 l 372 -35 l 69 -56 l 69 176 l 372 154 l 372 574 l 69 553 l 69 783 l 372 763 l 342 1103 l 650 1103 l 621 763 l 925 783 l 925 553 l 621 574 z "},"•":{"ha":744,"x_min":139,"x_max":606,"o":"m 372 231 q 255 261 308 231 q 170 345 201 292 q 139 463 139 399 q 170 581 139 528 q 255 666 201 635 q 372 697 308 697 q 491 666 438 697 q 575 581 544 635 q 606 463 606 528 q 575 345 606 399 q 491 261 544 292 q 372 231 438 231 z "},"…":{"ha":1207,"x_min":44,"x_max":1163,"o":"m 604 -11 q 475 32 524 -11 q 426 140 426 75 q 475 251 426 207 q 604 294 524 294 q 732 251 683 294 q 781 140 781 207 q 732 32 781 75 q 604 -11 683 -11 m 986 -11 q 857 32 906 -11 q 808 140 808 75 q 857 251 808 207 q 986 294 906 294 q 1114 251 1065 294 q 1163 140 1163 207 q 1114 32 1163 75 q 986 -11 1065 -11 m 222 -11 q 93 32 142 -11 q 44 140 44 75 q 93 251 44 207 q 222 294 142 294 q 350 251 301 294 q 399 140 399 207 q 350 32 399 75 q 222 -11 301 -11 z "},"‰":{"ha":1783,"x_min":28,"x_max":1756,"o":"m 28 750 q 97 937 28 872 q 279 1001 167 1001 q 459 937 390 1001 q 528 750 528 872 q 459 564 528 628 q 279 500 390 500 q 97 564 167 500 q 28 750 28 628 m 1029 988 l 511 0 l 217 0 l 735 988 l 1029 988 m 276 822 q 229 750 229 822 q 276 679 229 679 q 315 697 301 679 q 328 750 328 715 q 315 804 328 786 q 276 822 301 822 m 718 238 q 788 424 718 360 q 968 489 857 489 q 1149 424 1081 489 q 1217 238 1217 360 q 1149 51 1217 115 q 968 -14 1081 -14 q 788 51 857 -14 q 718 238 718 115 m 1256 238 q 1325 424 1256 360 q 1507 489 1394 489 q 1687 424 1618 489 q 1756 238 1756 360 q 1687 51 1756 115 q 1507 -14 1618 -14 q 1325 51 1394 -14 q 1256 238 1256 115 m 967 310 q 918 238 918 310 q 967 165 918 165 q 1003 183 990 165 q 1017 238 1017 201 q 1003 291 1017 272 q 967 310 990 310 m 1504 310 q 1457 238 1457 310 q 1504 165 1457 165 q 1542 183 1529 165 q 1556 238 1556 201 q 1542 291 1556 272 q 1504 310 1528 310 z "},"‹":{"ha":518,"x_min":63,"x_max":449,"o":"m 169 167 l 63 410 l 169 653 l 449 653 l 339 410 l 449 167 l 169 167 z "},"›":{"ha":518,"x_min":69,"x_max":456,"o":"m 181 410 l 69 653 l 350 653 l 456 410 l 350 167 l 69 167 l 181 410 z "},"⁄":{"ha":771,"x_min":-37,"x_max":775,"o":"m 775 988 l 257 0 l -37 0 l 481 988 l 775 988 z "},"€":{"ha":1097,"x_min":21,"x_max":1056,"o":"m 574 278 q 667 305 626 278 q 731 381 708 332 l 1056 381 q 972 176 1035 264 q 808 41 908 89 q 579 -7 707 -7 q 276 86 399 -7 q 113 339 154 179 l 21 339 l 21 476 l 93 476 l 93 493 l 93 515 l 21 515 l 21 654 l 114 654 q 278 902 157 811 q 579 993 400 993 q 808 945 707 993 q 972 810 908 897 q 1056 606 1035 722 l 731 606 q 667 681 708 654 q 574 708 626 708 q 454 654 500 708 l 626 654 l 626 515 l 406 515 l 406 493 l 406 476 l 626 476 l 626 339 l 449 339 q 574 278 494 278 z "},"₺":{"ha":1138,"x_min":14,"x_max":1124,"o":"m 1124 668 q 1071 280 1124 426 q 900 65 1018 133 q 582 -3 782 -3 q 158 43 417 -3 l 158 346 l 14 326 l 14 506 l 158 526 l 158 572 l 14 551 l 14 725 l 158 747 l 158 989 l 471 989 l 471 794 l 621 817 l 621 638 l 471 617 l 471 569 l 626 592 l 626 411 l 471 390 l 471 296 q 579 286 517 286 q 739 340 689 286 q 800 467 789 393 q 811 668 811 542 l 1124 668 z "},"₽":{"ha":985,"x_min":14,"x_max":957,"o":"m 461 367 l 461 310 l 619 310 l 619 81 l 461 81 l 461 0 l 153 0 l 153 81 l 14 81 l 14 310 l 153 310 l 153 367 l 14 367 l 14 600 l 153 600 l 153 983 l 583 983 q 860 899 764 983 q 957 675 957 814 q 860 451 957 536 q 583 367 764 367 l 461 367 m 461 600 l 564 600 q 624 621 603 600 q 644 676 644 642 q 623 730 644 707 q 564 753 601 753 l 461 753 l 461 600 z "},"ℓ":{"ha":447,"x_min":69,"x_max":378,"o":"m 378 1028 l 378 0 l 69 0 l 69 1028 l 378 1028 z "},"™":{"ha":1315,"x_min":42,"x_max":1274,"o":"m 42 983 l 494 983 l 494 807 l 375 807 l 375 497 l 161 497 l 161 807 l 42 807 l 42 983 m 1274 983 l 1274 497 l 1078 497 l 1074 729 l 979 497 l 836 497 l 743 747 l 743 497 l 557 497 l 557 983 l 850 983 l 919 767 l 1007 983 l 1274 983 z "},"Ω":{"ha":1099,"x_min":46,"x_max":1054,"o":"m 1054 538 q 1029 365 1054 440 q 942 232 1004 290 l 1054 232 l 1054 0 l 683 0 l 683 239 q 726 368 713 311 q 740 493 740 425 q 692 659 740 603 q 550 715 643 715 q 408 659 457 715 q 358 493 358 603 q 372 369 358 425 q 417 239 386 314 l 417 0 l 46 0 l 46 232 l 158 232 q 71 365 96 290 q 46 538 46 440 q 112 787 46 682 q 292 946 178 892 q 550 1000 407 1000 q 806 946 692 1000 q 988 787 921 892 q 1054 538 1054 682 z "},"℮":{"ha":1028,"x_min":39,"x_max":990,"o":"m 949 185 q 526 -10 767 -10 q 276 47 386 -10 q 102 213 165 104 q 39 472 39 322 q 94 744 39 624 q 258 933 150 864 q 514 1001 365 1001 q 769 937 661 1001 q 933 767 876 872 q 990 539 990 661 l 990 450 l 351 450 l 351 194 q 526 163 444 163 q 851 300 714 163 l 949 185 m 681 814 q 514 838 619 838 q 432 830 467 838 q 351 808 397 822 l 351 593 l 681 593 l 681 814 z "},"∂":{"ha":892,"x_min":42,"x_max":850,"o":"m 42 369 q 92 590 42 497 q 229 731 143 683 q 421 779 315 779 q 565 732 517 779 q 492 826 542 796 q 350 857 443 857 q 276 853 315 857 l 276 1001 q 463 1028 376 1028 q 751 903 651 1028 q 850 557 850 778 q 734 141 850 290 q 404 -8 618 -8 q 222 33 304 -8 q 90 160 139 75 q 42 369 42 246 m 525 432 q 504 501 525 478 q 453 524 483 524 q 354 371 354 524 q 376 286 354 314 q 432 258 399 258 q 503 303 481 258 q 525 432 525 347 z "},"∆":{"ha":1069,"x_min":28,"x_max":1042,"o":"m 660 988 l 1042 233 l 1042 0 l 28 0 l 28 233 l 411 988 l 660 988 m 346 233 l 724 233 l 536 639 l 346 233 z "},"∏":{"ha":1046,"x_min":14,"x_max":1032,"o":"m 1032 988 l 1032 757 l 942 757 l 942 0 l 633 0 l 633 757 l 413 757 l 413 0 l 104 0 l 104 757 l 14 757 l 14 988 l 1032 988 z "},"∑":{"ha":814,"x_min":56,"x_max":758,"o":"m 758 756 l 382 756 l 657 604 l 657 372 l 353 171 l 758 171 l 758 -62 l 56 -62 l 56 297 l 358 481 l 56 629 l 56 988 l 758 988 l 758 756 z "},"−":{"ha":703,"x_min":28,"x_max":675,"o":"m 675 601 l 675 347 l 28 347 l 28 601 l 675 601 z "},"∕":{"ha":554,"x_min":-50,"x_max":614,"o":"m 614 1326 l 246 -275 l -50 -275 l 319 1326 l 614 1326 z "},"∙":{"ha":485,"x_min":65,"x_max":419,"o":"m 243 260 q 114 303 163 260 q 65 411 65 346 q 114 522 65 478 q 243 565 163 565 q 371 522 322 565 q 419 411 419 478 q 371 303 419 346 q 243 260 322 260 z "},"√":{"ha":1417,"x_min":26,"x_max":1379,"o":"m 1379 1288 l 615 -56 l 469 -56 l 240 354 l 111 279 l 26 418 l 429 656 l 635 286 l 1207 1288 l 1379 1288 z "},"∞":{"ha":1172,"x_min":46,"x_max":1128,"o":"m 847 743 q 1055 676 982 743 q 1128 483 1128 608 q 1092 344 1128 404 q 994 253 1056 285 q 858 222 933 222 q 698 253 767 222 q 571 336 629 283 q 463 253 526 283 q 325 222 400 222 q 119 290 193 222 q 46 482 46 358 q 82 622 46 563 q 179 712 118 681 q 314 743 240 743 q 477 710 411 743 q 594 619 543 676 q 704 710 639 676 q 847 743 769 743 m 343 421 q 454 469 407 421 q 397 526 422 507 q 343 546 371 546 q 300 529 317 546 q 283 482 283 513 q 300 437 283 453 q 343 421 317 421 m 829 421 q 873 438 856 421 q 890 483 890 454 q 874 530 890 514 q 829 546 857 546 q 762 530 794 546 q 706 482 729 514 q 763 437 733 453 q 829 421 792 421 z "},"∫":{"ha":433,"x_min":-79,"x_max":506,"o":"m 118 1036 q 233 1265 135 1200 q 488 1331 332 1331 l 506 1331 l 481 1067 l 456 1067 q 425 1036 431 1067 l 308 -136 q 193 -365 292 -300 q -61 -431 94 -431 l -79 -431 l -54 -167 l -31 -167 q 1 -136 -4 -167 l 118 1036 z "},"≈":{"ha":988,"x_min":28,"x_max":960,"o":"m 28 97 q 143 375 58 286 q 354 464 228 464 q 446 449 404 464 q 538 408 488 435 q 599 380 575 389 q 647 371 624 371 q 703 392 685 371 q 729 467 722 414 l 960 467 q 844 190 931 279 q 632 100 758 100 q 541 115 582 100 q 450 156 500 129 q 385 185 408 176 q 339 193 363 193 q 283 171 301 193 q 256 97 264 149 l 28 97 m 28 479 q 143 757 58 668 q 354 846 228 846 q 446 831 404 846 q 538 790 488 817 q 599 762 575 771 q 647 753 624 753 q 703 774 685 753 q 729 849 722 796 l 960 849 q 844 572 931 661 q 632 482 758 482 q 541 497 582 482 q 450 538 500 511 q 385 567 408 558 q 339 575 363 575 q 283 553 301 575 q 256 479 264 531 l 28 479 z "},"≠":{"ha":869,"x_min":28,"x_max":842,"o":"m 744 806 l 842 806 l 842 526 l 549 526 l 471 417 l 842 417 l 842 138 l 275 138 l 178 -1 l 29 -1 l 126 138 l 28 138 l 28 417 l 324 417 l 400 526 l 28 526 l 28 806 l 597 806 l 694 944 l 842 944 l 744 806 z "},"≤":{"ha":683,"x_min":28,"x_max":656,"o":"m 407 521 l 656 271 l 278 271 l 28 521 l 278 772 l 656 772 l 407 521 m 67 154 l 656 154 l 656 -83 l 67 -83 l 67 154 z "},"≥":{"ha":683,"x_min":28,"x_max":656,"o":"m 28 271 l 276 521 l 28 772 l 406 772 l 656 521 l 406 271 l 28 271 m 28 154 l 617 154 l 617 -83 l 28 -83 l 28 154 z "},"◊":{"ha":794,"x_min":14,"x_max":781,"o":"m 781 493 l 399 110 l 14 493 l 399 875 l 781 493 m 303 493 l 399 397 l 493 493 l 399 588 l 303 493 z "},"ﬁ":{"ha":989,"x_min":14,"x_max":908,"o":"m 501 839 q 476 840 492 840 q 428 827 444 840 q 408 783 413 814 l 885 783 l 885 0 l 576 0 l 576 526 l 406 526 l 406 0 l 97 0 l 97 526 l 14 526 l 14 783 l 97 783 q 190 1020 99 936 q 443 1104 281 1104 q 501 1101 460 1104 l 501 839 m 732 818 q 602 858 650 818 q 554 964 554 899 q 603 1069 554 1028 q 732 1110 651 1110 q 860 1069 813 1110 q 908 964 908 1028 q 860 858 908 899 q 732 818 813 818 z "},"ﬂ":{"ha":982,"x_min":14,"x_max":913,"o":"m 521 839 q 486 842 496 842 q 433 828 451 842 q 408 783 415 815 l 521 783 l 521 526 l 406 526 l 406 0 l 97 0 l 97 526 l 14 526 l 14 783 l 97 783 q 194 1020 100 936 q 457 1104 288 1104 q 521 1101 476 1104 l 521 839 m 913 1028 l 913 0 l 604 0 l 604 1028 l 913 1028 z "}}}
